<?xml version="1.0" encoding="utf-8"?>
<!-- Generator: Adobe Illustrator 22.1.0, SVG Export Plug-In . SVG Version: 6.00 Build 0)  -->
<svg version="1.1" id="Capa_1" xmlns="http://www.w3.org/2000/svg" xmlns:xlink="http://www.w3.org/1999/xlink" x="0px" y="0px"
	 viewBox="0 0 414.8 441.3" style="enable-background:new 0 0 414.8 441.3;" xml:space="preserve">
<style type="text/css">
	.st0{fill:#FFFFFF;}
	.st1{fill:#F22E3E;}
	.st2{fill:none;}
	.st3{fill:#D9898F;}
	.st4{fill:#EDB892;}
	.st5{fill:none;stroke:#D9898F;stroke-miterlimit:10;}
	.st6{fill:#A8527E;}
	.st7{fill:none;stroke:#8C3B68;stroke-width:2.208;stroke-linecap:round;stroke-linejoin:round;}
	.st8{fill:#F78B9A;}
	.st9{fill:#913969;}
	.st10{fill:#D68A65;}
	.st11{fill:#171717;}
	.st12{fill:none;stroke:#D68A65;stroke-width:1.444;stroke-linecap:round;stroke-linejoin:round;}
</style>
<title>ilustraciones</title>
<g id="_2">
	<path class="st0" d="M202.9,375.4c-1.8,2.3-81.8,34-119.8-8.4l-1.5-176.3l28.1-33.4l34.5,0.3l54.4,99.4L202.9,375.4z"/>
	<path class="st1" d="M74.3,178.1c0,0-31.7,16.7-18,132.1l-17.5,50.1h45.4L93.7,246L74.3,178.1z"/>
	<path class="st1" d="M99.5,209.5l-2.4,156.2c-8.8,10.8-20.2,9.8-20.2,9.8S66.3,184.2,73.1,179c14.5-11,36.7-21.7,36.7-21.7
		L99.5,209.5z"/>
	<line class="st2" x1="75.9" y1="360.3" x2="70.2" y2="231.3"/>
	<path class="st3" d="M106,179l-6.5,30.4L81,225.1c-1.8,1.5-4.4,1.3-5.9-0.5c-0.8-0.9-1.1-2.1-1-3.2l2-15.9
		c0.7-5.2,2.5-10.3,5.4-14.7l19.6-33.4L106,179z"/>
	<path class="st4" d="M101.2,157.3l2.8,31.3c0,0,17.2,11.1,30.8-6.9l5.6-22.8l-4.2-8.8L101.2,157.3z"/>
	<path class="st1" d="M130.7,210c0,0-1.9,139.4,14.3,152.5c30,24.1,76.1,20.3,76.1,20.3s-10.1-74.7-23-163.8l2.5-50.1
		c0,0-25.3-13.9-56.3-11.2L130.7,210z"/>
	<path class="st3" d="M138.3,157.1c0,0-14.3,31.5-7.6,52.9c1.9,6.1,20.2,15.9,20.2,15.9c2.9,2.8,7.6,2.6,10.4-0.3
		c1.5-1.6,2.2-3.7,2-5.9l-6.6-56.4c-1.1-9.1-9.6-15.8-18.6-13.9c-0.6,0.1-1.3,0.3-1.9,0.5L138.3,157.1z"/>
	<path class="st1" d="M198,167.7c0,0-38.1,35.7-9.7,108.9l4.8,25.9c2.7,14.4,16.5,24,30.9,21.3c0.5-0.1,0.9-0.2,1.4-0.3l0,0
		c13.4-3.2,24.1-16.2,22-29.8C241.4,254.1,233,181.4,198,167.7z"/>
	<line class="st5" x1="174.6" y1="225" x2="189.2" y2="281.3"/>
	<polygon class="st4" points="154.7,294 107.4,312.2 106.4,326.9 163.1,323.9 	"/>
	<path class="st4" d="M115.1,312.8c-8.4-6.1-19-8.5-29.2-6.6l-15.7-5.6c-2.4-0.9-5.1,0-6.5,2.2l0,0c-1.3,2.2-0.6,5.1,1.6,6.4
		c0.1,0.1,0.2,0.1,0.3,0.1l8.7,4.8h-3.5c-5.6,0-11-1.7-15.5-5l-12.5-9.2c-1.5-1-3.4-1.3-5-0.6l0,0c-2.3,0.8-3.6,3.3-2.8,5.6
		c0.2,0.7,0.6,1.3,1.2,1.8l14.8,14c5.9,5.5,13.8,8.3,21.9,7.9l44-2.2L115.1,312.8z"/>
	<polygon class="st1" points="136.7,294.6 119.2,298.8 124.2,327.8 143.8,324.6 	"/>
	<path class="st1" d="M216.3,269.2L141,289c-5.6,1.5-8.9,7.1-7.5,12.7l5.5,21.9c1.3,5.2,6.2,8.5,11.5,7.9l75-8
		c12.3-1.4,20.9-13.7,20.3-26.1l0,0C245.1,283.3,230.3,266.8,216.3,269.2z"/>
	<path class="st5" d="M206,271.9l-65.2,17.2c-4.3,1.1-7.3,4.8-7.6,9.2l0,0.1"/>
	<path class="st5" d="M211.8,325l-62.6,7c-4.1,0.5-8.1-1.8-9.8-5.6l0,0"/>
	<path class="st0" d="M202.9,375.4c-1.8,2.3-81.8,34-119.8-8.4l-1.5-176.3l28.1-33.4l34.5,0.3l54.4,99.4L202.9,375.4z"/>
	<path class="st6" d="M74.3,178.1c0,0-31.7,16.7-18,132.1l-17.5,50.1h45.4L93.7,246L74.3,178.1z"/>
	<path class="st6" d="M99.5,209.5l-2.4,156.2c-8.8,10.8-20.2,9.8-20.2,9.8S66.3,184.2,73.1,179c14.5-11,36.7-21.7,36.7-21.7
		L99.5,209.5z"/>
	<line class="st7" x1="75.9" y1="360.3" x2="70.2" y2="231.3"/>
	<path class="st8" d="M106,179l-6.5,30.4L81,225.1c-1.8,1.5-4.4,1.3-5.9-0.5c-0.8-0.9-1.1-2.1-1-3.2l2-15.9
		c0.7-5.2,2.5-10.3,5.4-14.7l19.6-33.4L106,179z"/>
	<path class="st9" d="M60.1,59.9c-0.1,0-0.2,0-0.4,0c-3.5,0.8-5.7,4.3-4.9,7.9c0,0.1,0,0.2,0.1,0.2c1.5,6.7,23.3,20.4,38.2,11.9
		l-5.5-14.7L60.1,59.9z"/>
	<path class="st10" d="M87.5,115.7c-1.2,5.5-6.7,8.9-12.1,7.7c-5.5-1.2-8.9-6.7-7.7-12.1s6.7-8.9,12.1-7.7c0,0,0,0,0,0
		C85.3,104.8,88.7,110.2,87.5,115.7C87.5,115.7,87.5,115.7,87.5,115.7z"/>
	<path class="st4" d="M97.1,138.9l9,40.1l26.3-9.8c4.9-1.8,7.5-7.1,6-12.1l-15-49.2L97.1,138.9z"/>
	<path class="st10" d="M100.3,153.4c0,0,17.4-1.9,15.9-22.3l-18.3,11.7L100.3,153.4z"/>
	<path class="st4" d="M75.2,81.6c0,0-5.4,34.4,0,47.5S92,150,109.3,145.3c0,0,20.3-2.5,23.2-33C136.9,66.3,94.6,55.9,75.2,81.6z"/>
	<path class="st11" d="M122.5,106c0,0-3.5-5.6,0-20.8S85,70.4,75.2,81.6c0,0,6.6-17,31.1-17.9s44.5,14.8,36,42.2l-6,9.6L122.5,106z"
		/>
	<path class="st11" d="M120.9,97.8c0,0,1.9,20-15.2,23.6c-10.9,2.3-21.9-5.7-32.2,1.4c0,0,4,30.3,35.1,23c4.1-1,8-3,11.2-5.8
		c6.3-5.5,15.3-16.6,10-32.7L120.9,97.8z"/>
	<circle class="st4" cx="136.4" cy="113.4" r="12.3"/>
	<path class="st12" d="M141.6,109.5c0,0-9.2-1.9-10.9,8.1"/>
	<path class="st11" d="M79.9,107.4c-0.2,1.3-1.4,2.1-2.7,1.9s-2.1-1.4-1.9-2.7c0.2-1.3,1.4-2.1,2.7-1.9
		C79.3,105,80.1,106.2,79.9,107.4C79.9,107.4,79.9,107.4,79.9,107.4z"/>
	<path class="st11" d="M99.5,106.4c-0.2,1.3-1.4,2.1-2.7,1.9s-2.1-1.4-1.9-2.7c0.2-1.3,1.4-2.1,2.7-1.9
		C98.9,104,99.7,105.2,99.5,106.4z"/>
	<polyline class="st12" points="85,109.3 81.3,115.6 85,117.6 	"/>
	<path class="st11" d="M92.2,91.9L92.2,91.9c-0.1,1.8,1.2,3.3,3,3.4c0.1,0,0.2,0,0.3,0c3.7-0.2,7.4,0.3,10.9,1.2
		c1.4,0.4,3-0.3,3.5-1.8l0,0c0.4-1.4-0.3-2.8-1.5-3.4c-4-2.5-8.8-3.3-13.3-2.4C93.5,89.2,92.3,90.4,92.2,91.9z"/>
	<path class="st11" d="M83.1,92.6L83.1,92.6c-0.1,1.8-1.2,3.5-2.4,3.5c-2.5,0-5,0.6-7.3,1.7c-1,0.5-1.9-0.2-2.1-1.6l0,0
		c-0.2-1.3,0.3-2.6,1.3-3.4c1.8-1.5,4.7-3.8,9-3C82.5,90,83.2,91.1,83.1,92.6z"/>
	<path class="st0" d="M83,124.1l10.7,0.2c0,0,0,3.3-5.4,3.3S83,124.1,83,124.1z"/>
	<path class="st3" d="M135.6,59.5c-0.4,2.7-3,4.6-5.7,4.1s-4.6-3-4.1-5.7s3-4.6,5.7-4.1c0,0,0,0,0,0C134.2,54.3,136,56.8,135.6,59.5
		z"/>
	<path class="st1" d="M123.5,55c18,7.2,27.1,26.6,20.5,43.3L83.3,64.4C92.3,53.3,108.6,49.1,123.5,55z"/>
	<path class="st3" d="M122.3,86.2c0,0-15.6-20.7-38.1-22.9l-24.2-3.4c0,0,18.7,6.9,26.1,14.8S113.3,88.5,122.3,86.2z"/>
	<path class="st4" d="M106,179l-2,9.5c0,0,17.2,11.1,30.8-6.9l3.5-24.6L106,179z"/>
	<path class="st6" d="M130.7,210c0,0-1.9,139.4,14.3,152.5c30,24.1,76.1,20.3,76.1,20.3s-10.1-74.7-23-163.8l2.5-50.1
		c0,0-25.3-13.9-56.3-11.2L130.7,210z"/>
	<path class="st8" d="M138.3,157.1c0,0-14.3,31.5-7.6,52.9c1.9,6.1,20.2,15.9,20.2,15.9c2.9,2.8,7.6,2.6,10.4-0.3
		c1.5-1.6,2.2-3.7,2-5.9l-6.6-56.4c-1.1-9.1-9.6-15.8-18.6-13.9c-0.6,0.1-1.3,0.3-1.9,0.5L138.3,157.1z"/>
	<path class="st6" d="M198,167.7c0,0-38.1,35.7-9.7,108.9l4.8,25.9c2.7,14.4,16.5,24,30.9,21.3c0.5-0.1,0.9-0.2,1.4-0.3l0,0
		c13.4-3.2,24.1-16.2,22-29.8C241.4,254.1,233,181.4,198,167.7z"/>
	<line class="st7" x1="174.6" y1="225" x2="189.2" y2="281.3"/>
	<polygon class="st4" points="154.7,294 107.4,312.2 106.4,326.9 163.1,323.9 	"/>
	<path class="st4" d="M115.1,312.8c-8.4-6.1-19-8.5-29.2-6.6l-15.7-5.6c-2.4-0.9-5.1,0-6.5,2.2l0,0c-1.3,2.2-0.6,5.1,1.6,6.4
		c0.1,0.1,0.2,0.1,0.3,0.1l8.7,4.8h-3.5c-5.6,0-11-1.7-15.5-5l-12.5-9.2c-1.5-1-3.4-1.3-5-0.6l0,0c-2.3,0.8-3.6,3.3-2.8,5.6
		c0.2,0.7,0.6,1.3,1.2,1.8l14.8,14c5.9,5.5,13.8,8.3,21.9,7.9l44-2.2L115.1,312.8z"/>
	<polygon class="st0" points="136.7,294.6 119.2,298.8 124.2,327.8 143.8,324.6 	"/>
	<path class="st6" d="M216.3,269.2L141,289c-5.6,1.5-8.9,7.1-7.5,12.7l5.5,21.9c1.3,5.2,6.2,8.5,11.5,7.9l75-8
		c12.3-1.4,20.9-13.7,20.3-26.1l0,0C245.1,283.3,230.3,266.8,216.3,269.2z"/>
	<path class="st7" d="M206,271.9l-65.2,17.2c-4.3,1.1-7.3,4.8-7.6,9.2l0,0.1"/>
	<path class="st7" d="M211.8,325l-62.6,7c-4.1,0.5-8.1-1.8-9.8-5.6l0,0"/>
	<path class="st0" d="M201.2,375.4c-1.8,2.3-81.8,34-119.8-8.4l-1.5-176.3l28.1-33.4l34.5,0.3L197,257L201.2,375.4z"/>
	<path class="st1" d="M72.6,178.1c0,0-31.7,16.7-18,132.1l-17.5,50.1h45.4L92,246L72.6,178.1z"/>
	<path class="st1" d="M97.8,209.5l-2.4,156.2c-8.8,10.8-20.2,9.8-20.2,9.8S64.6,184.2,71.4,179c14.5-11,36.7-21.7,36.7-21.7
		L97.8,209.5z"/>
	<line class="st2" x1="74.2" y1="360.3" x2="68.4" y2="231.3"/>
	<path class="st3" d="M104.3,179l-6.5,30.4l-18.5,15.6c-1.8,1.5-4.4,1.3-5.9-0.5c-0.8-0.9-1.1-2.1-1-3.2l2-15.9
		c0.7-5.2,2.5-10.3,5.4-14.7l19.6-33.4L104.3,179z"/>
	<path class="st4" d="M99.5,157.3l2.8,31.3c0,0,17.2,11.1,30.8-6.9l5.6-22.8l-4.2-8.8L99.5,157.3z"/>
	<path class="st1" d="M129,210c0,0-1.9,139.4,14.3,152.5c30,24.1,76.1,20.3,76.1,20.3s-10.1-74.7-23-163.8l2.5-50.1
		c0,0-25.3-13.9-56.3-11.2L129,210z"/>
	<path class="st3" d="M136.6,157.1c0,0-14.3,31.5-7.6,52.9c1.9,6.1,20.2,15.9,20.2,15.9c2.9,2.8,7.6,2.6,10.4-0.3
		c1.5-1.6,2.2-3.7,2-5.9l-6.6-56.4c-1.1-9.1-9.6-15.8-18.6-13.9c-0.6,0.1-1.2,0.3-1.9,0.5L136.6,157.1z"/>
	<path class="st1" d="M196.3,167.7c0,0-38.1,35.7-9.7,108.9l4.8,25.9c2.7,14.4,16.5,24,31,21.3c0.5-0.1,0.9-0.2,1.4-0.3l0,0
		c13.4-3.2,24.1-16.2,22-29.8C239.7,254.1,231.2,181.4,196.3,167.7z"/>
	<line class="st5" x1="172.9" y1="225" x2="187.5" y2="281.3"/>
	<polygon class="st4" points="153,294 105.7,312.2 104.7,326.9 161.4,323.9 	"/>
	<path class="st4" d="M113.3,312.8c-8.4-6.1-19-8.5-29.2-6.6l-15.7-5.6c-2.4-0.9-5.1,0-6.5,2.2l0,0c-1.3,2.2-0.6,5.1,1.6,6.4
		c0.1,0.1,0.2,0.1,0.3,0.1l8.7,4.8H69c-5.6,0-11-1.7-15.5-5l-12.5-9.2c-1.5-1-3.4-1.3-5-0.6l0,0c-2.3,0.8-3.6,3.3-2.8,5.6
		c0.2,0.7,0.6,1.3,1.2,1.8l14.8,14c5.9,5.5,13.8,8.3,21.9,7.9l44-2.2L113.3,312.8z"/>
	<polygon class="st1" points="135,294.6 117.5,298.8 122.5,327.8 142.1,324.6 	"/>
	<path class="st1" d="M214.6,269.2L139.3,289c-5.6,1.5-8.9,7.1-7.5,12.7l5.5,21.9c1.3,5.2,6.2,8.5,11.5,7.9l75-8
		c12.3-1.4,20.9-13.7,20.3-26.1l0,0C243.4,283.3,228.6,266.8,214.6,269.2z"/>
	<path class="st5" d="M204.3,271.9L139,289.1c-4.3,1.1-7.3,4.8-7.6,9.2l0,0.1"/>
	<path class="st5" d="M210.1,325l-62.6,7c-4.1,0.5-8.1-1.8-9.8-5.6l0,0"/>
</g>
</svg>
