<?xml version="1.0" encoding="utf-8"?>
<!-- Generator: Adobe Illustrator 24.2.0, SVG Export Plug-In . SVG Version: 6.00 Build 0)  -->
<svg version="1.1" id="_1" xmlns="http://www.w3.org/2000/svg" xmlns:xlink="http://www.w3.org/1999/xlink" x="0px" y="0px"
	 viewBox="0 0 278.2 319.9" style="enable-background:new 0 0 278.2 319.9;" xml:space="preserve">
<style type="text/css">
	.st0{fill:#560F18;}
	.st1{fill:#F29B5F;}
	.st2{fill:#FFAF78;}
	.st3{fill:#DD996B;}
	.st4{fill:none;stroke:#2F1A2A;stroke-width:0.893;stroke-linecap:round;stroke-linejoin:round;}
	.st5{fill:#D6B494;}
	.st6{fill:none;stroke:#D9898F;stroke-width:0.75;stroke-miterlimit:10;}
	.st7{fill:none;}
	.st8{fill:#FFFFFF;}
	.st9{fill:#2F1A2A;}
	.st10{fill:#ABF75C;}
</style>
<path class="st0" d="M86.5,61.1c0,0,2.2,14.5-1.6,18.3c-7.3,7.2-29.7,10.4-18.1,41.6l102.7,0.8c0,0,5.2-12.3-6.2-19.6
	c0,0-4-2.8-1.5-11.2s-3.5-14.4-11-23.4l-14.5-24.1L86.5,61.1z"/>
<ellipse transform="matrix(7.853974e-03 -1 1 7.853974e-03 61.3465 180.2205)" class="st0" cx="121.5" cy="59.2" rx="33.5" ry="35.1"/>
<circle class="st1" cx="152.8" cy="72" r="9.1"/>
<polygon class="st2" points="133.4,92.9 132.2,133.2 103.1,131.3 109.5,72.1 "/>
<path class="st3" d="M132.9,105.3c0,0-13-1.4-13.4-16.3l13.7,7.4L132.9,105.3z"/>
<path class="st2" d="M150.8,39.6c2.2,2,3.8,4.7,4.3,7.6c1.7,8.7,5,24,1.8,33.2c-4.1,12-13.9,20.4-29.6,17.3c0,0-18.8-2.1-22.5-26
	C98.9,33.7,131.3,22.9,150.8,39.6z"/>
<path class="st4" d="M147.6,70.6l1.4,4c0.1,0.5-0.2,1-0.7,1.1l-2.2,0.4"/>
<path class="st0" d="M107.1,65.7c1.5,0.6,29.1-15.7,15.3-33.8c0,0-20.9,4.7-20,33.7L107.1,65.7z"/>
<path class="st0" d="M124.6,38.5c0,0,18.5-4.4,29.2,4.9c0,0-5.1-16.7-30.5-17.7L113.6,47L124.6,38.5z"/>
<polygon class="st0" points="113,56.3 111,75.3 104.6,57.8 "/>
<path class="st2" d="M91.2,77c1.7,5.8,7.8,9.2,13.7,7.5s9.2-7.8,7.5-13.7c-1.7-5.8-7.8-9.2-13.7-7.5C92.9,65,89.5,71.2,91.2,77z"/>
<path class="st4" d="M96.9,70.6c0,0,8.1-2.3,10.2,6.6"/>
<path class="st5" d="M159.3,138.1c0,0,15.7,9.3,15.7,33.6v69.5c0,8.6-6.3,16-14.8,17.4l0,0c-9.6,1.5-18.6-5-20.2-14.6
	c-0.1-0.9-0.2-1.8-0.2-2.7l-0.6-91.6L159.3,138.1z"/>
<path class="st2" d="M215.7,196.1l7.6,9.8l-57.9,51.5c-6.3,4.7-15.3,3.3-19.9-3c-0.6-0.9-1.2-1.8-1.6-2.8l0,0c-3-7,0-15.1,6.9-18.4
	L215.7,196.1z"/>
<path class="st2" d="M215.7,196.1l4.1-7.2c2.2-3.7,5.2-6.9,8.8-9.3l6.3-4.2c1.3-0.9,3.2-0.5,4,0.8c0.1,0.1,0.2,0.3,0.2,0.4l0,0
	c0.6,1.4,0.3,3-0.8,4.1l-5.6,5.8l30.3-8.7c1.2-0.4,2.5,0.3,2.8,1.5c0,0.1,0.1,0.2,0.1,0.3l0.2,0.9c0.2,1.1-0.4,2.1-1.4,2.5
	l-17.8,5.7l21.3-3.7c1.2-0.3,2.4,0.5,2.7,1.7c0,0.1,0,0.2,0,0.3l0.1,0.7c0.1,1.1-0.6,2.2-1.7,2.4l-22.1,4.5l18.3-0.4
	c1.2-0.1,2.3,0.9,2.4,2.2c0,0.2,0,0.3,0,0.5v0.3c-0.2,1-1,1.7-1.9,1.9l-19.1,2.5h11.7c1.2,0,2.3,1,2.3,2.3c0,0.3-0.1,0.7-0.2,1l0,0
	c-0.3,0.7-1,1.2-1.8,1.3l-42.6,3.9L215.7,196.1z"/>
<path class="st5" d="M99.2,124.6c0,0-25.2,5.8-34.9,30.6s-3,110.2-3,110.2s48,23.9,89.9-3l8.1-124.3c0,0-11.7-8-19.4-12.6
	L99.2,124.6z"/>
<path class="st2" d="M112.8,119.4c0,0-8.1,1.8-22,8.6c0,0,20.9,16.2,37.4,35.8c0,0,12.9-13.2,11.7-38.2l-16.3-6.1L112.8,119.4z"/>
<line class="st6" x1="157.2" y1="170.6" x2="153.2" y2="230.1"/>
<line class="st7" x1="83" y1="217.4" x2="82.2" y2="157.7"/>
<path class="st2" d="M45.9,257.7l-4.8,2.7c0,0-1.1,14.6-7.5,27.9c-0.4,0.7-1.1,1.1-1.9,1l0,0c-1-0.2-1.6-1.1-1.5-2.1
	c0-0.1,0-0.2,0.1-0.2l3.1-10c-2.5,5.9-5.4,11.7-8.6,17.3c-0.6,1-1.9,1.4-2.9,0.9l0,0c-1.1-0.5-1.6-1.8-1.1-2.9l6.4-16.1l-8.5,15
	c-0.7,1.2-2.1,1.6-3.3,1l0,0c-1.2-0.6-1.7-2.1-1.1-3.3l7.2-14.6l-8.1,11.3c-0.9,1.3-2.7,1.6-4,0.7c-0.1-0.1-0.3-0.2-0.4-0.4l0,0
	c-0.9-1-1.1-2.5-0.3-3.6c3-4.5,10-15.7,9.9-23c-2.1,1.4-4,3-5.8,4.8c-1.3,1.3-3.3,1.3-4.6,0.1c-0.1-0.1-0.3-0.3-0.4-0.4l0,0
	c-0.8-1.1-0.8-2.6,0-3.8l6-8.6c1.1-1.6,2.8-2.8,4.8-3.3l10.4-2.8l5-5.2L45.9,257.7z"/>
<path class="st8" d="M136.2,82.1l13.1,1c0,0-0.1,5.1-6.8,4.7S136.2,82.1,136.2,82.1z"/>
<polygon class="st5" points="64.6,164.8 54.7,195 33,239.8 46.9,259.1 85,192.5 "/>
<line class="st6" x1="85" y1="182" x2="60.1" y2="236.5"/>
<path class="st9" d="M150.2,68.1c0.3,1.1,1.4,1.8,2.5,1.5s1.8-1.4,1.5-2.5s-1.4-1.8-2.5-1.5l0,0C150.6,65.8,149.9,67,150.2,68.1
	L150.2,68.1z"/>
<path class="st9" d="M132.7,68.4c0.3,1.1,1.4,1.8,2.5,1.5s1.8-1.4,1.5-2.5s-1.4-1.8-2.5-1.5C133,66.2,132.4,67.3,132.7,68.4
	L132.7,68.4z"/>
<circle class="st0" cx="91.3" cy="35" r="10.5"/>
<path class="st0" d="M132.9,59.2c0,0,6.4-0.6,6.8,1c0,0,0.2,1.1-5.4,1.5s-7.9,0.4-8.6-0.6S129.8,59.3,132.9,59.2z"/>
<path class="st0" d="M152.1,59.1c0,0-5.6-0.6-6.4,0.8c0,0-0.5,1,4.4,1.5c3.6,0.4,4.9,0,5.3-0.7C155.9,60,154.3,59.3,152.1,59.1z"/>
<path class="st10" d="M233.3,71.5c0,0.9,0,1.7,0,2.6c-0.1,0.2-0.3,0.4-0.6,0.3c-0.2,0-0.3-0.2-0.4-0.4c0-0.2,0.1-0.4-0.1-0.5
	c-0.2-0.1-0.4,0-0.6,0c-0.1,0-0.3,0-0.4,0c-0.2,0-0.3,0-0.3,0.3c-0.1,0.7-0.3,1.3-0.7,1.9c-0.1,0.2-0.4,0.4-0.4,0.6s0.3,0.4,0.5,0.6
	c0.4,0.4,0.4,0.4,0.8,0.1c0.2-0.2,0.6-0.2,0.7,0c0.2,0.2,0.2,0.5-0.1,0.7c-0.5,0.5-1.1,1.1-1.6,1.6c-0.2,0.2-0.5,0.2-0.7,0
	s-0.2-0.4-0.1-0.7c0.3-0.5,0.3-0.5-0.1-0.9c-0.1-0.1-0.2-0.2-0.3-0.3c-0.1-0.2-0.2-0.2-0.4,0c-0.5,0.4-1.1,0.6-1.7,0.8
	c-0.3,0.1-0.7,0-0.9,0.3c-0.1,0.3,0,0.6,0,1s0.1,0.5,0.4,0.4c0.3-0.1,0.4,0,0.5,0.2s0.1,0.4-0.1,0.6c-0.1,0.1-0.1,0.1-0.2,0.2
	c-0.9,0-1.7,0-2.6,0c-0.2-0.1-0.4-0.3-0.3-0.6c0.1-0.3,0.3-0.4,0.6-0.3s0.4-0.1,0.4-0.3c0-0.3,0-0.6,0-0.8c0-0.2,0-0.3-0.2-0.3
	c-0.7-0.1-1.4-0.4-2.1-0.8c-0.5-0.3-0.5-0.3-1,0.1c-0.2,0.2-0.4,0.3-0.4,0.5s0.2,0.3,0.3,0.5s0.1,0.5-0.1,0.6
	c-0.2,0.2-0.4,0.2-0.6,0c-0.6-0.6-1.2-1.1-1.7-1.7c-0.2-0.2-0.2-0.4,0-0.6s0.4-0.2,0.6-0.1c0.1,0.1,0.2,0.2,0.3,0.2
	c0.1,0.1,0.2,0.1,0.3,0c0.2-0.2,0.4-0.4,0.6-0.6c0.1-0.1,0.1-0.2,0-0.3c-0.4-0.5-0.7-1.1-0.9-1.7c-0.1-0.3,0-0.7-0.3-0.9
	c-0.3-0.1-0.6,0-1,0c-0.3,0-0.4,0-0.3,0.3c0,0.3,0,0.5-0.4,0.6c-0.3,0.1-0.5-0.1-0.6-0.3c0-0.9,0-1.7,0-2.6c0.1-0.2,0.3-0.4,0.6-0.3
	c0.2,0,0.3,0.2,0.4,0.4c0,0.2-0.1,0.4,0.1,0.5c0.2,0.1,0.4,0,0.6,0c0.1,0,0.3,0,0.4,0c0.2,0,0.3,0,0.3-0.3c0.1-0.7,0.3-1.3,0.7-1.9
	c0.1-0.2,0.5-0.5,0.4-0.7s-0.4-0.4-0.6-0.6c-0.2-0.3-0.4-0.3-0.7,0c-0.2,0.2-0.5,0.2-0.7,0s-0.2-0.5,0-0.7c0.5-0.6,1.1-1.1,1.6-1.6
	c0.2-0.2,0.5-0.2,0.7,0s0.2,0.4,0,0.7c-0.1,0.1-0.1,0.2-0.2,0.2c-0.1,0.1-0.1,0.2,0,0.3c0.2,0.2,0.4,0.4,0.6,0.6
	c0.1,0.2,0.2,0.2,0.4,0c0.6-0.4,1.2-0.7,1.9-0.9c0.7-0.2,0.7-0.1,0.7-0.8c0-0.1,0-0.3,0-0.4c0-0.3-0.1-0.4-0.3-0.3
	c-0.3,0-0.5,0-0.6-0.4c-0.1-0.3,0.1-0.5,0.3-0.6c0.9,0,1.7,0,2.6,0c0.2,0.1,0.4,0.3,0.3,0.6c-0.1,0.3-0.4,0.4-0.6,0.4h-0.1
	c-0.1,0-0.2,0.1-0.2,0.2c0,0.4,0,0.7,0,1.1c0,0.1,0,0.2,0.2,0.2c0.8,0,1.4,0.3,2.1,0.7c0.2,0.1,0.4,0.4,0.6,0.3
	c0.2,0,0.3-0.3,0.5-0.5c0.4-0.4,0.4-0.4,0.1-0.9c-0.2-0.2-0.2-0.5,0.1-0.7c0.2-0.2,0.4-0.2,0.6,0c0.6,0.6,1.2,1.1,1.7,1.7
	c0.2,0.2,0.2,0.4,0,0.6s-0.4,0.2-0.6,0.1c-0.1-0.1-0.2-0.1-0.3-0.2s-0.2-0.1-0.3,0c-0.2,0.2-0.4,0.4-0.6,0.6c-0.2,0.1-0.2,0.2,0,0.4
	c0.4,0.5,0.6,1.1,0.8,1.7c0.1,0.3,0,0.7,0.3,0.9c0.3,0.1,0.6,0,1,0c0.3,0,0.4-0.1,0.3-0.3c0-0.3,0-0.5,0.4-0.6
	C232.9,71.1,233.1,71.3,233.3,71.5z M223.5,69.2c-0.6,0-1.2,0.5-1.2,1.1s0.6,1.2,1.2,1.2c0.6,0,1.2-0.6,1.2-1.2
	S224.2,69.2,223.5,69.2z M227.3,74.5c-0.4,0-0.7,0.3-0.7,0.7c0,0.3,0.3,0.7,0.6,0.7s0.7-0.4,0.7-0.7C228,74.8,227.7,74.5,227.3,74.5
	z"/>
<path class="st10" d="M194.6,95.8c0,0.9,0,1.7,0,2.6c-0.1,0.2-0.3,0.4-0.6,0.3c-0.2,0-0.3-0.2-0.4-0.4c0-0.2,0.1-0.4-0.1-0.5
	c-0.2-0.1-0.4,0-0.6,0c-0.1,0-0.3,0-0.4,0c-0.2,0-0.3,0-0.3,0.3c-0.1,0.7-0.3,1.3-0.7,1.9c-0.1,0.2-0.4,0.4-0.4,0.6s0.3,0.4,0.5,0.6
	c0.4,0.4,0.4,0.4,0.8,0.1c0.2-0.2,0.6-0.2,0.7,0c0.2,0.2,0.2,0.5-0.1,0.7c-0.5,0.5-1.1,1.1-1.6,1.6c-0.2,0.2-0.5,0.2-0.7,0
	s-0.2-0.4-0.1-0.7c0.3-0.5,0.3-0.5-0.1-0.9c-0.1-0.1-0.2-0.2-0.3-0.3c-0.1-0.2-0.2-0.2-0.4,0c-0.5,0.4-1.1,0.6-1.7,0.8
	c-0.3,0.1-0.7,0-0.9,0.3c-0.1,0.3,0,0.6,0,1s0.1,0.5,0.4,0.4c0.3-0.1,0.4,0,0.5,0.2s0.1,0.4-0.1,0.6c-0.1,0.1-0.1,0.1-0.2,0.2
	c-0.9,0-1.7,0-2.6,0c-0.2-0.1-0.4-0.3-0.3-0.6c0.1-0.3,0.3-0.4,0.6-0.3s0.4-0.1,0.4-0.3c0-0.3,0-0.6,0-0.8c0-0.2,0-0.3-0.2-0.3
	c-0.7-0.1-1.4-0.4-2.1-0.8c-0.5-0.3-0.5-0.3-1,0.1c-0.2,0.2-0.4,0.3-0.4,0.5s0.2,0.3,0.3,0.5s0.1,0.5-0.1,0.6
	c-0.2,0.2-0.4,0.2-0.6,0c-0.6-0.6-1.2-1.1-1.7-1.7c-0.2-0.2-0.2-0.4,0-0.6s0.4-0.2,0.6-0.1c0.1,0.1,0.2,0.2,0.3,0.2
	c0.1,0.1,0.2,0.1,0.3,0c0.2-0.2,0.4-0.4,0.6-0.6c0.1-0.1,0.1-0.2,0-0.3c-0.4-0.5-0.7-1.1-0.9-1.7c-0.1-0.3,0-0.7-0.3-0.9
	c-0.3-0.1-0.6,0-1,0c-0.3,0-0.4,0-0.3,0.3c0,0.3,0,0.5-0.4,0.6c-0.3,0.1-0.5-0.1-0.6-0.3c0-0.9,0-1.7,0-2.6c0.1-0.2,0.3-0.4,0.6-0.3
	c0.2,0,0.3,0.2,0.4,0.4c0,0.2-0.1,0.4,0.1,0.5c0.2,0.1,0.4,0,0.6,0c0.1,0,0.3,0,0.4,0c0.2,0,0.3,0,0.3-0.3c0.1-0.7,0.3-1.3,0.7-1.9
	c0.1-0.2,0.5-0.5,0.4-0.7s-0.4-0.4-0.6-0.6c-0.2-0.3-0.4-0.3-0.7,0c-0.2,0.2-0.5,0.2-0.7,0s-0.2-0.5,0-0.7c0.5-0.6,1.1-1.1,1.6-1.6
	c0.2-0.2,0.5-0.2,0.7,0s0.2,0.4,0,0.7c-0.1,0.1-0.1,0.2-0.2,0.2c-0.1,0.1-0.1,0.2,0,0.3c0.2,0.2,0.4,0.4,0.6,0.6
	c0.1,0.2,0.2,0.2,0.4,0c0.6-0.4,1.2-0.7,1.9-0.9c0.7-0.2,0.7-0.1,0.7-0.8c0-0.1,0-0.3,0-0.4c0-0.3-0.1-0.4-0.3-0.3
	c-0.3,0-0.5,0-0.6-0.4c-0.1-0.3,0.1-0.5,0.3-0.6c0.9,0,1.7,0,2.6,0c0.2,0.1,0.4,0.3,0.3,0.6c-0.1,0.3-0.4,0.4-0.6,0.4h-0.1
	c-0.1,0-0.2,0.1-0.2,0.2c0,0.4,0,0.7,0,1.1c0,0.1,0,0.2,0.2,0.2c0.8,0,1.4,0.3,2.1,0.7c0.2,0.1,0.4,0.4,0.6,0.3
	c0.2,0,0.3-0.3,0.5-0.5c0.4-0.4,0.4-0.4,0.1-0.9c-0.2-0.2-0.2-0.5,0.1-0.7c0.2-0.2,0.4-0.2,0.6,0c0.6,0.6,1.2,1.1,1.7,1.7
	c0.2,0.2,0.2,0.4,0,0.6s-0.4,0.2-0.6,0.1c-0.1-0.1-0.2-0.1-0.3-0.2s-0.2-0.1-0.3,0c-0.2,0.2-0.4,0.4-0.6,0.6c-0.2,0.1-0.2,0.2,0,0.4
	c0.4,0.5,0.6,1.1,0.8,1.7c0.1,0.3,0,0.7,0.3,0.9c0.3,0.1,0.6,0,1,0c0.3,0,0.4-0.1,0.3-0.3c0-0.3,0-0.5,0.4-0.6
	C194.3,95.4,194.5,95.6,194.6,95.8z M184.9,93.5c-0.6,0-1.2,0.5-1.2,1.1s0.6,1.2,1.2,1.2c0.6,0,1.2-0.6,1.2-1.2
	C186.1,94,185.6,93.5,184.9,93.5z M188.7,98.8c-0.4,0-0.7,0.3-0.7,0.7c0,0.3,0.3,0.7,0.6,0.7s0.7-0.4,0.7-0.7
	C189.4,99.1,189.1,98.8,188.7,98.8z"/>
<path class="st10" d="M263.3,42.4c0,0.7,0,1.4,0,2.1c-0.1,0.2-0.2,0.3-0.5,0.3c-0.2,0-0.3-0.2-0.3-0.3c0-0.2,0.1-0.4-0.1-0.4
	c-0.1-0.1-0.3,0-0.5,0c-0.1,0-0.2,0-0.3,0c-0.2,0-0.2,0-0.3,0.2c-0.1,0.6-0.3,1.1-0.6,1.6c-0.1,0.2-0.3,0.4-0.3,0.5
	c0,0.2,0.3,0.3,0.4,0.5c0.3,0.3,0.3,0.3,0.7,0.1c0.2-0.1,0.5-0.1,0.6,0c0.2,0.2,0.1,0.4,0,0.6c-0.4,0.4-0.9,0.9-1.3,1.3
	c-0.2,0.2-0.4,0.2-0.5,0c-0.2-0.2-0.2-0.3-0.1-0.5c0.3-0.4,0.3-0.4-0.1-0.7c-0.1-0.1-0.2-0.2-0.3-0.3c-0.1-0.1-0.2-0.2-0.3,0
	c-0.4,0.3-0.9,0.5-1.4,0.7c-0.2,0.1-0.6,0-0.7,0.2s0,0.5,0,0.8s0,0.4,0.4,0.3c0.2-0.1,0.3,0,0.4,0.2s0.1,0.3-0.1,0.5
	c-0.1,0.1-0.1,0.1-0.2,0.1c-0.7,0-1.4,0-2.1,0c-0.2-0.1-0.3-0.3-0.3-0.5c0.1-0.3,0.3-0.3,0.5-0.2c0.2,0,0.3,0,0.3-0.3
	c0-0.2,0-0.5,0-0.7s0-0.2-0.2-0.2c-0.6-0.1-1.2-0.3-1.7-0.6c-0.4-0.3-0.4-0.3-0.8,0.1c-0.1,0.1-0.3,0.2-0.4,0.4
	c0,0.1,0.2,0.2,0.3,0.4s0.1,0.4-0.1,0.5c-0.2,0.1-0.4,0.2-0.5,0c-0.5-0.5-1-0.9-1.4-1.4c-0.1-0.2-0.1-0.4,0-0.5
	c0.1-0.2,0.3-0.2,0.5-0.1c0.1,0.1,0.2,0.1,0.2,0.2c0.1,0.1,0.2,0.1,0.3,0c0.2-0.2,0.3-0.4,0.5-0.5c0.1-0.1,0.1-0.2,0-0.3
	c-0.3-0.4-0.5-0.9-0.7-1.4c-0.1-0.2,0-0.6-0.2-0.7c-0.2-0.1-0.5,0-0.8,0c-0.2,0-0.3,0-0.3,0.3c0,0.2,0,0.4-0.3,0.5
	c-0.2,0.1-0.4-0.1-0.5-0.3c0-0.7,0-1.4,0-2.1c0.1-0.2,0.2-0.3,0.5-0.3c0.2,0,0.3,0.2,0.3,0.3s-0.1,0.4,0.1,0.4c0.1,0.1,0.3,0,0.5,0
	c0.1,0,0.2,0,0.3,0c0.2,0,0.2,0,0.3-0.2c0.1-0.5,0.3-1.1,0.5-1.5c0.1-0.2,0.4-0.4,0.3-0.6c-0.1-0.2-0.3-0.3-0.5-0.5s-0.3-0.3-0.6,0
	c-0.2,0.2-0.4,0.2-0.6,0c-0.2-0.2-0.1-0.4,0-0.6c0.4-0.5,0.9-0.9,1.3-1.3c0.2-0.1,0.4-0.2,0.5,0c0.2,0.2,0.2,0.4,0,0.5
	c0,0.1-0.1,0.1-0.2,0.2c-0.1,0.1-0.1,0.2,0,0.3c0.2,0.2,0.4,0.3,0.5,0.5c0.1,0.1,0.2,0.1,0.3,0c0.5-0.4,1-0.6,1.6-0.7
	c0.6-0.1,0.6-0.1,0.6-0.7c0-0.1,0-0.2,0-0.3c0-0.2,0-0.3-0.3-0.3c-0.2,0-0.4,0-0.5-0.3s0.1-0.4,0.3-0.5c0.7,0,1.4,0,2.1,0
	c0.2,0.1,0.3,0.3,0.3,0.5c-0.1,0.3-0.3,0.3-0.5,0.3h-0.1c-0.1,0-0.1,0.1-0.1,0.2c0,0.3,0,0.6,0,0.9c0,0.1,0,0.2,0.1,0.2
	c0.6,0,1.2,0.3,1.7,0.6c0.2,0.1,0.3,0.3,0.5,0.3s0.3-0.2,0.4-0.4c0.3-0.3,0.3-0.3,0.1-0.7c-0.1-0.2-0.1-0.4,0-0.5
	c0.2-0.1,0.4-0.2,0.5,0c0.5,0.5,0.9,0.9,1.4,1.4c0.2,0.2,0.1,0.4,0,0.5c-0.2,0.2-0.3,0.2-0.5,0c-0.1-0.1-0.2-0.1-0.2-0.2
	c-0.1-0.1-0.2-0.1-0.3,0c-0.2,0.2-0.3,0.4-0.5,0.5c-0.1,0.1-0.1,0.2,0,0.3c0.3,0.4,0.5,0.9,0.7,1.4c0.1,0.2,0,0.6,0.2,0.7
	c0.2,0.1,0.5,0,0.8,0c0.2,0,0.3,0,0.3-0.3c0-0.2,0-0.4,0.3-0.5C263,42.1,263.2,42.2,263.3,42.4z M255.3,40.5c-0.5,0-1,0.4-1,0.9
	s0.5,1,0.9,1c0.5,0,0.9-0.5,0.9-1C256.3,41,255.9,40.5,255.3,40.5z M258.4,44.9c-0.3,0-0.6,0.2-0.6,0.5c0,0.2,0.3,0.6,0.5,0.6
	c0.3,0,0.6-0.3,0.6-0.6C259,45.1,258.7,44.9,258.4,44.9z"/>
<path class="st10" d="M190.7,70.6c0,0.4,0,0.9,0,1.3c-0.1,0.1-0.2,0.2-0.3,0.2s-0.2-0.1-0.2-0.2s0.1-0.2,0-0.3c-0.1,0-0.2,0-0.3,0
	s-0.1,0-0.2,0c-0.1,0-0.1,0-0.2,0.1c-0.1,0.3-0.2,0.7-0.4,1c-0.1,0.1-0.2,0.2-0.2,0.3c0,0.1,0.2,0.2,0.3,0.3c0.2,0.2,0.2,0.2,0.4,0
	c0.1-0.1,0.3-0.1,0.4,0c0.1,0.1,0.1,0.2,0,0.4c-0.3,0.3-0.5,0.5-0.8,0.8c-0.1,0.1-0.2,0.1-0.3,0s-0.1-0.2,0-0.3
	c0.2-0.2,0.2-0.2,0-0.4c-0.1-0.1-0.1-0.1-0.2-0.2c-0.1-0.1-0.1-0.1-0.2,0c-0.3,0.2-0.5,0.3-0.8,0.4c-0.2,0.1-0.4,0-0.5,0.1
	s0,0.3,0,0.5s0,0.2,0.2,0.2c0.1,0,0.2,0,0.2,0.1c0.1,0.1,0,0.2,0,0.3l-0.1,0.1c-0.4,0-0.9,0-1.3,0c-0.1-0.1-0.2-0.2-0.2-0.3
	c0-0.2,0.2-0.2,0.3-0.1c0.1,0,0.2,0,0.2-0.2c0-0.1,0-0.3,0-0.4s0-0.1-0.1-0.1c-0.4-0.1-0.7-0.2-1-0.4c-0.3-0.2-0.3-0.2-0.5,0.1
	c-0.1,0.1-0.2,0.2-0.2,0.2c0,0.1,0.1,0.2,0.2,0.2c0.1,0.1,0.1,0.2,0,0.3c-0.1,0.1-0.2,0.1-0.3,0c-0.3-0.3-0.6-0.6-0.9-0.9
	c-0.1-0.1-0.1-0.2,0-0.3c0.1-0.1,0.2-0.1,0.3,0c0.1,0,0.1,0.1,0.2,0.1c0.1,0.1,0.1,0.1,0.2,0c0.1-0.1,0.2-0.2,0.3-0.3
	c0.1-0.1,0.1-0.1,0-0.2c-0.2-0.3-0.3-0.6-0.4-0.9c0-0.1,0-0.4-0.1-0.4c-0.1-0.1-0.3,0-0.5,0c-0.1,0-0.2,0-0.2,0.2
	c0,0.1,0,0.3-0.2,0.3s-0.2,0-0.3-0.2c0-0.4,0-0.9,0-1.3c0.1-0.1,0.2-0.2,0.3-0.2s0.2,0.1,0.2,0.2s-0.1,0.2,0,0.3c0.1,0,0.2,0,0.3,0
	s0.1,0,0.2,0c0.1,0,0.1,0,0.2-0.1c0-0.3,0.2-0.7,0.3-1c0.1-0.1,0.2-0.2,0.2-0.4c0-0.1-0.2-0.2-0.3-0.3c-0.1-0.2-0.2-0.2-0.3,0
	c-0.1,0.1-0.3,0.1-0.4,0c-0.1-0.1-0.1-0.2,0-0.4c0.3-0.3,0.5-0.6,0.8-0.8c0.1-0.1,0.2-0.1,0.3,0s0.1,0.2,0,0.3l-0.1,0.1
	c-0.1,0.1-0.1,0.1,0,0.2s0.2,0.2,0.3,0.3c0.1,0.1,0.1,0.1,0.2,0c0.3-0.2,0.6-0.4,1-0.4c0.4-0.1,0.4-0.1,0.4-0.4c0-0.1,0-0.1,0-0.2
	s0-0.2-0.2-0.2c-0.1,0-0.3,0-0.3-0.2s0-0.2,0.2-0.3c0.4,0,0.9,0,1.3,0c0.1,0.1,0.2,0.2,0.2,0.3c0,0.2-0.2,0.2-0.3,0.2c0,0,0,0-0.1,0
	s-0.1,0-0.1,0.1c0,0.2,0,0.4,0,0.5s0,0.1,0.1,0.1c0.4,0,0.7,0.2,1,0.3c0.1,0.1,0.2,0.2,0.3,0.2s0.2-0.1,0.3-0.2
	c0.2-0.2,0.2-0.2,0-0.4c-0.1-0.1-0.1-0.2,0-0.3c0.1-0.1,0.2-0.1,0.3,0c0.3,0.3,0.6,0.6,0.9,0.9c0.1,0.1,0.1,0.2,0,0.3
	c-0.1,0.1-0.2,0.1-0.3,0l-0.1-0.1c-0.1-0.1-0.1-0.1-0.2,0c-0.1,0.1-0.2,0.2-0.3,0.3c-0.1,0.1-0.1,0.1,0,0.2c0.2,0.3,0.3,0.6,0.4,0.9
	c0,0.1,0,0.4,0.1,0.4c0.1,0.1,0.3,0,0.5,0c0.1,0,0.2,0,0.2-0.2c0-0.1,0-0.3,0.2-0.3C190.5,70.4,190.6,70.5,190.7,70.6z M185.8,69.5
	c-0.3,0-0.6,0.3-0.6,0.6c0,0.3,0.3,0.6,0.6,0.6s0.6-0.3,0.6-0.6C186.3,69.7,186.1,69.5,185.8,69.5z M187.7,72.1
	c-0.2,0-0.3,0.1-0.3,0.3c0,0.1,0.2,0.4,0.3,0.4c0.2,0,0.4-0.2,0.4-0.4C188,72.3,187.9,72.1,187.7,72.1z"/>
<path class="st10" d="M231.6,48.1c0,0.5,0,0.9,0,1.4c-0.1,0.1-0.2,0.2-0.3,0.2s-0.2-0.1-0.2-0.2c0-0.1,0.1-0.2,0-0.3
	c-0.1,0-0.2,0-0.3,0s-0.1,0-0.2,0c-0.1,0-0.1,0-0.2,0.1c-0.1,0.4-0.2,0.7-0.4,1c-0.1,0.1-0.2,0.2-0.2,0.3s0.2,0.2,0.3,0.3
	c0.2,0.2,0.2,0.2,0.4,0c0.1-0.1,0.3-0.1,0.4,0c0.1,0.1,0.1,0.3,0,0.4c-0.3,0.3-0.6,0.6-0.9,0.9c-0.1,0.1-0.2,0.1-0.4,0
	c-0.1-0.1-0.1-0.2,0-0.4c0.2-0.3,0.2-0.3,0-0.5c-0.1-0.1-0.1-0.1-0.2-0.2c-0.1-0.1-0.1-0.1-0.2,0c-0.3,0.2-0.6,0.3-0.9,0.4
	c-0.2,0.1-0.4,0-0.5,0.1s0,0.3,0,0.5s0,0.3,0.2,0.2c0.1,0,0.2,0,0.3,0.1s0,0.2,0,0.3l-0.1,0.1c-0.5,0-0.9,0-1.4,0
	c-0.1-0.1-0.2-0.2-0.2-0.3c0-0.2,0.2-0.2,0.3-0.2s0.2,0,0.2-0.2c0-0.1,0-0.3,0-0.4c0-0.1,0-0.1-0.1-0.2c-0.4-0.1-0.8-0.2-1.1-0.4
	s-0.3-0.2-0.5,0.1c-0.1,0.1-0.2,0.2-0.2,0.3s0.1,0.2,0.2,0.2c0.1,0.1,0.1,0.2,0,0.3s-0.2,0.1-0.3,0c-0.3-0.3-0.6-0.6-0.9-0.9
	c-0.1-0.1-0.1-0.2,0-0.3s0.2-0.1,0.3,0c0.1,0,0.1,0.1,0.2,0.1c0.1,0.1,0.1,0.1,0.2,0c0.1-0.1,0.2-0.2,0.3-0.3s0.1-0.1,0-0.2
	c-0.2-0.3-0.3-0.6-0.5-0.9c0-0.2,0-0.4-0.1-0.5s-0.3,0-0.5,0c-0.1,0-0.2,0-0.2,0.2s0,0.3-0.2,0.3s-0.3,0-0.3-0.2c0-0.5,0-0.9,0-1.4
	c0.1-0.1,0.2-0.2,0.3-0.2s0.2,0.1,0.2,0.2c0,0.1-0.1,0.2,0.1,0.3c0.1,0,0.2,0,0.3,0s0.1,0,0.2,0c0.1,0,0.1,0,0.2-0.1
	c0.1-0.4,0.2-0.7,0.3-1c0.1-0.1,0.2-0.2,0.2-0.4c0-0.1-0.2-0.2-0.3-0.3c-0.1-0.2-0.2-0.2-0.4,0c-0.1,0.1-0.3,0.1-0.4,0
	c-0.1-0.1-0.1-0.3,0-0.4c0.3-0.3,0.6-0.6,0.8-0.9c0.1-0.1,0.2-0.1,0.4,0c0.1,0.1,0.1,0.2,0,0.4l-0.1,0.1c-0.1,0.1-0.1,0.1,0,0.2
	c0.1,0.1,0.2,0.2,0.3,0.3s0.1,0.1,0.2,0c0.3-0.2,0.6-0.4,1-0.5s0.4-0.1,0.4-0.4c0-0.1,0-0.1,0-0.2c0-0.1,0-0.2-0.2-0.2
	s-0.3,0-0.3-0.2s0.1-0.3,0.2-0.3c0.5,0,0.9,0,1.4,0c0.1,0.1,0.2,0.2,0.2,0.3c-0.1,0.2-0.2,0.2-0.3,0.2c0,0,0,0-0.1,0s-0.1,0-0.1,0.1
	c0,0.2,0,0.4,0,0.6c0,0.1,0,0.1,0.1,0.1c0.4,0,0.7,0.2,1.1,0.4c0.1,0.1,0.2,0.2,0.3,0.2s0.2-0.2,0.3-0.2c0.2-0.2,0.2-0.2,0-0.5
	c-0.1-0.1-0.1-0.3,0-0.4c0.1-0.1,0.2-0.1,0.3,0c0.3,0.3,0.6,0.6,0.9,0.9c0.1,0.1,0.1,0.2,0,0.3s-0.2,0.1-0.3,0
	c-0.1,0-0.1-0.1-0.1-0.1c-0.1-0.1-0.1-0.1-0.2,0c-0.1,0.1-0.2,0.2-0.3,0.3s-0.1,0.1,0,0.2c0.2,0.3,0.3,0.6,0.4,0.9
	c0.1,0.2,0,0.4,0.1,0.5s0.3,0,0.5,0c0.1,0,0.2,0,0.2-0.2s0-0.3,0.2-0.3C231.4,47.9,231.5,48,231.6,48.1z M226.5,46.9
	c-0.3,0-0.6,0.3-0.6,0.6s0.3,0.7,0.6,0.7s0.6-0.3,0.6-0.6C227.1,47.2,226.8,46.9,226.5,46.9z M228.5,49.7c-0.2,0-0.4,0.2-0.4,0.3
	c0,0.2,0.2,0.4,0.3,0.4c0.2,0,0.4-0.2,0.4-0.4S228.7,49.7,228.5,49.7z"/>
<path class="st10" d="M200.9,44.4c0,0.8,0,1.6,0,2.4c-0.1,0.2-0.3,0.4-0.5,0.3c-0.2,0-0.3-0.2-0.4-0.4c0-0.2,0.1-0.4-0.1-0.5
	c-0.1-0.1-0.4,0-0.5,0s-0.3,0-0.4,0c-0.2,0-0.3,0-0.3,0.2c-0.1,0.6-0.3,1.2-0.6,1.8c-0.1,0.2-0.4,0.4-0.3,0.6c0,0.2,0.3,0.3,0.5,0.5
	c0.3,0.3,0.3,0.3,0.7,0.1c0.2-0.2,0.5-0.2,0.6,0c0.2,0.2,0.1,0.4,0,0.6c-0.5,0.5-1,1-1.5,1.5c-0.2,0.2-0.4,0.2-0.6,0
	c-0.2-0.2-0.2-0.4-0.1-0.6c0.3-0.4,0.3-0.4-0.1-0.8c-0.1-0.1-0.2-0.2-0.3-0.3c-0.1-0.2-0.2-0.2-0.4,0c-0.5,0.3-1,0.6-1.5,0.7
	c-0.3,0.1-0.7,0-0.8,0.3c-0.1,0.2,0,0.6,0,0.9c0,0.4,0.1,0.4,0.4,0.3c0.2-0.1,0.3,0,0.4,0.2c0.1,0.2,0.1,0.4-0.1,0.5
	c-0.1,0.1-0.1,0.1-0.2,0.2c-0.8,0-1.6,0-2.4,0c-0.2-0.1-0.4-0.3-0.3-0.6c0.1-0.3,0.3-0.3,0.5-0.3c0.2,0.1,0.4-0.1,0.3-0.3
	c0-0.3,0-0.5,0-0.8c0-0.2,0-0.2-0.2-0.3c-0.7-0.1-1.3-0.3-1.9-0.7c-0.5-0.3-0.5-0.3-0.9,0.1c-0.1,0.1-0.3,0.3-0.4,0.4
	c0,0.1,0.2,0.3,0.3,0.4c0.1,0.2,0.1,0.4-0.1,0.6c-0.2,0.2-0.4,0.2-0.6,0c-0.5-0.5-1.1-1-1.6-1.6c-0.2-0.2-0.1-0.4,0-0.6
	c0.2-0.2,0.4-0.2,0.6-0.1c0.1,0.1,0.2,0.1,0.3,0.2c0.1,0.1,0.2,0.1,0.3,0c0.2-0.2,0.4-0.4,0.6-0.6c0.1-0.1,0.1-0.2,0-0.3
	c-0.4-0.5-0.6-1-0.8-1.6c-0.1-0.3,0-0.7-0.2-0.8s-0.6,0-0.9,0c-0.2,0-0.3,0-0.3,0.3s0,0.5-0.3,0.6s-0.4-0.1-0.6-0.3
	c0-0.8,0-1.6,0-2.4c0.1-0.2,0.3-0.4,0.5-0.3c0.2,0,0.3,0.2,0.4,0.4c0,0.2-0.1,0.4,0.1,0.5c0.1,0.1,0.4,0,0.5,0s0.3,0,0.4,0
	c0.2,0,0.3,0,0.3-0.2c0.1-0.6,0.3-1.2,0.6-1.7c0.1-0.2,0.4-0.4,0.3-0.6c-0.1-0.2-0.4-0.4-0.5-0.6c-0.2-0.3-0.4-0.3-0.6,0
	c-0.2,0.2-0.5,0.2-0.6,0c-0.2-0.2-0.2-0.4,0-0.6c0.5-0.5,1-1,1.5-1.5c0.2-0.2,0.4-0.2,0.6,0c0.2,0.2,0.2,0.4,0,0.6
	c-0.1,0.1-0.1,0.2-0.2,0.2c-0.1,0.1-0.1,0.2,0,0.3c0.2,0.2,0.4,0.4,0.6,0.6c0.1,0.1,0.2,0.1,0.4,0c0.5-0.4,1.1-0.7,1.7-0.8
	c0.6-0.1,0.6-0.1,0.6-0.7c0-0.1,0-0.2,0-0.4s-0.1-0.3-0.3-0.3c-0.3,0-0.5,0-0.6-0.3s0.1-0.4,0.3-0.6c0.8,0,1.6,0,2.4,0
	c0.2,0.1,0.4,0.3,0.3,0.6c-0.1,0.3-0.3,0.3-0.6,0.3h-0.1c-0.1,0-0.2,0.1-0.2,0.2c0,0.3,0,0.6,0,1c0,0.1,0,0.2,0.2,0.2
	c0.7,0,1.3,0.3,1.9,0.6c0.2,0.1,0.4,0.3,0.5,0.3c0.2,0,0.3-0.3,0.5-0.4c0.4-0.4,0.4-0.4,0.1-0.8c-0.1-0.2-0.1-0.4,0-0.6
	c0.2-0.2,0.4-0.2,0.6,0c0.5,0.5,1.1,1,1.6,1.6c0.2,0.2,0.1,0.4,0,0.6c-0.2,0.2-0.4,0.2-0.6,0.1c-0.1-0.1-0.2-0.1-0.2-0.2
	c-0.1-0.1-0.2-0.1-0.3,0c-0.2,0.2-0.4,0.4-0.6,0.6c-0.1,0.1-0.2,0.2,0,0.4c0.4,0.5,0.6,1,0.8,1.5c0.1,0.3,0,0.7,0.2,0.8s0.6,0,0.9,0
	c0.2,0,0.3,0,0.3-0.3s0-0.5,0.3-0.6C200.6,44,200.8,44.2,200.9,44.4z M192.1,42.3c-0.6,0-1.1,0.5-1.1,1s0.5,1.1,1.1,1.1
	c0.5,0,1-0.6,1.1-1.1C193.1,42.7,192.7,42.3,192.1,42.3z M195.5,47.1c-0.3,0-0.6,0.3-0.6,0.6s0.3,0.7,0.5,0.7c0.3,0,0.7-0.3,0.7-0.6
	C196.1,47.3,195.8,47.1,195.5,47.1z"/>
</svg>
