<?xml version="1.0" encoding="utf-8"?>
<!-- Generator: Adobe Illustrator 22.1.0, SVG Export Plug-In . SVG Version: 6.00 Build 0)  -->
<svg version="1.1" id="Capa_1" xmlns="http://www.w3.org/2000/svg" xmlns:xlink="http://www.w3.org/1999/xlink" x="0px" y="0px"
	 viewBox="0 0 426 441.3" style="enable-background:new 0 0 426 441.3;" xml:space="preserve">
<style type="text/css">
	.st0{fill:#5A7336;}
	.st1{fill:#EDB892;}
	.st2{fill:none;stroke:#D68A65;stroke-width:1.441;stroke-linecap:round;stroke-linejoin:round;}
	.st3{fill:#FFFFFF;}
	.st4{fill:#F22E3E;}
	.st5{fill:none;}
	.st6{fill:none;stroke:#48592B;stroke-miterlimit:10;}
	.st7{fill:#F49DA6;}
	.st8{fill:#D9898F;}
	.st9{fill:#F78B9A;}
	.st10{fill:#E5E5E5;}
	.st11{fill:none;stroke:#E07988;stroke-width:2.431;stroke-linecap:round;stroke-linejoin:round;}
	.st12{fill:#171717;}
	.st13{fill:#D68A65;}
	.st14{fill:#3B1F1B;}
	.st15{clip-path:url(#SVGID_2_);}
	.st16{fill:#E275C2;}
	.st17{fill:#195BA3;}
	.st18{fill:none;stroke:#14497A;stroke-miterlimit:10;}
</style>
<g id="_2">
	<path class="st0" d="M291.3,196.8c0,0,22,18.5-8.1,115.1l-30.2,3.7L291.3,196.8z"/>
	<path class="st1" d="M355.2,272c0,0-9.7-9,1.3-21.6l16.6-19.7c1.4-1.6,3.8-1.7,5.4-0.4c0.1,0.1,0.2,0.2,0.3,0.3l0,0
		c1,1.2,1.3,2.8,0.6,4.2l-5.7,12.1l29.4-16.2c1.9-1.2,4.5-0.6,5.7,1.4c0.1,0.2,0.2,0.4,0.3,0.6l0,0c0.7,1.8,0.1,3.9-1.6,5
		l-19.1,12.2l0.2,1.1l21.6-9.8c2.1-0.7,4.3,0.4,5.1,2.4c0.1,0.2,0.1,0.5,0.2,0.8l0,0c0.3,1.9-0.8,3.7-2.6,4.3l-21,10.8l0.2,1.4
		l20.1-6.5c1.8-0.4,6.9,0.8,7.2,2.6l0,0c0.3,1.7-4.1,3.3-5.8,3.7l-20.9,8.2l0.1,1.3l19.2-5.4c1.6-0.1,2.9,1.2,3,2.7
		c0,0.2,0,0.4,0,0.6l0,0c-0.2,1.3-1.3,2.3-2.6,2.4l-22,7c0,0-20.5,11.4-28.6,3.1L355.2,272z"/>
	<path class="st2" d="M373.6,246.9c0,0,5.1,11.5-3.3,20.5"/>
	<polygon class="st1" points="325.4,271.1 358.4,260.6 370.4,281.2 333,297.1 	"/>
	<polygon class="st3" points="337.5,264.7 351.3,260.6 363.3,284 346.2,291.4 	"/>
	<path class="st0" d="M261.1,284.7l68.6-24.3c6.3-2.1,13.3,0.9,15.9,7.1l7.8,18.1c2.7,6.3,0,13.7-6.2,16.7l-64.7,32.8
		c-11.4,5.5-25.2,1.2-31.5-9.8l0,0C243.9,312.7,247.7,290.3,261.1,284.7z"/>
	<path class="st4" d="M175.6,359.7c0,0,47.3,38,92.4,5.1l2.5-93.6l6.3-63.5l-8.9-14.9l-26.4-6.8l-31.6,3.1l-4.1,55.8L175.6,359.7z"
		/>
	<path class="st1" d="M226.7,195c0,0,22.5,25,43.8,4.7l-10.4-29l-35.6-1.2L226.7,195z"/>
	<path class="st0" d="M268,207.9c0,0-9.1,111.2-4.3,175.4c0.1,1.7,1.6,2.9,3.3,2.8c0.8-0.1,1.6-0.5,2.1-1.1l0,0
		c3.5-5.8,5.6-12.4,5.9-19.2l5.5-99.8l15.3-52.7c1.7-5.9-0.1-12.2-4.6-16.3c-6.9-6.2-14.8-11.2-23.4-14.8L268,207.9z"/>
	<path class="st3" d="M227.9,161.5c0,0-5.4,4.1,0.2,18c3,7.5,7,13.2,7.8,22.3c0.4,4.9-2.8,16.7-2.8,16.7L206,175.6
		C206,175.6,216.8,160.3,227.9,161.5z"/>
	<path class="st0" d="M233.1,218.4c0,0,7,87-28.9,163.8c-1.9,4-6.3,6.1-10.6,5c-9.5-2.5-27.4-9.8-44-37.9l8.4-142.7
		c0.3-5.6,3.4-10.7,8.2-13.6c12.4-7.6,25.8-13.5,39.7-17.5C206,175.6,227.8,188.1,233.1,218.4z"/>
	<path class="st0" d="M166.1,193.1c0,0,38.1,35.7,9.7,108.9l-4.8,25.9c-2.7,14.4-16.5,24-31,21.3c-0.5-0.1-0.9-0.2-1.4-0.3l0,0
		c-13.4-3.2-22.1-16.2-20-29.8C124.7,279.5,139.6,203.9,166.1,193.1z"/>
	<path class="st1" d="M240.6,308.8c0,0-6.5-11.6,7.8-20.2l21.8-13.8c1.8-1.1,4.1-0.5,5.2,1.3c0.1,0.1,0.2,0.3,0.2,0.4l0,0
		c0.6,1.4,0.3,3.1-0.7,4.2l-9,9.8l33-6.5c2.2-0.5,4.4,0.8,5,3c0.1,0.2,0.1,0.4,0.1,0.7l0,0c0.2,2-1.1,3.8-3,4.3l-21.9,5.8l-0.1,1.1
		l23.5-2.8c2.2-0.1,4,1.7,4.1,3.9c0,0.3,0,0.5-0.1,0.8l0,0c-0.3,1.9-1.9,3.3-3.8,3.3l-23.3,4l-0.3,1.4l21.1-0.1
		c1.8,0.2,3.1,1.8,2.9,3.6v0.1l0,0c-0.2,1.7-1.8,2.9-3.5,2.8l-22.4,1.5l-0.3,1.3l19.9,0.7c1.5,0.4,2.4,2,2,3.5
		c-0.1,0.2-0.1,0.4-0.2,0.6l0,0c-0.6,1.2-1.9,1.8-3.2,1.5l-23.1,0.1c0,0-23,4.6-28.2-5.7L240.6,308.8z"/>
	<polygon class="st1" points="208,300.5 247.2,299 252.4,322.2 210.5,328.5 	"/>
	<polygon class="st3" points="224.4,296 241.4,295 245.9,324.8 227.2,327.3 	"/>
	<path class="st0" d="M140.8,295.1l79.6-3.9c5.9-0.3,10.9,4.2,11.2,10.1l1.4,23.1c0.3,5.4-3.5,10.2-8.8,11.2l-75.5,13.7
		c-12.5,2.4-24.6-5.2-27.9-17.5l0,0C117.1,317.7,126.4,297.1,140.8,295.1z"/>
	<line class="st5" x1="179" y1="293.2" x2="151.7" y2="294.5"/>
	<line class="st6" x1="185.6" y1="239" x2="172.3" y2="295.7"/>
	<line class="st6" x1="151" y1="294.8" x2="229.7" y2="295.7"/>
	<path class="st3" d="M261.5,182c4.1,10.7,6.1,22.1,5.7,33.5c0,0,17-24.4-8-52.3L261.5,182z"/>
	<path class="st7" d="M291.3,196.8c0,0,22,18.5-8.1,115.1l-30.2,3.7L291.3,196.8z"/>
	<path class="st1" d="M355.2,272c0,0-9.7-9,1.3-21.6l16.6-19.7c1.4-1.6,3.8-1.7,5.4-0.4c0.1,0.1,0.2,0.2,0.3,0.3l0,0
		c1,1.2,1.3,2.8,0.6,4.2l-5.7,12.1l29.4-16.2c1.9-1.2,4.5-0.6,5.7,1.4c0.1,0.2,0.2,0.4,0.3,0.6l0,0c0.7,1.8,0.1,3.9-1.6,5
		l-19.1,12.2l0.2,1.1l21.6-9.8c2.1-0.7,4.3,0.4,5.1,2.4c0.1,0.2,0.1,0.5,0.2,0.8l0,0c0.3,1.9-0.8,3.7-2.6,4.3l-21,10.8l0.2,1.4
		l20.1-6.5c1.8-0.4,6.9,0.8,7.2,2.6l0,0c0.3,1.7-4.1,3.3-5.8,3.7l-20.9,8.2l0.1,1.3l19.2-5.4c1.6-0.1,2.9,1.2,3,2.7
		c0,0.2,0,0.4,0,0.6l0,0c-0.2,1.3-1.3,2.3-2.6,2.4l-22,7c0,0-20.5,11.4-28.6,3.1L355.2,272z"/>
	<path class="st2" d="M373.6,246.9c0,0,5.1,11.5-3.3,20.5"/>
	<polygon class="st1" points="325.4,271.1 358.4,260.6 370.4,281.2 333,297.1 	"/>
	<polygon class="st3" points="337.5,264.7 351.3,260.6 363.3,284 346.2,291.4 	"/>
	<path class="st7" d="M261.1,284.7l68.6-24.3c6.3-2.1,13.3,0.9,15.9,7.1l7.8,18.1c2.7,6.3,0,13.7-6.2,16.7l-64.7,32.8
		c-11.4,5.5-25.2,1.2-31.5-9.8l0,0C243.9,312.7,247.7,290.3,261.1,284.7z"/>
	<path class="st8" d="M175.6,359.7c0,0,47.3,38,92.4,5.1l2.5-93.6l6.3-63.5l-8.9-14.9l-26.4-6.8l-31.6,3.1l-4.1,55.8L175.6,359.7z"
		/>
	<path class="st1" d="M226.7,195c0,0,22.5,25,43.8,4.7l-10.4-29l-35.6-1.2L226.7,195z"/>
	<path class="st9" d="M268,207.9c0,0-9.1,111.2-4.3,175.4c0.1,1.7,1.6,2.9,3.3,2.8c0.8-0.1,1.6-0.5,2.1-1.1l0,0
		c3.5-5.8,5.6-12.4,5.9-19.2l5.5-99.8l15.3-52.7c1.7-5.9-0.1-12.2-4.6-16.3c-6.9-6.2-14.8-11.2-23.4-14.8L268,207.9z"/>
	<path class="st3" d="M261.5,182c4.1,10.7,6.1,22.1,5.7,33.5c0,0,18.1-22.1-3.9-51.4L261.5,182z"/>
	<polygon class="st10" points="228,158.1 237.5,159 233.7,168 220.9,170.6 218.7,168.4 	"/>
	<path class="st3" d="M227.9,158.1c0,0-5.4,4.3,0.2,19c3,7.9,7,13.9,7.8,23.7c0.4,5.2-2.8,17.6-2.8,17.6L206,175.5
		C206,175.6,216.8,156.9,227.9,158.1z"/>
	<path class="st9" d="M233.1,218.4c0,0,7,87-28.9,163.8c-1.9,4-6.3,6.1-10.6,5c-9.5-2.5-27.4-9.8-44-37.9l8.4-142.7
		c0.3-5.6,3.4-10.7,8.2-13.6c12.4-7.6,25.8-13.5,39.7-17.5C206,175.6,227.8,188.1,233.1,218.4z"/>
	<path class="st7" d="M166.1,193.1c0,0,38.1,35.7,9.7,108.9l-4.8,25.9c-2.7,14.4-16.5,24-31,21.3c-0.5-0.1-0.9-0.2-1.4-0.3l0,0
		c-13.4-3.2-22.1-16.2-20-29.8C124.7,279.5,139.6,203.9,166.1,193.1z"/>
	<path class="st1" d="M240.6,308.8c0,0-6.5-11.6,7.8-20.2l21.8-13.8c1.8-1.1,4.1-0.5,5.2,1.3c0.1,0.1,0.2,0.3,0.2,0.4l0,0
		c0.6,1.4,0.3,3.1-0.7,4.2l-9,9.8l33-6.5c2.2-0.5,4.4,0.8,5,3c0.1,0.2,0.1,0.4,0.1,0.7l0,0c0.2,2-1.1,3.8-3,4.3l-21.9,5.8l-0.1,1.1
		l23.5-2.8c2.2-0.1,4,1.7,4.1,3.9c0,0.3,0,0.5-0.1,0.8l0,0c-0.3,1.9-1.9,3.3-3.8,3.3l-23.3,4l-0.3,1.4l21.1-0.1
		c1.8,0.2,3.1,1.8,2.9,3.6v0.1l0,0c-0.2,1.7-1.8,2.9-3.5,2.8l-22.4,1.5l-0.3,1.3l19.9,0.7c1.5,0.4,2.4,2,2,3.5
		c-0.1,0.2-0.1,0.4-0.2,0.6l0,0c-0.6,1.2-1.9,1.8-3.2,1.5l-23.1,0.1c0,0-23,4.6-28.2-5.7L240.6,308.8z"/>
	<polygon class="st1" points="208,300.5 247.2,299 252.4,322.2 210.5,328.5 	"/>
	<polygon class="st3" points="224.4,296 241.4,295 245.9,324.8 227.2,327.3 	"/>
	<path class="st7" d="M140.8,295.1l79.6-3.9c5.9-0.3,10.9,4.2,11.2,10.1l1.4,23.1c0.3,5.4-3.5,10.2-8.8,11.2l-75.5,13.7
		c-12.5,2.4-24.6-5.2-27.9-17.5l0,0C117.1,317.7,126.4,297.1,140.8,295.1z"/>
	<line class="st11" x1="179" y1="293.2" x2="151.7" y2="294.5"/>
	<path class="st12" d="M290.3,83.5c0,0,1.6,6.1-3.5,14.7l-4.5-16.1L290.3,83.5z"/>
	
		<ellipse transform="matrix(0.4111 -0.9116 0.9116 0.4111 60.8196 327.4698)" class="st13" cx="283.9" cy="116.7" rx="10.1" ry="10.1"/>
	<polygon class="st1" points="265.5,141.2 261.5,182 226,169.5 235.7,113.7 	"/>
	<path class="st13" d="M263.8,159c0,0-17.4-0.7-18.3-24.3l19.7,10.4L263.8,159z"/>
	<path class="st1" d="M287.6,84.8c0,0,5.4,34.3,0,47.4s-16.8,20.8-34.1,16.2c0,0-20.2-2.5-23.2-33C226,69.5,268.2,59.1,287.6,84.8z"
		/>
	<path class="st12" d="M283,110.5c0.2,1.3,1.4,2.1,2.7,1.9s2.1-1.4,1.9-2.7c-0.2-1.3-1.4-2.1-2.7-1.9l0,0
		C283.6,108.1,282.8,109.3,283,110.5z"/>
	<path class="st12" d="M263.4,109.5c0.2,1.3,1.4,2.1,2.7,1.9c1.3-0.2,2.1-1.4,1.9-2.7c-0.2-1.3-1.4-2.1-2.7-1.9l0,0
		C264,107.1,263.2,108.3,263.4,109.5z"/>
	<polyline class="st2" points="278.7,112.1 280.7,120.1 276.9,120.8 	"/>
	<path class="st12" d="M270.5,95.2L270.5,95.2c0.3,1.7-0.8,3.4-2.5,3.7c-0.1,0-0.2,0-0.3,0c-3.7,0.3-7.3,1.1-10.7,2.4
		c-1.4,0.6-3,0-3.6-1.3l0,0c-0.6-1.3-0.1-2.8,1.1-3.6c3.7-2.9,8.3-4.3,13-3.9C268.9,92.6,270.2,93.7,270.5,95.2z"/>
	<path class="st12" d="M279.8,95.9L279.8,95.9c-0.3,1.8,0.6,3.6,1.8,3.9c2.5,0.5,4.9,1.4,7,2.9c0.9,0.6,2,0.1,2.4-1.2l0,0
		c0.4-1.2,0.1-2.6-0.7-3.6c-1.6-1.8-4-4.5-8.5-4.4C280.8,93.5,280,94.5,279.8,95.9z"/>
	<path id="_Trazado_de_recorte_2" class="st14" d="M281.8,126.2l-17.3-1.7c0,0-0.9,8.1,8.2,8.8C281.8,134,281.8,126.2,281.8,126.2z"
		/>
	<g>
		<g>
			<g>
				<g>
					<defs>
						<path id="SVGID_1_" d="M281.8,126.2l-17.3-1.7c0,0-0.9,8.1,8.2,8.8C281.8,134,281.8,126.2,281.8,126.2z"/>
					</defs>
					<clipPath id="SVGID_2_">
						<use xlink:href="#SVGID_1_"  style="overflow:visible;"/>
					</clipPath>
					<g class="st15">
						<polygon class="st3" points="282.6,129 262.2,127 263,121.9 286.5,122.2 						"/>
						<ellipse class="st16" cx="268.3" cy="134.6" rx="5.8" ry="5.8"/>
					</g>
				</g>
			</g>
		</g>
	</g>
	<path class="st12" d="M237.5,115.7c0,0,9.9-0.6,7.4-26c7.3-4.2,15.9-5.5,24.1-3.7c13.7,3.2,32.4,1.5,32.9-13.3
		c0.6-19.2-30.1-25.1-51.8-11.9c-19.6,11.9-45.3,17.8-25.4,55.3L237.5,115.7z"/>
	<polygon class="st12" points="226.7,118.7 231,137.2 236.7,122.3 	"/>
	<circle class="st1" cx="229.4" cy="114.4" r="12.3"/>
	<path class="st2" d="M224.1,110.4c0,0,9.2-1.9,10.8,8.1"/>
	<path class="st17" d="M291.3,196.8c0,0,22,18.5-8.1,115.1l-30.2,3.7L291.3,196.8z"/>
	<path class="st1" d="M355.2,272c0,0-9.7-9,1.3-21.6l16.6-19.7c1.4-1.6,3.8-1.7,5.4-0.4c0.1,0.1,0.2,0.2,0.3,0.3l0,0
		c1,1.2,1.3,2.8,0.6,4.2l-5.7,12.1l29.4-16.2c1.9-1.2,4.5-0.6,5.7,1.4c0.1,0.2,0.2,0.4,0.3,0.6l0,0c0.7,1.8,0.1,3.9-1.6,5
		l-19.1,12.2l0.2,1.1l21.6-9.8c2.1-0.7,4.3,0.4,5.1,2.4c0.1,0.2,0.1,0.5,0.2,0.8l0,0c0.3,1.9-0.8,3.7-2.6,4.3l-21,10.8l0.2,1.4
		l20.1-6.5c1.8-0.4,6.9,0.8,7.2,2.6l0,0c0.3,1.7-4.1,3.3-5.8,3.7l-20.9,8.2l0.1,1.3l19.2-5.4c1.6-0.1,2.9,1.2,3,2.7
		c0,0.2,0,0.4,0,0.6l0,0c-0.2,1.3-1.3,2.3-2.6,2.4l-22,7c0,0-20.5,11.4-28.6,3.1L355.2,272z"/>
	<path class="st2" d="M373.6,246.9c0,0,5.1,11.5-3.3,20.5"/>
	<polygon class="st1" points="325.4,271.1 358.4,260.6 370.4,281.2 333,297.1 	"/>
	<polygon class="st3" points="337.5,264.7 351.3,260.6 363.3,284 346.2,291.4 	"/>
	<path class="st17" d="M261.1,284.7l68.6-24.3c6.3-2.1,13.3,0.9,15.9,7.1l7.8,18.1c2.7,6.3,0,13.7-6.2,16.7l-64.7,32.8
		c-11.4,5.5-25.2,1.2-31.5-9.8l0,0C243.9,312.7,247.7,290.3,261.1,284.7z"/>
	<path class="st1" d="M226.7,195c0,0,22.5,25,43.8,4.7l-10.4-29l-35.6-1.2L226.7,195z"/>
	<path class="st17" d="M268,207.9c0,0-9.1,111.2-4.3,175.4c0.1,1.7,1.6,2.9,3.3,2.8c0.8-0.1,1.6-0.5,2.1-1.1l0,0
		c3.5-5.8,5.6-12.4,5.9-19.2l5.5-99.8l15.3-52.7c1.7-5.9-0.1-12.2-4.6-16.3c-6.9-6.2-14.8-11.2-23.4-14.8L268,207.9z"/>
	<path class="st3" d="M228,158.1c0,0-2.4,8.6,0.1,21.4c3,7.5,7,13.2,7.8,22.3c0.4,4.9-2.8,16.7-2.8,16.7L206,175.6
		C206,175.6,216.9,156.9,228,158.1z"/>
	<path class="st17" d="M233.1,218.4c0,0,7,87-28.9,163.8c-1.9,4-6.3,6.1-10.6,5c-9.5-2.5-27.4-9.8-44-37.9l8.4-142.7
		c0.3-5.6,3.4-10.7,8.2-13.6c12.4-7.6,25.8-13.5,39.7-17.5C206,175.6,227.8,188.1,233.1,218.4z"/>
	<path class="st17" d="M166.1,193.1c0,0,38.1,35.7,9.7,108.9l-4.8,25.9c-2.7,14.4-16.5,24-31,21.3c-0.5-0.1-0.9-0.2-1.4-0.3l0,0
		c-13.4-3.2-22.1-16.2-20-29.8C124.7,279.5,139.6,203.9,166.1,193.1z"/>
	<path class="st1" d="M240.6,308.8c0,0-6.5-11.6,7.8-20.2l21.8-13.8c1.8-1.1,4.1-0.5,5.2,1.3c0.1,0.1,0.2,0.3,0.2,0.4l0,0
		c0.6,1.4,0.3,3.1-0.7,4.2l-9,9.8l33-6.5c2.2-0.5,4.4,0.8,5,3c0.1,0.2,0.1,0.4,0.1,0.7l0,0c0.2,2-1.1,3.8-3,4.3l-21.9,5.8l-0.1,1.1
		l23.5-2.8c2.2-0.1,4,1.7,4.1,3.9c0,0.3,0,0.5-0.1,0.8l0,0c-0.3,1.9-1.9,3.3-3.8,3.3l-23.3,4l-0.3,1.4l21.1-0.1
		c1.8,0.2,3.1,1.8,2.9,3.6v0.1l0,0c-0.2,1.7-1.8,2.9-3.5,2.8l-22.4,1.5l-0.3,1.3l19.9,0.7c1.5,0.4,2.4,2,2,3.5
		c-0.1,0.2-0.1,0.4-0.2,0.6l0,0c-0.6,1.2-1.9,1.8-3.2,1.5l-23.1,0.1c0,0-23,4.6-28.2-5.7L240.6,308.8z"/>
	<polygon class="st1" points="208,300.5 247.2,299 252.4,322.2 210.5,328.5 	"/>
	<polygon class="st3" points="224.4,296 241.4,295 245.9,324.8 227.2,327.3 	"/>
	<path class="st17" d="M140.8,295.1l79.6-3.9c5.9-0.3,10.9,4.2,11.2,10.1l1.4,23.1c0.3,5.4-3.5,10.2-8.8,11.2l-75.5,13.7
		c-12.5,2.4-24.6-5.2-27.9-17.5l0,0C117.1,317.7,126.4,297.1,140.8,295.1z"/>
	<line class="st5" x1="179" y1="293.2" x2="151.7" y2="294.5"/>
	<line class="st18" x1="185.6" y1="239" x2="172.3" y2="295.7"/>
	<line class="st18" x1="151" y1="294.8" x2="229.7" y2="295.7"/>
	<path class="st3" d="M261.5,182c4.1,10.7,6.1,22.1,5.7,33.5c0,0,21.1-23.5-3.9-51.4L261.5,182z"/>
</g>
</svg>
