<svg xmlns="http://www.w3.org/2000/svg" xmlns:xlink="http://www.w3.org/1999/xlink" viewBox="0 0 234.755 154.442"><defs><style>.cls-1{fill:url(#Degradado_sin_nombre_17);}.cls-2{fill:url(#Degradado_sin_nombre_17-2);}.cls-3{fill:url(#Degradado_sin_nombre_17-3);}.cls-4{fill:url(#Degradado_sin_nombre_17-4);}.cls-5{fill:url(#Degradado_sin_nombre_17-5);}.cls-6{fill:url(#Degradado_sin_nombre_17-6);}.cls-7{fill:url(#Degradado_sin_nombre_17-7);}.cls-8{fill:url(#Degradado_sin_nombre_17-8);}.cls-9{fill:url(#Degradado_sin_nombre_17-9);}.cls-10{fill:url(#Degradado_sin_nombre_17-10);}.cls-11{fill:url(#Degradado_sin_nombre_17-11);}.cls-12{fill:url(#Degradado_sin_nombre_17-12);}.cls-13{fill:url(#Degradado_sin_nombre_17-13);}.cls-14{fill:url(#Degradado_sin_nombre_17-14);}.cls-15{fill:url(#Degradado_sin_nombre_17-15);}.cls-16{fill:url(#Degradado_sin_nombre_17-16);}.cls-17{fill:url(#Degradado_sin_nombre_17-17);}.cls-18{fill:url(#Degradado_sin_nombre_17-18);}.cls-19{fill:url(#Degradado_sin_nombre_17-19);}.cls-20{fill:url(#Degradado_sin_nombre_17-20);}.cls-21{fill:url(#Degradado_sin_nombre_17-21);}.cls-22{fill:url(#Degradado_sin_nombre_17-22);}.cls-23{fill:url(#Degradado_sin_nombre_17-23);}.cls-24{fill:url(#Degradado_sin_nombre_17-24);}.cls-25{fill:url(#Degradado_sin_nombre_17-25);}.cls-26{fill:url(#Degradado_sin_nombre_17-26);}.cls-27{fill:url(#Degradado_sin_nombre_17-27);}.cls-28{fill:url(#Degradado_sin_nombre_17-28);}.cls-29{fill:url(#Degradado_sin_nombre_17-29);}.cls-30{fill:url(#Degradado_sin_nombre_17-30);}.cls-31{fill:url(#Degradado_sin_nombre_17-31);}.cls-32{fill:url(#Degradado_sin_nombre_17-32);}.cls-33{fill:url(#Degradado_sin_nombre_17-33);}.cls-34{fill:url(#Degradado_sin_nombre_17-34);}.cls-35{fill:url(#Degradado_sin_nombre_17-35);}.cls-36{fill:url(#Degradado_sin_nombre_17-36);}.cls-37{fill:url(#Degradado_sin_nombre_17-37);}.cls-38{fill:url(#Degradado_sin_nombre_17-38);}.cls-39{fill:url(#Degradado_sin_nombre_17-39);}.cls-40{fill:url(#Degradado_sin_nombre_17-40);}.cls-41{fill:url(#Degradado_sin_nombre_17-41);}.cls-42{fill:url(#Degradado_sin_nombre_17-42);}.cls-43{fill:url(#Degradado_sin_nombre_17-43);}.cls-44{fill:url(#Degradado_sin_nombre_17-44);}.cls-45{fill:url(#Degradado_sin_nombre_17-45);}.cls-46{fill:url(#Degradado_sin_nombre_17-46);}.cls-47{fill:url(#Degradado_sin_nombre_17-47);}.cls-48{fill:url(#Degradado_sin_nombre_17-48);}.cls-49{fill:url(#Degradado_sin_nombre_17-49);}.cls-50{fill:url(#Degradado_sin_nombre_17-50);}.cls-51{fill:url(#Degradado_sin_nombre_17-51);}.cls-52{fill:url(#Degradado_sin_nombre_17-52);}.cls-53{fill:url(#Degradado_sin_nombre_17-53);}.cls-54{fill:url(#Degradado_sin_nombre_17-54);}.cls-55{fill:url(#Degradado_sin_nombre_17-55);}.cls-56{fill:url(#Degradado_sin_nombre_17-56);}.cls-57{fill:url(#Degradado_sin_nombre_17-57);}.cls-58{fill:url(#Degradado_sin_nombre_17-58);}.cls-59{fill:url(#Degradado_sin_nombre_17-59);}.cls-60{fill:url(#Degradado_sin_nombre_17-60);}.cls-61{fill:url(#Degradado_sin_nombre_17-61);}.cls-62{fill:url(#Degradado_sin_nombre_17-62);}.cls-63{fill:url(#Degradado_sin_nombre_17-63);}.cls-64{fill:url(#Degradado_sin_nombre_17-64);}.cls-65{fill:url(#Degradado_sin_nombre_17-65);}.cls-66{fill:url(#Degradado_sin_nombre_17-66);}.cls-67{fill:url(#Degradado_sin_nombre_17-67);}</style><linearGradient id="Degradado_sin_nombre_17" x1="25.682" y1="33.417" x2="33.581" y2="19.736" gradientUnits="userSpaceOnUse"><stop offset="0.068" stop-color="#21a0ce"/><stop offset="0.678" stop-color="#217cce"/></linearGradient><linearGradient id="Degradado_sin_nombre_17-2" x1="43.195" y1="67.189" x2="51.094" y2="53.508" xlink:href="#Degradado_sin_nombre_17"/><linearGradient id="Degradado_sin_nombre_17-3" x1="22.785" y1="66.804" x2="26.867" y2="59.733" xlink:href="#Degradado_sin_nombre_17"/><linearGradient id="Degradado_sin_nombre_17-4" x1="17.543" y1="95.011" x2="23.178" y2="85.251" xlink:href="#Degradado_sin_nombre_17"/><linearGradient id="Degradado_sin_nombre_17-5" x1="7.47" y1="48.519" x2="13.104" y2="38.759" xlink:href="#Degradado_sin_nombre_17"/><linearGradient id="Degradado_sin_nombre_17-6" x1="35.448" y1="110.334" x2="41.083" y2="100.574" xlink:href="#Degradado_sin_nombre_17"/><linearGradient id="Degradado_sin_nombre_17-7" x1="50.209" y1="41.491" x2="54.649" y2="33.8" xlink:href="#Degradado_sin_nombre_17"/><linearGradient id="Degradado_sin_nombre_17-8" x1="40.485" y1="87.879" x2="44.925" y2="80.188" xlink:href="#Degradado_sin_nombre_17"/><linearGradient id="Degradado_sin_nombre_17-9" x1="79.041" y1="71.669" x2="86.94" y2="57.987" xlink:href="#Degradado_sin_nombre_17"/><linearGradient id="Degradado_sin_nombre_17-10" x1="94.608" y1="98.811" x2="102.507" y2="85.13" xlink:href="#Degradado_sin_nombre_17"/><linearGradient id="Degradado_sin_nombre_17-11" x1="74.197" y1="98.426" x2="78.28" y2="91.355" xlink:href="#Degradado_sin_nombre_17"/><linearGradient id="Degradado_sin_nombre_17-12" x1="63.143" y1="128.643" x2="68.778" y2="118.884" xlink:href="#Degradado_sin_nombre_17"/><linearGradient id="Degradado_sin_nombre_17-13" x1="57.509" y1="101.697" x2="63.144" y2="91.937" xlink:href="#Degradado_sin_nombre_17"/><linearGradient id="Degradado_sin_nombre_17-14" x1="66.747" y1="54.153" x2="72.381" y2="44.393" xlink:href="#Degradado_sin_nombre_17"/><linearGradient id="Degradado_sin_nombre_17-15" x1="86.86" y1="141.956" x2="92.495" y2="132.196" xlink:href="#Degradado_sin_nombre_17"/><linearGradient id="Degradado_sin_nombre_17-16" x1="101.621" y1="73.113" x2="106.062" y2="65.422" xlink:href="#Degradado_sin_nombre_17"/><linearGradient id="Degradado_sin_nombre_17-17" x1="91.897" y1="119.501" x2="96.338" y2="111.81" xlink:href="#Degradado_sin_nombre_17"/><linearGradient id="Degradado_sin_nombre_17-18" x1="120.091" y1="103.462" x2="127.99" y2="89.78" xlink:href="#Degradado_sin_nombre_17"/><linearGradient id="Degradado_sin_nombre_17-19" x1="135.657" y1="130.604" x2="143.556" y2="116.923" xlink:href="#Degradado_sin_nombre_17"/><linearGradient id="Degradado_sin_nombre_17-20" x1="115.247" y1="130.219" x2="119.33" y2="123.148" xlink:href="#Degradado_sin_nombre_17"/><linearGradient id="Degradado_sin_nombre_17-21" x1="112.386" y1="149.85" x2="118.021" y2="140.09" xlink:href="#Degradado_sin_nombre_17"/><linearGradient id="Degradado_sin_nombre_17-22" x1="142.671" y1="104.906" x2="147.112" y2="97.215" xlink:href="#Degradado_sin_nombre_17"/><linearGradient id="Degradado_sin_nombre_17-23" x1="132.947" y1="151.294" x2="137.387" y2="143.603" xlink:href="#Degradado_sin_nombre_17"/><linearGradient id="Degradado_sin_nombre_17-24" x1="173.145" y1="70.913" x2="181.044" y2="57.232" xlink:href="#Degradado_sin_nombre_17"/><linearGradient id="Degradado_sin_nombre_17-25" x1="184.399" y1="94.052" x2="192.298" y2="80.371" xlink:href="#Degradado_sin_nombre_17"/><linearGradient id="Degradado_sin_nombre_17-26" x1="163.989" y1="93.667" x2="168.071" y2="86.596" xlink:href="#Degradado_sin_nombre_17"/><linearGradient id="Degradado_sin_nombre_17-27" x1="160.661" y1="117.202" x2="166.296" y2="107.442" xlink:href="#Degradado_sin_nombre_17"/><linearGradient id="Degradado_sin_nombre_17-28" x1="176.652" y1="137.197" x2="182.287" y2="127.437" xlink:href="#Degradado_sin_nombre_17"/><linearGradient id="Degradado_sin_nombre_17-29" x1="201.775" y1="68.183" x2="206.216" y2="60.492" xlink:href="#Degradado_sin_nombre_17"/><linearGradient id="Degradado_sin_nombre_17-30" x1="181.689" y1="114.742" x2="186.129" y2="107.051" xlink:href="#Degradado_sin_nombre_17"/><linearGradient id="Degradado_sin_nombre_17-31" x1="144.925" y1="25.519" x2="152.824" y2="11.838" xlink:href="#Degradado_sin_nombre_17"/><linearGradient id="Degradado_sin_nombre_17-32" x1="166.162" y1="44.534" x2="174.061" y2="30.853" xlink:href="#Degradado_sin_nombre_17"/><linearGradient id="Degradado_sin_nombre_17-33" x1="132.754" y1="36.251" x2="136.837" y2="29.18" xlink:href="#Degradado_sin_nombre_17"/><linearGradient id="Degradado_sin_nombre_17-34" x1="129.427" y1="59.787" x2="135.062" y2="50.027" xlink:href="#Degradado_sin_nombre_17"/><linearGradient id="Degradado_sin_nombre_17-35" x1="145.417" y1="79.781" x2="151.052" y2="70.022" xlink:href="#Degradado_sin_nombre_17"/><linearGradient id="Degradado_sin_nombre_17-36" x1="160.178" y1="10.939" x2="164.619" y2="3.248" xlink:href="#Degradado_sin_nombre_17"/><linearGradient id="Degradado_sin_nombre_17-37" x1="150.454" y1="57.326" x2="154.895" y2="49.635" xlink:href="#Degradado_sin_nombre_17"/><linearGradient id="Degradado_sin_nombre_17-38" x1="113.428" y1="20.802" x2="121.327" y2="7.12" xlink:href="#Degradado_sin_nombre_17"/><linearGradient id="Degradado_sin_nombre_17-39" x1="81.342" y1="9.156" x2="85.424" y2="2.086" xlink:href="#Degradado_sin_nombre_17"/><linearGradient id="Degradado_sin_nombre_17-40" x1="78.014" y1="32.692" x2="83.649" y2="22.932" xlink:href="#Degradado_sin_nombre_17"/><linearGradient id="Degradado_sin_nombre_17-41" x1="98.087" y1="52.687" x2="103.721" y2="42.927" xlink:href="#Degradado_sin_nombre_17"/><linearGradient id="Degradado_sin_nombre_17-42" x1="99.042" y1="30.231" x2="103.482" y2="22.54" xlink:href="#Degradado_sin_nombre_17"/><linearGradient id="Degradado_sin_nombre_17-43" x1="116.406" y1="45.874" x2="120.846" y2="38.183" xlink:href="#Degradado_sin_nombre_17"/><linearGradient id="Degradado_sin_nombre_17-44" x1="124.39" y1="78.344" x2="128.83" y2="70.653" xlink:href="#Degradado_sin_nombre_17"/><linearGradient id="Degradado_sin_nombre_17-45" x1="33.579" y1="137.174" x2="41.478" y2="123.492" xlink:href="#Degradado_sin_nombre_17"/><linearGradient id="Degradado_sin_nombre_17-46" x1="56.159" y1="150.506" x2="60.6" y2="142.815" xlink:href="#Degradado_sin_nombre_17"/><linearGradient id="Degradado_sin_nombre_17-47" x1="10.777" y1="146.177" x2="18.676" y2="132.496" xlink:href="#Degradado_sin_nombre_17"/><linearGradient id="Degradado_sin_nombre_17-48" x1="5.575" y1="116.362" x2="10.015" y2="108.671" xlink:href="#Degradado_sin_nombre_17"/><linearGradient id="Degradado_sin_nombre_17-49" x1="8.067" y1="10.09" x2="12.507" y2="2.399" xlink:href="#Degradado_sin_nombre_17"/><linearGradient id="Degradado_sin_nombre_17-50" x1="5.575" y1="72.092" x2="10.015" y2="64.401" xlink:href="#Degradado_sin_nombre_17"/><linearGradient id="Degradado_sin_nombre_17-51" x1="45.707" y1="13.207" x2="51.342" y2="3.447" xlink:href="#Degradado_sin_nombre_17"/><linearGradient id="Degradado_sin_nombre_17-52" x1="61.113" y1="20.662" x2="66.747" y2="10.902" xlink:href="#Degradado_sin_nombre_17"/><linearGradient id="Degradado_sin_nombre_17-53" x1="182.714" y1="22.012" x2="188.349" y2="12.252" xlink:href="#Degradado_sin_nombre_17"/><linearGradient id="Degradado_sin_nombre_17-54" x1="188.704" y1="47.805" x2="194.339" y2="38.045" xlink:href="#Degradado_sin_nombre_17"/><linearGradient id="Degradado_sin_nombre_17-55" x1="206.826" y1="39.354" x2="212.461" y2="29.594" xlink:href="#Degradado_sin_nombre_17"/><linearGradient id="Degradado_sin_nombre_17-56" x1="203.741" y1="19.552" x2="208.182" y2="11.861" xlink:href="#Degradado_sin_nombre_17"/><linearGradient id="Degradado_sin_nombre_17-57" x1="211.281" y1="92.89" x2="219.18" y2="79.209" xlink:href="#Degradado_sin_nombre_17"/><linearGradient id="Degradado_sin_nombre_17-58" x1="217.663" y1="119.357" x2="225.562" y2="105.676" xlink:href="#Degradado_sin_nombre_17"/><linearGradient id="Degradado_sin_nombre_17-59" x1="204.519" y1="125.975" x2="208.602" y2="118.904" xlink:href="#Degradado_sin_nombre_17"/><linearGradient id="Degradado_sin_nombre_17-60" x1="201.968" y1="111.612" x2="206.05" y2="104.542" xlink:href="#Degradado_sin_nombre_17"/><linearGradient id="Degradado_sin_nombre_17-61" x1="201.192" y1="149.511" x2="206.827" y2="139.751" xlink:href="#Degradado_sin_nombre_17"/><linearGradient id="Degradado_sin_nombre_17-62" x1="223.474" y1="20.609" x2="227.914" y2="12.918" xlink:href="#Degradado_sin_nombre_17"/><linearGradient id="Degradado_sin_nombre_17-63" x1="222.219" y1="147.05" x2="226.66" y2="139.359" xlink:href="#Degradado_sin_nombre_17"/><linearGradient id="Degradado_sin_nombre_17-64" x1="155.856" y1="151.811" x2="163.755" y2="138.129" xlink:href="#Degradado_sin_nombre_17"/><linearGradient id="Degradado_sin_nombre_17-65" x1="183.778" y1="151.294" x2="188.219" y2="143.603" xlink:href="#Degradado_sin_nombre_17"/><linearGradient id="Degradado_sin_nombre_17-66" x1="223.653" y1="47.629" x2="227.735" y2="40.558" xlink:href="#Degradado_sin_nombre_17"/><linearGradient id="Degradado_sin_nombre_17-67" x1="220.325" y1="71.164" x2="225.96" y2="61.404" xlink:href="#Degradado_sin_nombre_17"/></defs><title>ilustraciones</title><g id="Capa_4" data-name="Capa 4"><circle class="cls-1" cx="29.631" cy="26.576" r="7.898"/><circle class="cls-2" cx="47.145" cy="60.349" r="7.898"/><circle class="cls-3" cx="24.826" cy="63.268" r="4.082"/><circle class="cls-4" cx="20.36" cy="90.131" r="5.634"/><circle class="cls-5" cx="10.287" cy="43.639" r="5.634"/><circle class="cls-6" cx="38.265" cy="105.454" r="5.634"/><circle class="cls-7" cx="52.429" cy="37.646" r="4.44"/><circle class="cls-8" cx="42.705" cy="84.033" r="4.44"/><circle class="cls-9" cx="82.991" cy="64.828" r="7.898"/><circle class="cls-10" cx="98.557" cy="91.971" r="7.898"/><circle class="cls-11" cx="76.239" cy="94.89" r="4.082"/><circle class="cls-12" cx="65.961" cy="123.763" r="5.634"/><circle class="cls-13" cx="60.327" cy="96.817" r="5.634"/><circle class="cls-14" cx="69.564" cy="49.273" r="5.634"/><circle class="cls-15" cx="89.678" cy="137.076" r="5.634"/><circle class="cls-16" cx="103.842" cy="69.268" r="4.44"/><circle class="cls-17" cx="94.117" cy="115.655" r="4.44"/><circle class="cls-18" cx="124.041" cy="96.621" r="7.898"/><circle class="cls-19" cx="139.607" cy="123.763" r="7.898"/><circle class="cls-20" cx="117.288" cy="126.683" r="4.082"/><circle class="cls-21" cx="115.204" cy="144.97" r="5.634"/><circle class="cls-22" cx="144.891" cy="101.061" r="4.44"/><circle class="cls-23" cx="135.167" cy="147.448" r="4.44"/><circle class="cls-24" cx="177.094" cy="64.072" r="7.898"/><circle class="cls-25" cx="188.348" cy="87.212" r="7.898"/><circle class="cls-26" cx="166.03" cy="90.131" r="4.082"/><circle class="cls-27" cx="163.478" cy="112.322" r="5.634"/><circle class="cls-28" cx="179.469" cy="132.317" r="5.634"/><circle class="cls-29" cx="203.996" cy="64.338" r="4.44"/><circle class="cls-30" cx="183.909" cy="110.896" r="4.44"/><circle class="cls-31" cx="148.874" cy="18.679" r="7.898"/><circle class="cls-32" cx="170.112" cy="37.694" r="7.898"/><circle class="cls-33" cx="134.796" cy="32.716" r="4.082"/><circle class="cls-34" cx="132.244" cy="54.907" r="5.634"/><circle class="cls-35" cx="148.235" cy="74.902" r="5.634"/><circle class="cls-36" cx="162.399" cy="7.093" r="4.44"/><circle class="cls-37" cx="152.674" cy="53.481" r="4.44"/><circle class="cls-38" cx="117.378" cy="13.961" r="7.898"/><circle class="cls-39" cx="83.383" cy="5.621" r="4.082"/><circle class="cls-40" cx="80.832" cy="27.812" r="5.634"/><circle class="cls-41" cx="100.904" cy="47.807" r="5.634"/><circle class="cls-42" cx="101.262" cy="26.386" r="4.44"/><circle class="cls-43" cx="118.626" cy="42.029" r="4.44"/><circle class="cls-44" cx="126.61" cy="74.499" r="4.44"/><circle class="cls-45" cx="37.529" cy="130.333" r="7.898"/><circle class="cls-46" cx="58.379" cy="146.661" r="4.44"/><circle class="cls-47" cx="14.727" cy="139.336" r="7.898"/><circle class="cls-48" cx="7.795" cy="112.517" r="4.44"/><circle class="cls-49" cx="10.287" cy="6.245" r="4.44"/><circle class="cls-50" cx="7.795" cy="68.246" r="4.44"/><circle class="cls-51" cx="48.525" cy="8.327" r="5.634"/><circle class="cls-52" cx="63.93" cy="15.782" r="5.634"/><circle class="cls-53" cx="185.531" cy="17.132" r="5.634"/><circle class="cls-54" cx="191.521" cy="42.925" r="5.634"/><circle class="cls-55" cx="209.643" cy="34.474" r="5.634"/><circle class="cls-56" cx="205.962" cy="15.706" r="4.44"/><circle class="cls-57" cx="215.23" cy="86.05" r="7.898"/><circle class="cls-58" cx="221.613" cy="112.517" r="7.898"/><circle class="cls-59" cx="206.561" cy="122.44" r="4.082"/><circle class="cls-60" cx="204.009" cy="108.077" r="4.082"/><circle class="cls-61" cx="204.009" cy="144.631" r="5.634"/><circle class="cls-62" cx="225.694" cy="16.764" r="4.44"/><circle class="cls-63" cx="224.44" cy="143.205" r="4.44"/><circle class="cls-64" cx="159.805" cy="144.97" r="7.898"/><circle class="cls-65" cx="185.999" cy="147.448" r="4.44"/><circle class="cls-66" cx="225.694" cy="44.093" r="4.082"/><circle class="cls-67" cx="223.143" cy="66.284" r="5.634"/></g></svg>