<svg id="_1" data-name="1" xmlns="http://www.w3.org/2000/svg" xmlns:xlink="http://www.w3.org/1999/xlink" viewBox="0 0 278.229 319.93"><defs><style>.cls-1{fill:#221914;}.cls-2{fill:#8c4d41;}.cls-3{fill:#9b5e4e;}.cls-4{fill:#2f1a2a;}.cls-5{fill:#d6b494;}.cls-10,.cls-6,.cls-8{fill:none;}.cls-6{stroke:#2f1a2a;stroke-width:1.012px;}.cls-10,.cls-6{stroke-linecap:round;stroke-linejoin:round;}.cls-7{fill:#d9898f;}.cls-8{stroke:#d6b494;stroke-miterlimit:10;}.cls-13,.cls-9{fill:#fff;}.cls-9{opacity:0.11;}.cls-10{stroke:#fff;stroke-width:1.261px;}.cls-11{clip-path:url(#clip-path);}.cls-12{fill:#e275c2;}</style><clipPath id="clip-path"><path id="_Trazado_de_recorte_" data-name="&lt;Trazado de recorte&gt;" class="cls-1" d="M105.593,81l14.5.53s-.319,6.052-7.44,6.052A6.583,6.583,0,0,1,105.593,81Z"/></clipPath></defs><title>ilustraciones</title><ellipse class="cls-2" cx="99.267" cy="71.753" rx="9.747" ry="9.401"/><polygon class="cls-3" points="118.746 94.504 119.636 131.47 154.539 129.049 147.429 68.974 118.746 94.504"/><path class="cls-4" d="M119.108,109.992s18.973-1.525,19.881-23.409l-20.242,8.972Z"/><path class="cls-3" d="M111.332,31.359A24.58,24.58,0,0,0,95.719,51.726c-1.12,10.4-2.113,26.515,1.241,34.409,5.185,12.2,16.188,19.355,32.823,15,0,0,19.477-2.3,22.284-30.622C155.388,36.994,130.991,23.865,111.332,31.359Z"/><path class="cls-5" d="M143.04,70.483s-7.888-14.315-5.035-29.888c0,0-24.068,3.9-37.987-.37,0,0,3.263-19.15,35.636-16.684,44.332,3.377,31.392,48.946,10.254,56.75Z"/><path class="cls-3" d="M164.749,75.14a11.842,11.842,0,0,1-14.14,8.619,11.407,11.407,0,0,1-8.936-13.638,11.842,11.842,0,0,1,14.14-8.62A11.408,11.408,0,0,1,164.749,75.14Z"/><path class="cls-6" d="M158.282,68.934s-8.829-1.791-10.439,7.551"/><polygon class="cls-3" points="71.43 189.171 71.448 243.972 44.816 289.009 71.002 286.02 102.739 256.43 99.307 191.915 71.43 189.171"/><path class="cls-7" d="M89.539,135.378S68.875,147.02,65.57,175.794l.014,40.915,33.731-1.123Z"/><path class="cls-7" d="M114.968,126.033s-16.929,3.121-25.429,9.345L87.075,282.323c54.386,31.615,116.543.887,116.543.887l-16.913-147.1s-2.2-8.292-25.834-10.059Z"/><path class="cls-3" d="M160.871,126.048s-19.5-4.148-45.9-.015c0,0-2.5,15.14,18.7,15.771C156.634,142.488,160.871,126.048,160.871,126.048Z"/><line class="cls-8" x1="88.209" y1="216.702" x2="87.992" y2="165.16"/><path class="cls-3" d="M134.657,212.677s-3.773-10.491-17.217-13.182l-9.46-8.955a4.239,4.239,0,0,0-5.405-.314h0a3.886,3.886,0,0,0-.831,5.48l4.659,6.238-2.555-1.061a19.358,19.358,0,0,1-9.5-8.386l-5.971-10.666a3.942,3.942,0,0,0-3.42-1.984h0a3.8,3.8,0,0,0-3.684,5.142l5.982,14.938a21.973,21.973,0,0,0,13.153,12.465l30.209,12.951Z"/><path class="cls-3" d="M134.657,212.677l84.007,30.974c7.266,3.028,10.787,14.952,7.543,21.917h0a14.438,14.438,0,0,1-20.879,5.736l-74.714-45.961Z"/><polygon class="cls-3" points="227.313 257.509 218.506 192.031 177.766 189.138 192.061 247.481 227.313 257.509"/><path class="cls-7" d="M176.467,128.865s50.911,8.074,56.946,87.792l-62.606.02-4.135-51.586Z"/><polyline class="cls-7" points="184.513 216.672 172.721 216.676 165.384 175.517"/><path class="cls-9" d="M112.936,61.364c.091,4.46,4.886,7.985,10.711,7.875s10.472-3.816,10.381-8.276-4.887-7.985-10.711-7.874S112.845,56.9,112.936,61.364Z"/><ellipse class="cls-9" cx="98.396" cy="61.581" rx="9.039" ry="7.756" transform="translate(-0.913 1.484) rotate(-0.86)"/><path class="cls-10" d="M112.936,61.364c.091,4.46,4.886,7.985,10.711,7.875s10.472-3.816,10.381-8.276-4.887-7.985-10.711-7.874S112.845,56.9,112.936,61.364Z"/><ellipse class="cls-10" cx="98.396" cy="61.581" rx="9.039" ry="7.756" transform="translate(-0.913 1.484) rotate(-0.86)"/><path class="cls-10" d="M112.936,61.364a4.659,4.659,0,0,0-5.5.045"/><line class="cls-10" x1="134.028" y1="60.963" x2="143.468" y2="63.552"/><line class="cls-8" x1="184.804" y1="216.672" x2="177.624" y2="185.898"/><path class="cls-1" d="M102.386,66.205a2.375,2.375,0,0,1-2.777,1.834,2.3,2.3,0,0,1-1.9-2.678,2.377,2.377,0,0,1,2.777-1.835A2.3,2.3,0,0,1,102.386,66.205Z"/><path class="cls-1" d="M122.479,65.194a2.377,2.377,0,0,1-2.777,1.835,2.3,2.3,0,0,1-1.9-2.679,2.376,2.376,0,0,1,2.777-1.834A2.3,2.3,0,0,1,122.479,65.194Z"/><path class="cls-6" d="M106.8,67.742l-1.687,6.614a1.273,1.273,0,0,0,1.031,1.553l2.515.469"/><path id="_Trazado_de_recorte_2" data-name="&lt;Trazado de recorte&gt;" class="cls-1" d="M105.593,81l14.5.53s-.319,6.052-7.44,6.052A6.583,6.583,0,0,1,105.593,81Z"/><g class="cls-11"><path class="cls-12" d="M120.5,91.4a5.5,5.5,0,0,1-7.187,2.57,5.153,5.153,0,0,1-2.665-6.933,5.506,5.506,0,0,1,7.188-2.57A5.153,5.153,0,0,1,120.5,91.4Z"/></g><path class="cls-13" d="M142.005,68.348l-.881.626L130.933,71.7l.8,24.766,9.4-27.979.864-.14-10.092,32.218s-23.058,8.671-34.063-9.633a35.018,35.018,0,0,1-3.908-10.271l.719-10.008,10.45,3.7Z"/></svg>