<svg xmlns="http://www.w3.org/2000/svg" viewBox="0 0 1280 800"><defs><style>.cls-1{fill:#f22e3e;}.cls-2{fill:#ed6e83;}.cls-3{fill:#ef4d61;}</style></defs><title>ilustraciones</title><g id="_2" data-name="2"><path class="cls-1" d="M315.564,233.912s3.847,11.094,8.069,13.3l4.223,2.2s3.843-2.967,11.581,1.771,4.49,13.767-1.011,15.719-11.483-2.344-12.777-4.782a24.43,24.43,0,0,1-1.869-6.464s-11.09-6.916-20.417-3.887Z"/><path class="cls-1" d="M239.415,212.624s-3.847-11.094-8.069-13.3l-4.223-2.2s-3.843,2.967-11.581-1.771-4.49-13.767,1.011-15.719,11.483,2.344,12.777,4.782a24.43,24.43,0,0,1,1.869,6.464s11.09,6.916,20.417,3.887Z"/><path class="cls-1" d="M288.133,185.194s11.094-3.847,13.3-8.07l2.206-4.222s-2.967-3.843,1.77-11.582a8.665,8.665,0,0,1,15.719,1.011c1.952,5.5-2.344,11.484-4.782,12.777a24.379,24.379,0,0,1-6.464,1.869s-6.916,11.091-3.887,20.418Z"/><path class="cls-1" d="M266.846,261.342s-11.094,3.847-13.3,8.07l-2.2,4.223s2.967,3.842-1.77,11.581a8.666,8.666,0,0,1-15.72-1.011c-1.951-5.5,2.345-11.484,4.783-12.777a24.376,24.376,0,0,1,6.463-1.869s6.917-11.091,3.888-20.418Z"/><path class="cls-1" d="M317.871,200.531s12.384,6.007,17.712,4.335l5.328-1.672s.726-5.644,11.067-8.132,15.133,7.69,12.192,13.867-11.462,7.576-14.555,6.627a28.62,28.62,0,0,1-6.907-3.808s-14.926,3.46-20.146,13.7Z"/><path class="cls-1" d="M237.108,246.005S224.724,240,219.4,241.67l-5.328,1.672s-.726,5.645-11.067,8.132-15.134-7.69-12.192-13.867,11.462-7.576,14.555-6.627a28.62,28.62,0,0,1,6.907,3.808s14.925-3.46,20.145-13.7Z"/><path class="cls-1" d="M254.753,182.887s6.007-12.385,4.335-17.713l-1.673-5.328s-5.644-.726-8.132-11.067,7.69-15.133,13.868-12.191,7.575,11.461,6.626,14.555a28.6,28.6,0,0,1-3.808,6.906s3.46,14.926,13.7,20.146Z"/><path class="cls-1" d="M300.226,263.65s-6.007,12.384-4.335,17.712l1.673,5.328s5.644.726,8.131,11.067-7.69,15.133-13.867,12.191-7.575-11.461-6.626-14.555a28.568,28.568,0,0,1,3.808-6.906s-3.46-14.926-13.7-20.146Z"/><path class="cls-2" d="M246.608,242.147c25.09,13.891,62.046-14.924,57.906-39.714a52.875,52.875,0,0,0-11.428-24.6,48.352,48.352,0,0,0-61.459,27.245C230.513,217.753,232.282,234.216,246.608,242.147Z"/><path class="cls-3" d="M293.086,177.836a52.875,52.875,0,0,1,11.428,24.6c4.14,24.79-32.816,53.605-57.906,39.714-14.326-7.931-16.095-24.394-14.981-37.066a48.363,48.363,0,1,0,61.459-27.245Z"/><path class="cls-1" d="M824.747,621.255s3.847,11.094,8.07,13.3l4.222,2.205s3.843-2.966,11.582,1.771,4.49,13.767-1.011,15.719-11.484-2.344-12.777-4.782A24.389,24.389,0,0,1,832.964,643s-11.091-6.916-20.418-3.887Z"/><path class="cls-1" d="M748.6,599.967s-3.847-11.094-8.07-13.3l-4.223-2.205s-3.842,2.967-11.581-1.771-4.49-13.767,1.011-15.719,11.484,2.344,12.777,4.783a24.376,24.376,0,0,1,1.869,6.463s11.091,6.917,20.418,3.887Z"/><path class="cls-1" d="M797.317,572.537s11.094-3.847,13.3-8.07l2.205-4.222s-2.967-3.843,1.771-11.582,13.767-4.49,15.719,1.011-2.344,11.484-4.783,12.777a24.376,24.376,0,0,1-6.463,1.869s-6.916,11.091-3.887,20.418Z"/><path class="cls-1" d="M776.029,648.685s-11.094,3.847-13.3,8.07l-2.205,4.223s2.967,3.842-1.771,11.581-13.767,4.49-15.719-1.011,2.344-11.483,4.782-12.777a24.389,24.389,0,0,1,6.464-1.869s6.916-11.091,3.887-20.418Z"/><path class="cls-1" d="M827.054,587.875s12.385,6.007,17.713,4.334l5.328-1.672s.726-5.644,11.067-8.132,15.133,7.69,12.191,13.868-11.461,7.575-14.555,6.626a28.6,28.6,0,0,1-6.906-3.808s-14.926,3.46-20.146,13.7Z"/><path class="cls-1" d="M746.291,633.348s-12.384-6.007-17.712-4.335l-5.328,1.672s-.726,5.645-11.067,8.132-15.133-7.69-12.191-13.867,11.461-7.576,14.554-6.627a28.587,28.587,0,0,1,6.907,3.809s14.926-3.46,20.146-13.7Z"/><path class="cls-1" d="M763.936,570.23s6.007-12.385,4.335-17.713L766.6,547.19s-5.645-.726-8.132-11.068,7.69-15.133,13.867-12.191,7.576,11.461,6.627,14.555a28.594,28.594,0,0,1-3.809,6.906s3.46,14.926,13.7,20.146Z"/><path class="cls-1" d="M809.409,650.993s-6.007,12.384-4.334,17.712l1.672,5.328s5.644.726,8.132,11.067-7.69,15.133-13.867,12.191-7.576-11.461-6.627-14.554a28.6,28.6,0,0,1,3.808-6.907s-3.46-14.926-13.7-20.146Z"/><path class="cls-2" d="M755.791,629.491c25.09,13.89,62.047-14.925,57.907-39.715a52.885,52.885,0,0,0-11.428-24.6,48.352,48.352,0,0,0-61.459,27.245C739.7,605.1,741.465,621.559,755.791,629.491Z"/><path class="cls-3" d="M802.27,565.179a52.885,52.885,0,0,1,11.428,24.6c4.14,24.79-32.817,53.605-57.907,39.715-14.326-7.932-16.1-24.395-14.98-37.067a48.362,48.362,0,1,0,61.459-27.245Z"/><path class="cls-1" d="M1121.165,205.322s3.847,11.094,8.069,13.3l4.223,2.2s3.843-2.967,11.581,1.771,4.49,13.767-1.011,15.719-11.483-2.344-12.777-4.782a24.43,24.43,0,0,1-1.869-6.464s-11.09-6.916-20.417-3.887Z"/><path class="cls-1" d="M1045.016,184.034s-3.847-11.094-8.069-13.3l-4.223-2.205s-3.843,2.967-11.581-1.771-4.49-13.767,1.011-15.719,11.483,2.344,12.777,4.783a24.417,24.417,0,0,1,1.869,6.463s11.09,6.916,20.417,3.887Z"/><path class="cls-1" d="M1093.734,156.6s11.094-3.847,13.3-8.07l2.206-4.222s-2.967-3.843,1.77-11.582a8.665,8.665,0,0,1,15.719,1.011c1.952,5.5-2.344,11.484-4.782,12.777a24.379,24.379,0,0,1-6.464,1.869s-6.916,11.091-3.887,20.418Z"/><path class="cls-1" d="M1072.447,232.752s-11.094,3.847-13.3,8.07l-2.2,4.223s2.967,3.842-1.77,11.581a8.666,8.666,0,0,1-15.72-1.011c-1.951-5.5,2.345-11.484,4.783-12.777a24.376,24.376,0,0,1,6.463-1.869s6.917-11.091,3.888-20.418Z"/><path class="cls-1" d="M1123.472,171.942s12.384,6.007,17.712,4.334l5.328-1.672s.726-5.644,11.067-8.132,15.134,7.69,12.192,13.867-11.462,7.576-14.555,6.627a28.62,28.62,0,0,1-6.907-3.808s-14.926,3.46-20.146,13.7Z"/><path class="cls-1" d="M1042.709,217.415s-12.384-6.007-17.712-4.335l-5.328,1.672s-.726,5.645-11.067,8.132-15.134-7.69-12.192-13.867,11.462-7.576,14.555-6.627a28.609,28.609,0,0,1,6.907,3.809s14.925-3.46,20.146-13.7Z"/><path class="cls-1" d="M1060.354,154.3s6.007-12.385,4.335-17.713l-1.673-5.328s-5.644-.726-8.132-11.067,7.69-15.133,13.868-12.191,7.575,11.461,6.626,14.555a28.6,28.6,0,0,1-3.808,6.906s3.46,14.926,13.7,20.146Z"/><path class="cls-1" d="M1105.827,235.06s-6.007,12.384-4.335,17.712l1.673,5.328s5.644.726,8.131,11.067-7.69,15.133-13.867,12.191-7.575-11.461-6.626-14.554a28.561,28.561,0,0,1,3.808-6.907s-3.46-14.926-13.7-20.146Z"/><path class="cls-2" d="M1052.209,213.558c25.09,13.89,62.046-14.925,57.906-39.715a52.875,52.875,0,0,0-11.428-24.6,48.352,48.352,0,0,0-61.459,27.245C1036.114,189.163,1037.883,205.626,1052.209,213.558Z"/><path class="cls-3" d="M1098.687,149.246a52.875,52.875,0,0,1,11.428,24.6c4.14,24.79-32.816,53.605-57.906,39.715-14.326-7.932-16.1-24.395-14.981-37.067a48.363,48.363,0,1,0,61.459-27.245Z"/><path class="cls-1" d="M703.364,262.5s3.846,11.094,8.069,13.3l4.223,2.2s3.843-2.967,11.581,1.771,4.49,13.767-1.011,15.719-11.483-2.344-12.777-4.783a24.417,24.417,0,0,1-1.869-6.463s-11.091-6.916-20.417-3.887Z"/><path class="cls-1" d="M627.215,241.214s-3.847-11.094-8.07-13.3l-4.222-2.2s-3.843,2.967-11.581-1.771-4.49-13.767,1.011-15.719,11.483,2.344,12.777,4.782A24.43,24.43,0,0,1,619,219.466s11.09,6.916,20.417,3.887Z"/><path class="cls-1" d="M675.933,213.784s11.094-3.847,13.3-8.07l2.206-4.223s-2.967-3.842,1.77-11.581a8.665,8.665,0,0,1,15.719,1.011c1.952,5.5-2.344,11.484-4.782,12.777a24.389,24.389,0,0,1-6.464,1.869s-6.916,11.091-3.887,20.418Z"/><path class="cls-1" d="M654.646,289.932s-11.095,3.847-13.3,8.07l-2.205,4.222s2.967,3.843-1.77,11.582a8.666,8.666,0,0,1-15.72-1.011c-1.951-5.5,2.344-11.484,4.783-12.777a24.376,24.376,0,0,1,6.463-1.869s6.917-11.091,3.888-20.418Z"/><path class="cls-1" d="M705.671,229.121s12.384,6.007,17.712,4.335l5.328-1.672s.726-5.645,11.067-8.132,15.133,7.69,12.191,13.867-11.461,7.576-14.554,6.627a28.587,28.587,0,0,1-6.907-3.809s-14.926,3.461-20.146,13.7Z"/><path class="cls-1" d="M624.908,274.6s-12.385-6.007-17.712-4.335l-5.328,1.672s-.726,5.644-11.067,8.132-15.134-7.69-12.192-13.867,11.462-7.576,14.555-6.627a28.62,28.62,0,0,1,6.907,3.808s14.925-3.46,20.145-13.7Z"/><path class="cls-1" d="M642.553,211.476s6.007-12.384,4.334-17.712l-1.672-5.328s-5.644-.726-8.132-11.067,7.69-15.133,13.868-12.191,7.575,11.461,6.626,14.555a28.6,28.6,0,0,1-3.808,6.906s3.46,14.926,13.7,20.146Z"/><path class="cls-1" d="M688.026,292.239s-6.007,12.385-4.335,17.713l1.672,5.328s5.645.726,8.132,11.067-7.69,15.133-13.867,12.191-7.575-11.461-6.627-14.555a28.594,28.594,0,0,1,3.809-6.906s-3.46-14.926-13.7-20.146Z"/><path class="cls-2" d="M634.408,270.737c25.09,13.891,62.046-14.924,57.906-39.714a52.875,52.875,0,0,0-11.428-24.6,48.352,48.352,0,0,0-61.459,27.245C618.313,246.343,620.082,262.806,634.408,270.737Z"/><path class="cls-3" d="M680.886,206.426a52.875,52.875,0,0,1,11.428,24.6c4.14,24.79-32.816,53.6-57.906,39.714-14.326-7.931-16.1-24.394-14.981-37.066a48.362,48.362,0,1,0,61.459-27.245Z"/><path class="cls-1" d="M317.745,634.459s3.847,11.094,8.069,13.3l4.223,2.205s3.843-2.967,11.581,1.77,4.49,13.768-1.011,15.72-11.483-2.345-12.777-4.783a24.417,24.417,0,0,1-1.869-6.463s-11.09-6.917-20.417-3.888Z"/><path class="cls-1" d="M241.6,613.172s-3.847-11.094-8.069-13.3l-4.223-2.206s-3.843,2.967-11.581-1.77a8.665,8.665,0,0,1,1.011-15.719c5.5-1.952,11.483,2.344,12.777,4.782a24.42,24.42,0,0,1,1.869,6.464s11.091,6.916,20.417,3.887Z"/><path class="cls-1" d="M290.314,585.741s11.094-3.847,13.3-8.069l2.205-4.223s-2.967-3.843,1.77-11.581,13.768-4.49,15.72,1.011-2.344,11.483-4.783,12.777a24.417,24.417,0,0,1-6.463,1.869s-6.917,11.09-3.888,20.417Z"/><path class="cls-1" d="M269.027,661.89s-11.094,3.847-13.3,8.069l-2.206,4.223s2.967,3.843-1.77,11.581a8.665,8.665,0,0,1-15.719-1.011c-1.952-5.5,2.344-11.483,4.782-12.777a24.42,24.42,0,0,1,6.464-1.869s6.916-11.09,3.887-20.417Z"/><path class="cls-1" d="M320.052,601.079s12.384,6.007,17.712,4.335l5.328-1.673s.726-5.644,11.067-8.131,15.134,7.69,12.192,13.867-11.462,7.575-14.555,6.626a28.583,28.583,0,0,1-6.907-3.808s-14.925,3.46-20.145,13.7Z"/><path class="cls-1" d="M239.289,646.552s-12.384-6.007-17.712-4.335l-5.328,1.673s-.726,5.644-11.067,8.132-15.133-7.69-12.192-13.868,11.462-7.575,14.555-6.626a28.6,28.6,0,0,1,6.907,3.808s14.926-3.46,20.146-13.7Z"/><path class="cls-1" d="M256.934,583.434s6.007-12.384,4.335-17.712l-1.673-5.328s-5.644-.726-8.131-11.067,7.69-15.134,13.867-12.192,7.575,11.462,6.626,14.555a28.583,28.583,0,0,1-3.808,6.907s3.46,14.926,13.7,20.146Z"/><path class="cls-1" d="M302.407,664.2s-6.007,12.384-4.335,17.712l1.673,5.328s5.644.726,8.132,11.067-7.69,15.134-13.868,12.192-7.575-11.462-6.626-14.555a28.62,28.62,0,0,1,3.808-6.907s-3.46-14.925-13.7-20.146Z"/><path class="cls-2" d="M248.789,642.7c25.09,13.89,62.047-14.925,57.907-39.715a52.886,52.886,0,0,0-11.429-24.6,48.352,48.352,0,0,0-61.459,27.246C232.694,618.3,234.463,634.764,248.789,642.7Z"/><path class="cls-3" d="M295.267,578.383a52.886,52.886,0,0,1,11.429,24.6c4.14,24.79-32.817,53.605-57.907,39.715-14.326-7.931-16.095-24.394-14.981-37.066a48.363,48.363,0,1,0,61.459-27.246Z"/><path class="cls-1" d="M523.713,493.545s2.172,6.263,4.556,7.508l2.385,1.245s2.169-1.675,6.538,1a4.893,4.893,0,0,1-.57,8.875c-3.106,1.1-6.484-1.323-7.214-2.7a13.765,13.765,0,0,1-1.056-3.649s-6.261-3.905-11.527-2.195Z"/><path class="cls-1" d="M480.72,481.526s-2.172-6.264-4.556-7.509l-2.384-1.245s-2.17,1.675-6.539-1a4.892,4.892,0,0,1,.571-8.875c3.106-1.1,6.484,1.324,7.214,2.7a13.791,13.791,0,0,1,1.055,3.65s6.262,3.9,11.528,2.194Z"/><path class="cls-1" d="M508.226,466.038s6.264-2.172,7.509-4.556l1.245-2.384s-1.675-2.169,1-6.538a4.892,4.892,0,0,1,8.875.57c1.1,3.106-1.324,6.484-2.7,7.214a13.749,13.749,0,0,1-3.65,1.055s-3.9,6.262-2.2,11.528Z"/><path class="cls-1" d="M496.207,509.032s-6.263,2.172-7.508,4.556l-1.245,2.384s1.675,2.17-1,6.539a4.892,4.892,0,0,1-8.875-.571c-1.1-3.106,1.323-6.484,2.7-7.214a13.788,13.788,0,0,1,3.649-1.055s3.905-6.262,2.195-11.528Z"/><path class="cls-1" d="M525.016,474.7s6.992,3.392,10,2.447l3.009-.944s.409-3.187,6.248-4.591a5.735,5.735,0,0,1,6.883,7.83c-1.661,3.487-6.471,4.277-8.217,3.741a16.155,16.155,0,0,1-3.9-2.15s-8.427,1.953-11.374,7.736Z"/><path class="cls-1" d="M479.417,500.372s-6.992-3.391-10-2.447l-3.008.944s-.41,3.187-6.248,4.591a5.735,5.735,0,0,1-6.884-7.829c1.661-3.488,6.471-4.277,8.218-3.742a16.151,16.151,0,0,1,3.9,2.151s8.427-1.954,11.375-7.736Z"/><path class="cls-1" d="M489.38,464.736s3.391-6.992,2.447-10l-.944-3.008s-3.187-.41-4.591-6.248a5.734,5.734,0,0,1,7.829-6.883c3.488,1.661,4.277,6.471,3.742,8.217a16.144,16.144,0,0,1-2.151,3.9s1.954,8.427,7.736,11.374Z"/><path class="cls-1" d="M515.054,510.334s-3.392,6.993-2.448,10l.945,3.008s3.186.41,4.591,6.248a5.735,5.735,0,0,1-7.83,6.884c-3.487-1.661-4.277-6.472-3.741-8.218a16.155,16.155,0,0,1,2.15-3.9s-1.953-8.427-7.736-11.374Z"/><path class="cls-2" d="M484.781,498.194c14.166,7.843,35.031-8.426,32.694-22.423a29.858,29.858,0,0,0-6.452-13.887,27.3,27.3,0,0,0-34.7,15.383C475.694,484.421,476.693,493.716,484.781,498.194Z"/><path class="cls-3" d="M511.023,461.884a29.858,29.858,0,0,1,6.452,13.887c2.337,14-18.528,30.266-32.694,22.423-8.088-4.478-9.087-13.773-8.458-20.927a27.306,27.306,0,1,0,34.7-15.383Z"/><path class="cls-1" d="M42.085,429.514s2.172,6.264,4.557,7.509l2.384,1.245s2.169-1.675,6.538,1a4.892,4.892,0,0,1-.57,8.875c-3.106,1.1-6.484-1.324-7.214-2.7a13.749,13.749,0,0,1-1.055-3.65S40.463,437.888,35.2,439.6Z"/><path class="cls-1" d="M-.908,417.5s-2.172-6.264-4.556-7.509l-2.384-1.245s-2.17,1.675-6.539-1a4.892,4.892,0,0,1,.571-8.875c3.106-1.1,6.484,1.324,7.214,2.7a13.791,13.791,0,0,1,1.055,3.65s6.262,3.9,11.528,2.194Z"/><path class="cls-1" d="M26.6,402.008s6.264-2.172,7.509-4.556l1.245-2.384s-1.675-2.169,1-6.539a4.892,4.892,0,0,1,8.875.571c1.1,3.106-1.324,6.484-2.7,7.214a13.791,13.791,0,0,1-3.65,1.055s-3.905,6.262-2.194,11.528Z"/><path class="cls-1" d="M14.579,445s-6.263,2.172-7.508,4.556l-1.245,2.384s1.675,2.169-1,6.539a4.892,4.892,0,0,1-8.875-.571c-1.1-3.106,1.323-6.484,2.7-7.214A13.788,13.788,0,0,1,2.3,449.641s3.905-6.262,2.2-11.528Z"/><path class="cls-1" d="M43.388,410.668s6.992,3.391,10,2.447l3.009-.944s.41-3.187,6.248-4.591a5.735,5.735,0,0,1,6.883,7.829c-1.661,3.488-6.471,4.278-8.217,3.742a16.155,16.155,0,0,1-3.9-2.15s-8.427,1.953-11.374,7.735Z"/><path class="cls-1" d="M7.752,400.706s3.391-6.992,2.447-10L9.255,387.7s-3.187-.41-4.591-6.248a5.734,5.734,0,0,1,7.829-6.883c3.488,1.661,4.277,6.471,3.742,8.217a16.144,16.144,0,0,1-2.151,3.9s1.954,8.427,7.736,11.374Z"/><path class="cls-1" d="M33.426,446.3s-3.392,6.992-2.447,10l.944,3.008s3.186.41,4.591,6.248a5.735,5.735,0,0,1-7.83,6.883c-3.487-1.661-4.277-6.471-3.741-8.217a16.155,16.155,0,0,1,2.15-3.9s-1.953-8.427-7.736-11.374Z"/><path class="cls-2" d="M3.153,434.164c14.166,7.843,35.032-8.426,32.694-22.423A29.858,29.858,0,0,0,29.4,397.854,27.3,27.3,0,0,0-5.3,413.237C-5.934,420.391-4.935,429.686,3.153,434.164Z"/><path class="cls-3" d="M29.4,397.854a29.858,29.858,0,0,1,6.452,13.887c2.338,14-18.528,30.266-32.694,22.423-8.088-4.478-9.087-13.773-8.458-20.927a27.306,27.306,0,1,0,34.7-15.383Z"/><path class="cls-1" d="M106.947,84.734S109.119,91,111.5,92.243l2.384,1.245s2.169-1.675,6.538,1a4.892,4.892,0,0,1-.57,8.875c-3.106,1.1-6.484-1.324-7.214-2.7a13.736,13.736,0,0,1-1.055-3.649s-6.262-3.905-11.528-2.2Z"/><path class="cls-1" d="M63.953,72.715s-2.172-6.263-4.556-7.508l-2.384-1.246s-2.17,1.676-6.539-1a4.892,4.892,0,0,1,.571-8.875c3.106-1.1,6.484,1.323,7.214,2.7a13.788,13.788,0,0,1,1.055,3.649s6.262,3.9,11.528,2.2Z"/><path class="cls-1" d="M91.459,57.228s6.264-2.172,7.509-4.556l1.245-2.384s-1.675-2.17,1-6.539a4.892,4.892,0,0,1,8.875.571c1.1,3.106-1.324,6.483-2.7,7.214a13.791,13.791,0,0,1-3.65,1.055s-3.905,6.262-2.194,11.528Z"/><path class="cls-1" d="M79.44,100.221s-6.263,2.172-7.508,4.556l-1.245,2.385s1.675,2.169-1,6.538a4.892,4.892,0,0,1-8.875-.571c-1.1-3.105,1.323-6.483,2.7-7.213a13.765,13.765,0,0,1,3.649-1.056s3.905-6.261,2.195-11.527Z"/><path class="cls-1" d="M108.249,65.888s6.992,3.391,10,2.447l3.008-.944s.41-3.187,6.248-4.591a5.734,5.734,0,0,1,6.883,7.829c-1.661,3.488-6.471,4.277-8.217,3.741a16.119,16.119,0,0,1-3.9-2.15s-8.427,1.954-11.374,7.736Z"/><path class="cls-1" d="M62.651,91.562s-6.993-3.392-10-2.448l-3.008.945s-.41,3.186-6.248,4.591a5.735,5.735,0,0,1-6.884-7.83c1.662-3.487,6.472-4.277,8.218-3.741a16.155,16.155,0,0,1,3.9,2.15S57.055,83.276,60,77.493Z"/><path class="cls-1" d="M72.613,55.925s3.391-6.992,2.447-10l-.944-3.008s-3.187-.41-4.591-6.248a5.735,5.735,0,0,1,7.829-6.884C80.842,31.446,81.631,36.256,81.1,38a16.151,16.151,0,0,1-2.151,3.9s1.954,8.427,7.736,11.375Z"/><path class="cls-1" d="M98.287,101.524s-3.392,6.992-2.447,10l.944,3.008s3.187.41,4.591,6.249a5.735,5.735,0,0,1-7.829,6.883c-3.488-1.661-4.278-6.471-3.742-8.217a16.155,16.155,0,0,1,2.15-3.9S90,107.12,84.218,104.173Z"/><path class="cls-2" d="M68.014,89.384c14.166,7.842,35.032-8.427,32.694-22.423a29.858,29.858,0,0,0-6.452-13.887,27.3,27.3,0,0,0-34.7,15.382C58.927,75.611,59.926,84.906,68.014,89.384Z"/><path class="cls-3" d="M94.256,53.074a29.858,29.858,0,0,1,6.452,13.887c2.338,14-18.528,30.265-32.694,22.423-8.088-4.478-9.087-13.773-8.458-20.928a27.306,27.306,0,1,0,34.7-15.382Z"/><path class="cls-1" d="M507.572,70.126s2.172,6.264,4.556,7.509l2.384,1.245s2.169-1.675,6.539,1a4.892,4.892,0,0,1-.571,8.875c-3.106,1.1-6.484-1.324-7.214-2.7a13.778,13.778,0,0,1-1.055-3.649s-6.262-3.905-11.528-2.2Z"/><path class="cls-1" d="M464.578,58.107s-2.172-6.263-4.556-7.508l-2.384-1.245s-2.169,1.675-6.539-1a4.892,4.892,0,0,1,.571-8.875c3.106-1.1,6.484,1.323,7.214,2.7a13.788,13.788,0,0,1,1.055,3.649s6.262,3.9,11.528,2.2Z"/><path class="cls-1" d="M492.084,42.62s6.264-2.172,7.509-4.556l1.245-2.384s-1.675-2.17,1-6.539a4.892,4.892,0,0,1,8.875.571c1.1,3.106-1.324,6.483-2.7,7.214a13.791,13.791,0,0,1-3.65,1.055s-3.9,6.262-2.194,11.528Z"/><path class="cls-1" d="M480.066,85.613s-6.264,2.172-7.509,4.556l-1.245,2.385s1.675,2.169-1,6.538a4.892,4.892,0,0,1-8.875-.571c-1.1-3.105,1.324-6.483,2.7-7.213a13.768,13.768,0,0,1,3.65-1.056s3.9-6.261,2.194-11.527Z"/><path class="cls-1" d="M508.874,51.28s6.992,3.391,10,2.447l3.008-.944s.41-3.187,6.248-4.591a5.734,5.734,0,0,1,6.883,7.829c-1.661,3.488-6.471,4.277-8.217,3.741a16.119,16.119,0,0,1-3.9-2.15s-8.427,1.954-11.374,7.736Z"/><path class="cls-1" d="M463.276,76.954s-6.993-3.392-10-2.448l-3.008.945s-.41,3.186-6.248,4.591a5.735,5.735,0,0,1-6.883-7.83c1.661-3.487,6.471-4.277,8.217-3.741a16.155,16.155,0,0,1,3.9,2.15s8.427-1.953,11.374-7.736Z"/><path class="cls-1" d="M473.238,41.317s3.391-6.992,2.447-10l-.944-3.008s-3.187-.41-4.591-6.248a5.735,5.735,0,0,1,7.829-6.884c3.488,1.661,4.277,6.471,3.742,8.218a16.162,16.162,0,0,1-2.15,3.9s1.953,8.427,7.735,11.375Z"/><path class="cls-1" d="M498.912,86.916s-3.392,6.992-2.447,10l.944,3.008s3.187.41,4.591,6.249a5.735,5.735,0,0,1-7.829,6.883c-3.488-1.661-4.278-6.471-3.742-8.217a16.155,16.155,0,0,1,2.15-3.9s-1.953-8.427-7.736-11.374Z"/><path class="cls-2" d="M468.639,74.776c14.166,7.842,35.032-8.427,32.694-22.423a29.858,29.858,0,0,0-6.452-13.887,27.3,27.3,0,0,0-34.7,15.382C459.552,61,460.551,70.3,468.639,74.776Z"/><path class="cls-3" d="M494.881,38.466a29.858,29.858,0,0,1,6.452,13.887c2.338,14-18.528,30.265-32.694,22.423C460.551,70.3,459.552,61,460.181,53.848a27.306,27.306,0,1,0,34.7-15.382Z"/><path class="cls-1" d="M988.634,428.283s2.172,6.264,4.556,7.509l2.384,1.245s2.169-1.675,6.539,1a4.892,4.892,0,0,1-.571,8.875c-3.106,1.1-6.484-1.323-7.214-2.7a13.778,13.778,0,0,1-1.055-3.649s-6.262-3.905-11.528-2.195Z"/><path class="cls-1" d="M945.64,416.264s-2.172-6.264-4.556-7.509L938.7,407.51s-2.169,1.675-6.538-1a4.892,4.892,0,0,1,.57-8.875c3.106-1.1,6.484,1.323,7.214,2.7A13.778,13.778,0,0,1,941,403.985s6.262,3.9,11.528,2.195Z"/><path class="cls-1" d="M973.147,400.777s6.263-2.172,7.508-4.556l1.245-2.384s-1.675-2.17,1-6.539a4.892,4.892,0,0,1,8.875.571c1.1,3.106-1.323,6.483-2.7,7.214a13.791,13.791,0,0,1-3.65,1.055s-3.9,6.262-2.194,11.528Z"/><path class="cls-1" d="M961.128,443.77s-6.264,2.172-7.509,4.556l-1.245,2.384s1.675,2.17-1,6.539a4.892,4.892,0,0,1-8.875-.571c-1.1-3.106,1.324-6.483,2.7-7.214a13.791,13.791,0,0,1,3.65-1.055s3.9-6.262,2.194-11.528Z"/><path class="cls-1" d="M989.936,409.436s6.993,3.392,10,2.448l3.008-.944s.41-3.187,6.248-4.592a5.735,5.735,0,0,1,6.883,7.83c-1.661,3.488-6.471,4.277-8.217,3.741a16.155,16.155,0,0,1-3.9-2.15s-8.427,1.954-11.374,7.736Z"/><path class="cls-1" d="M944.338,435.111s-6.992-3.392-10-2.448l-3.008.944s-.41,3.187-6.248,4.592a5.735,5.735,0,0,1-6.883-7.83c1.661-3.488,6.471-4.277,8.217-3.741a16.119,16.119,0,0,1,3.9,2.15s8.427-1.954,11.374-7.736Z"/><path class="cls-1" d="M954.3,399.474s3.392-6.992,2.447-10l-.944-3.008s-3.187-.41-4.591-6.249a5.735,5.735,0,0,1,7.829-6.883c3.488,1.661,4.278,6.471,3.742,8.218a16.162,16.162,0,0,1-2.15,3.9s1.953,8.427,7.736,11.374Z"/><path class="cls-1" d="M979.974,445.073s-3.391,6.992-2.447,10l.944,3.008s3.187.41,4.591,6.249a5.735,5.735,0,0,1-7.829,6.883c-3.488-1.661-4.277-6.471-3.742-8.218a16.162,16.162,0,0,1,2.15-3.9s-1.953-8.427-7.735-11.374Z"/><path class="cls-2" d="M949.7,432.933c14.166,7.842,35.032-8.427,32.694-22.423a29.858,29.858,0,0,0-6.452-13.887,27.3,27.3,0,0,0-34.7,15.382C940.614,419.16,941.613,428.455,949.7,432.933Z"/><path class="cls-3" d="M975.943,396.623A29.858,29.858,0,0,1,982.4,410.51c2.338,14-18.528,30.265-32.694,22.423-8.088-4.478-9.087-13.773-8.458-20.928a27.306,27.306,0,1,0,34.7-15.382Z"/><path class="cls-1" d="M40.854,765.505s2.172,6.263,4.556,7.508l2.384,1.246s2.17-1.676,6.539,1a4.892,4.892,0,0,1-.571,8.875c-3.106,1.1-6.483-1.323-7.214-2.7a13.788,13.788,0,0,1-1.055-3.649s-6.262-3.9-11.528-2.195Z"/><path class="cls-1" d="M-2.139,753.486s-2.172-6.264-4.556-7.509l-2.384-1.245s-2.17,1.675-6.539-1a4.892,4.892,0,0,1,.571-8.875c3.105-1.1,6.483,1.324,7.214,2.7a13.778,13.778,0,0,1,1.055,3.649s6.262,3.9,11.527,2.2Z"/><path class="cls-1" d="M25.367,738s6.264-2.172,7.509-4.556l1.245-2.385s-1.675-2.169,1-6.538a4.892,4.892,0,0,1,8.875.571c1.1,3.105-1.323,6.483-2.7,7.213a13.765,13.765,0,0,1-3.649,1.056s-3.905,6.261-2.2,11.527Z"/><path class="cls-1" d="M13.348,780.992s-6.264,2.172-7.509,4.556l-1.245,2.384s1.675,2.17-1,6.539A4.892,4.892,0,0,1-5.28,793.9c-1.1-3.106,1.323-6.483,2.7-7.214a13.778,13.778,0,0,1,3.649-1.055s3.905-6.262,2.195-11.528Z"/><path class="cls-1" d="M42.157,746.658s6.992,3.392,10,2.448l3.008-.945s.41-3.186,6.249-4.591A5.735,5.735,0,0,1,68.3,751.4c-1.661,3.487-6.471,4.277-8.218,3.741a16.162,16.162,0,0,1-3.9-2.15s-8.427,1.953-11.375,7.736Z"/><path class="cls-1" d="M6.52,736.7s3.392-6.992,2.448-10l-.944-3.008s-3.187-.41-4.592-6.249a5.735,5.735,0,0,1,7.83-6.883c3.488,1.661,4.277,6.471,3.741,8.217a16.155,16.155,0,0,1-2.15,3.9s1.953,8.427,7.736,11.374Z"/><path class="cls-1" d="M32.194,782.3s-3.391,6.992-2.447,10l.944,3.008s3.187.41,4.591,6.249a5.734,5.734,0,0,1-7.829,6.883c-3.488-1.661-4.277-6.471-3.741-8.218a16.126,16.126,0,0,1,2.15-3.9s-1.954-8.427-7.736-11.375Z"/><path class="cls-2" d="M1.922,770.155c14.165,7.842,35.031-8.427,32.694-22.423a29.868,29.868,0,0,0-6.453-13.888,27.3,27.3,0,0,0-34.7,15.383C-7.165,756.382-6.167,765.677,1.922,770.155Z"/><path class="cls-3" d="M28.163,733.844a29.868,29.868,0,0,1,6.453,13.888c2.337,14-18.529,30.265-32.694,22.423-8.089-4.478-9.087-13.773-8.458-20.928a27.305,27.305,0,1,0,34.7-15.383Z"/><path class="cls-1" d="M872.128,82.831s2.172,6.263,4.556,7.508l2.384,1.245s2.17-1.675,6.539,1a4.892,4.892,0,0,1-.571,8.875c-3.106,1.1-6.484-1.323-7.214-2.7a13.788,13.788,0,0,1-1.055-3.649s-6.262-3.905-11.528-2.195Z"/><path class="cls-1" d="M829.135,70.812s-2.172-6.264-4.557-7.509l-2.384-1.245s-2.169,1.675-6.538-1a4.893,4.893,0,0,1,.57-8.875c3.106-1.1,6.484,1.324,7.214,2.7a13.768,13.768,0,0,1,1.056,3.65s6.261,3.905,11.527,2.194Z"/><path class="cls-1" d="M856.641,55.325s6.263-2.172,7.508-4.557l1.245-2.384s-1.675-2.169,1-6.538a4.892,4.892,0,0,1,8.875.57c1.1,3.106-1.323,6.484-2.7,7.214a13.746,13.746,0,0,1-3.649,1.055s-3.9,6.262-2.195,11.528Z"/><path class="cls-1" d="M844.622,98.318s-6.264,2.172-7.509,4.556l-1.245,2.384s1.675,2.17-1,6.539a4.892,4.892,0,0,1-8.875-.571c-1.1-3.106,1.324-6.484,2.7-7.214a13.791,13.791,0,0,1,3.65-1.055s3.905-6.262,2.2-11.528Z"/><path class="cls-1" d="M873.43,63.984s6.993,3.392,10,2.447l3.008-.944s.41-3.186,6.248-4.591a5.735,5.735,0,0,1,6.884,7.83c-1.661,3.487-6.471,4.277-8.218,3.741a16.162,16.162,0,0,1-3.9-2.15s-8.427,1.953-11.375,7.736Z"/><path class="cls-1" d="M827.832,89.658s-6.992-3.391-10-2.447l-3.009.944s-.409,3.187-6.248,4.591a5.734,5.734,0,0,1-6.883-7.829c1.661-3.488,6.471-4.277,8.217-3.742a16.144,16.144,0,0,1,3.9,2.151s8.427-1.954,11.374-7.736Z"/><path class="cls-1" d="M837.794,54.022s3.392-6.992,2.448-10l-.945-3.009s-3.186-.409-4.591-6.248a5.735,5.735,0,0,1,7.83-6.883c3.487,1.661,4.277,6.471,3.741,8.217a16.155,16.155,0,0,1-2.15,3.9s1.953,8.427,7.736,11.374Z"/><path class="cls-1" d="M863.468,99.62s-3.391,6.993-2.447,10l.944,3.008s3.187.41,4.591,6.248a5.735,5.735,0,0,1-7.829,6.884c-3.488-1.661-4.277-6.471-3.742-8.218a16.166,16.166,0,0,1,2.151-3.9s-1.954-8.427-7.736-11.374Z"/><path class="cls-2" d="M833.2,87.48c14.165,7.843,35.031-8.426,32.693-22.422a29.852,29.852,0,0,0-6.452-13.888,27.3,27.3,0,0,0-34.7,15.383C824.108,73.707,825.107,83,833.2,87.48Z"/><path class="cls-3" d="M859.437,51.17a29.852,29.852,0,0,1,6.452,13.888c2.338,14-18.528,30.265-32.693,22.422-8.089-4.477-9.088-13.773-8.458-20.927a27.305,27.305,0,1,0,34.7-15.383Z"/><path class="cls-1" d="M1148.719,730s2.172,6.264,4.556,7.509l2.384,1.245s2.17-1.675,6.539,1a4.892,4.892,0,0,1-.571,8.875c-3.106,1.1-6.483-1.323-7.214-2.7a13.778,13.778,0,0,1-1.055-3.649s-6.262-3.9-11.527-2.195Z"/><path class="cls-1" d="M1105.726,717.982s-2.172-6.264-4.556-7.509l-2.384-1.245s-2.17,1.675-6.539-1a4.892,4.892,0,0,1,.571-8.875c3.106-1.1,6.483,1.323,7.214,2.7a13.788,13.788,0,0,1,1.055,3.649s6.262,3.9,11.528,2.2Z"/><path class="cls-1" d="M1133.232,702.5s6.264-2.172,7.509-4.556l1.245-2.384s-1.675-2.17,1-6.539a4.892,4.892,0,0,1,8.875.571c1.1,3.106-1.323,6.483-2.7,7.214a13.778,13.778,0,0,1-3.649,1.055s-3.9,6.262-2.195,11.528Z"/><path class="cls-1" d="M1121.213,745.488s-6.264,2.172-7.509,4.556l-1.245,2.384s1.675,2.17-1,6.539a4.892,4.892,0,0,1-8.875-.571c-1.1-3.1,1.323-6.483,2.7-7.214a13.778,13.778,0,0,1,3.649-1.055s3.9-6.262,2.195-11.527Z"/><path class="cls-1" d="M1150.022,711.155s6.992,3.391,10,2.447l3.008-.944s.41-3.187,6.249-4.591a5.734,5.734,0,0,1,6.883,7.829c-1.661,3.488-6.471,4.277-8.218,3.741a16.126,16.126,0,0,1-3.9-2.15s-8.427,1.954-11.374,7.736Z"/><path class="cls-1" d="M1104.423,736.829s-6.992-3.392-10-2.448l-3.008.944s-.41,3.187-6.249,4.592a5.735,5.735,0,0,1-6.883-7.83c1.661-3.488,6.471-4.277,8.218-3.741a16.162,16.162,0,0,1,3.9,2.15s8.427-1.953,11.374-7.736Z"/><path class="cls-1" d="M1114.386,701.192s3.391-6.992,2.447-10l-.944-3.008s-3.187-.41-4.592-6.249a5.735,5.735,0,0,1,7.83-6.883c3.488,1.661,4.277,6.471,3.741,8.218a16.126,16.126,0,0,1-2.15,3.9s1.954,8.427,7.736,11.375Z"/><path class="cls-1" d="M1140.06,746.791s-3.392,6.992-2.448,10l.944,3.008s3.187.41,4.592,6.249a5.735,5.735,0,0,1-7.83,6.883c-3.488-1.661-4.277-6.471-3.741-8.218a16.162,16.162,0,0,1,2.15-3.9s-1.954-8.427-7.736-11.374Z"/><path class="cls-2" d="M1109.787,734.651c14.165,7.842,35.031-8.427,32.694-22.423a29.849,29.849,0,0,0-6.453-13.887,27.3,27.3,0,0,0-34.7,15.382C1100.7,720.878,1101.7,730.173,1109.787,734.651Z"/><path class="cls-3" d="M1136.028,698.341a29.849,29.849,0,0,1,6.453,13.887c2.337,14-18.529,30.265-32.694,22.423-8.089-4.478-9.087-13.773-8.458-20.928a27.305,27.305,0,1,0,34.7-15.382Z"/><path class="cls-1" d="M581.911,742.705s2.172,6.264,4.556,7.509l2.384,1.245s2.169-1.675,6.539,1a4.892,4.892,0,0,1-.571,8.875c-3.106,1.1-6.484-1.324-7.214-2.7a13.791,13.791,0,0,1-1.055-3.65s-6.262-3.9-11.528-2.194Z"/><path class="cls-1" d="M538.917,730.687s-2.172-6.264-4.556-7.509l-2.384-1.245s-2.169,1.675-6.539-1a4.892,4.892,0,0,1,.571-8.875c3.106-1.1,6.484,1.324,7.214,2.7a13.791,13.791,0,0,1,1.055,3.65s6.262,3.9,11.528,2.194Z"/><path class="cls-1" d="M566.423,715.2s6.264-2.172,7.509-4.556l1.245-2.384s-1.675-2.169,1-6.539a4.892,4.892,0,0,1,8.875.571c1.1,3.106-1.324,6.484-2.7,7.214a13.791,13.791,0,0,1-3.65,1.055s-3.9,6.262-2.194,11.528Z"/><path class="cls-1" d="M554.405,758.193s-6.264,2.172-7.509,4.556l-1.245,2.384s1.675,2.169-1,6.539a4.892,4.892,0,0,1-8.875-.571c-1.1-3.106,1.324-6.484,2.7-7.214a13.791,13.791,0,0,1,3.65-1.055s3.9-6.262,2.194-11.528Z"/><path class="cls-1" d="M583.213,723.859s6.992,3.392,10,2.447l3.008-.944s.41-3.187,6.248-4.591a5.735,5.735,0,0,1,6.883,7.829c-1.661,3.488-6.471,4.278-8.217,3.742a16.155,16.155,0,0,1-3.9-2.15s-8.427,1.953-11.374,7.736Z"/><path class="cls-1" d="M537.615,749.533s-6.993-3.391-10-2.447l-3.008.944s-.41,3.187-6.248,4.591a5.735,5.735,0,0,1-6.883-7.829c1.661-3.488,6.471-4.278,8.217-3.742a16.155,16.155,0,0,1,3.9,2.15s8.427-1.953,11.374-7.735Z"/><path class="cls-1" d="M547.577,713.9s3.391-6.992,2.447-10l-.944-3.008s-3.187-.41-4.591-6.248a5.735,5.735,0,0,1,7.829-6.883c3.488,1.661,4.277,6.471,3.742,8.217a16.155,16.155,0,0,1-2.15,3.9s1.953,8.427,7.735,11.374Z"/><path class="cls-1" d="M573.251,759.5s-3.392,6.992-2.447,10l.944,3.008s3.187.41,4.591,6.248a5.735,5.735,0,0,1-7.829,6.883c-3.488-1.661-4.278-6.471-3.742-8.217a16.155,16.155,0,0,1,2.15-3.9s-1.953-8.427-7.736-11.374Z"/><path class="cls-2" d="M542.978,747.355c14.166,7.843,35.032-8.426,32.694-22.423a29.858,29.858,0,0,0-6.452-13.887,27.3,27.3,0,0,0-34.7,15.383C533.891,733.582,534.89,742.877,542.978,747.355Z"/><path class="cls-3" d="M569.22,711.045a29.858,29.858,0,0,1,6.452,13.887c2.338,14-18.528,30.266-32.694,22.423-8.088-4.478-9.087-13.773-8.458-20.927a27.306,27.306,0,1,0,34.7-15.383Z"/><path class="cls-1" d="M1235.705,380.092s2.172,6.264,4.556,7.509l2.384,1.245s2.169-1.675,6.539,1a4.892,4.892,0,0,1-.571,8.875c-3.106,1.1-6.484-1.324-7.214-2.7a13.791,13.791,0,0,1-1.055-3.65s-6.262-3.9-11.528-2.194Z"/><path class="cls-1" d="M1192.711,368.073s-2.172-6.263-4.556-7.508l-2.384-1.245s-2.169,1.675-6.538-1a4.892,4.892,0,0,1,.57-8.875c3.106-1.1,6.484,1.323,7.214,2.7a13.746,13.746,0,0,1,1.055,3.649s6.262,3.905,11.528,2.195Z"/><path class="cls-1" d="M1220.218,352.586s6.263-2.172,7.508-4.556l1.245-2.384s-1.675-2.17,1-6.539a4.892,4.892,0,0,1,8.875.571c1.1,3.106-1.323,6.484-2.7,7.214a13.788,13.788,0,0,1-3.649,1.055s-3.9,6.262-2.2,11.528Z"/><path class="cls-1" d="M1208.2,395.579s-6.264,2.172-7.509,4.557l-1.245,2.384s1.675,2.169-1,6.538a4.892,4.892,0,0,1-8.875-.57c-1.1-3.106,1.324-6.484,2.7-7.214a13.749,13.749,0,0,1,3.65-1.055s3.9-6.262,2.194-11.528Z"/><path class="cls-1" d="M1237.007,361.246s6.993,3.391,10,2.447l3.008-.944s.41-3.187,6.248-4.591a5.734,5.734,0,0,1,6.883,7.829c-1.661,3.488-6.471,4.277-8.217,3.742a16.144,16.144,0,0,1-3.9-2.151s-8.427,1.954-11.374,7.736Z"/><path class="cls-1" d="M1191.409,386.92s-6.992-3.392-10-2.447l-3.008.944s-.41,3.186-6.248,4.591a5.735,5.735,0,0,1-6.883-7.83c1.661-3.487,6.471-4.277,8.217-3.741a16.155,16.155,0,0,1,3.9,2.15s8.427-1.953,11.374-7.736Z"/><path class="cls-1" d="M1201.371,351.284s3.392-6.993,2.447-10l-.944-3.008s-3.187-.41-4.591-6.248a5.735,5.735,0,0,1,7.829-6.884c3.488,1.661,4.278,6.471,3.742,8.218a16.162,16.162,0,0,1-2.15,3.9s1.953,8.428,7.736,11.375Z"/><path class="cls-1" d="M1227.045,396.882s-3.391,6.992-2.447,10l.944,3.009s3.187.409,4.591,6.248a5.734,5.734,0,0,1-7.829,6.883c-3.488-1.661-4.277-6.471-3.742-8.217a16.155,16.155,0,0,1,2.15-3.9s-1.953-8.427-7.735-11.374Z"/><path class="cls-2" d="M1196.772,384.742c14.166,7.843,35.032-8.426,32.694-22.423a29.849,29.849,0,0,0-6.452-13.887,27.3,27.3,0,0,0-34.7,15.383C1187.685,370.969,1188.684,380.264,1196.772,384.742Z"/><path class="cls-3" d="M1223.014,348.432a29.849,29.849,0,0,1,6.452,13.887c2.338,14-18.528,30.266-32.694,22.423-8.088-4.478-9.087-13.773-8.458-20.927a27.306,27.306,0,1,0,34.7-15.383Z"/></g></svg>