<?xml version="1.0" encoding="utf-8"?>
<!-- Generator: Adobe Illustrator 22.1.0, SVG Export Plug-In . SVG Version: 6.00 Build 0)  -->
<svg version="1.1" id="Capa_1" xmlns="http://www.w3.org/2000/svg" xmlns:xlink="http://www.w3.org/1999/xlink" x="0px" y="0px"
	 viewBox="0 0 630.2 531.7" style="enable-background:new 0 0 630.2 531.7;" xml:space="preserve">
<style type="text/css">
	.st0{fill:#171717;}
	.st1{fill:#FFAE4D;}
	.st2{fill:#BA5F3F;}
	.st3{fill:#CE7D5D;}
	.st4{fill:none;stroke:#BA5F3F;stroke-width:1.434;stroke-linecap:round;stroke-linejoin:round;}
	.st5{fill:#FFFFFF;}
	.st6{fill:#195BA3;}
	.st7{fill:#217CCE;}
	.st8{fill:#FAFBFD;}
</style>
<title>ilustraciones</title>
<g id="_2">
	<ellipse transform="matrix(0.7071 -0.7071 0.7071 0.7071 66.3157 298.0323)" class="st0" cx="392.9" cy="69" rx="55.2" ry="55.2"/>
	<circle class="st1" cx="349.3" cy="97" r="38.2"/>
	<circle class="st2" cx="250.8" cy="152.6" r="19"/>
	<polygon class="st3" points="283.2,189.9 289.9,268.5 361.2,264.9 341,148.8 	"/>
	<path class="st2" d="M292,225.4c0,0,31.4,4.5,34.3-32.4l-34.8,15.3L292,225.4z"/>
	<path class="st3" d="M255.6,84.6c-4.7,4.1-7.9,9.7-9.1,15.9c-3.6,18.2-10.8,56.1-4.4,75.5c8.4,25.1,28.8,41.1,61.8,34.8
		c0,0,38.2-1.7,47.7-57.9C365,73.1,296.7,49.8,255.6,84.6z"/>
	<path class="st0" d="M253.4,141.1c-0.6,2.3-3,3.7-5.3,3.1c-2.3-0.6-3.7-3-3.1-5.3c0.6-2.3,3-3.7,5.3-3.1
		C252.7,136.4,254,138.8,253.4,141.1C253.4,141.1,253.4,141.1,253.4,141.1z"/>
	<path class="st0" d="M290.3,141.9c-0.6,2.3-3,3.7-5.3,3.1s-3.7-3-3.1-5.3c0.6-2.3,3-3.7,5.3-3.1c0,0,0,0,0,0
		C289.5,137.2,290.9,139.5,290.3,141.9z"/>
	<polyline class="st4" points="260.8,149 256.5,159.3 263.5,161.2 	"/>
	<path class="st0" d="M278.9,108L278.9,108c-0.7,2.7,0.9,5.5,3.6,6.2c0.2,0,0.3,0.1,0.5,0.1c5.8,0.9,11.4,2.6,16.6,5.1
		c2.1,1.1,4.7,0.4,5.9-1.7l0,0c1-2,0.4-4.5-1.4-5.8c-5.5-5-12.6-7.8-20-7.6C281.7,104.2,279.6,105.7,278.9,108z"/>
	<path class="st0" d="M257.5,107.7L257.5,107.7c0.2,2.9-1.4,5.6-3.4,5.9c-4,0.4-7.9,1.7-11.5,3.7c-1.5,0.9-3.1,0-3.7-2.1l0,0
		c-0.5-2,0.1-4.1,1.5-5.6c2.7-2.7,6.9-6.7,14-6C256.1,103.8,257.4,105.4,257.5,107.7z"/>
	<path class="st5" d="M256.7,170.2l24.4-2c0,0,1.2,9.4-11.2,10.5S256.7,170.2,256.7,170.2z"/>
	<path class="st0" d="M337.2,146.9c0,0-20-17.7-16-52.1c-24.5,3.8-49.4,4.8-74.2,3c0,0,9-47.5,85.6-34.8
		c79.6,13.2,42.6,101,13,127.9L337.2,146.9z"/>
	<path class="st3" d="M375.6,162.3c-3.7,12.2-16.6,19.1-28.8,15.4c-12.2-3.7-19.1-16.6-15.4-28.8c3.7-12.2,16.6-19.1,28.8-15.4
		C372.4,137.2,379.3,150.1,375.6,162.3C375.6,162.3,375.6,162.3,375.6,162.3z"/>
	<path class="st4" d="M363.9,148.9c0,0-16.9-4.9-21.4,13.8"/>
	<path class="st3" d="M262.7,250.1c0,0,41.5-9.8,51-9.8c0,0,26.6-2,73.8,8.4c0,0-46.8,37.4-88.3,83.5L262.7,250.1z"/>
</g>
<g id="Capa_4">
	<polygon class="st3" points="84.2,383.1 169.2,299.3 195.9,355.6 135.9,410.8 	"/>
	<polygon class="st3" points="547.2,385 462.2,301.3 435.5,357.6 495.5,412.7 	"/>
	<path class="st1" d="M519.1,331.8c0,0-96.4-83.2-112.8-83.2h-37.7c0,0-36.6,32.1-50.9,31.5c-12.7-0.5-43.4-31.5-43.4-31.5
		s-33.3,0-44.4,0c-15.4,0-111.6,83.4-111.6,83.4l75.7,49.8c14.8-20.7,25-39.1,32-55.3l3.6,129.5l179.9-9.1l0-125.6
		c7,17.4,17.8,37.5,34.1,60.3L519.1,331.8z"/>
	<path class="st3" d="M392.1,437.1l0.9,38.4l143.3-43.3c15.9-3.5,24.8-21.7,18.2-37.3l0,0c-5.5-12.9-19.8-18.8-32.3-13.4
		L392.1,437.1z"/>
	<path class="st3" d="M401.9,462l-4.6,15.3c-2.4,8-6.6,15.3-12.4,21.3l-10.1,10.6c-2.1,2.3-5.7,2.3-8,0.2c-0.2-0.2-0.4-0.5-0.6-0.7
		l0,0c-1.8-2.4-1.9-5.5-0.4-8.1l8.1-13.3L320.8,517c-2.1,1.2-4.7,0.5-6-1.6c-0.1-0.2-0.2-0.3-0.2-0.5l-0.7-1.6
		c-0.8-1.9-0.2-4.1,1.5-5.3l30.9-18.5l-38.5,16.4c-2.2,1.1-4.8,0.2-5.8-1.9c-0.1-0.2-0.1-0.3-0.2-0.5l-0.4-1.2
		c-0.7-2.1,0.2-4.4,2.1-5.4l39.5-18.2l-34.3,8.8c-2.3,0.7-4.7-0.7-5.4-3c-0.1-0.3-0.1-0.6-0.2-0.9l0-0.6c-0.1-1.9,1-3.7,2.8-4.3
		l34.8-13l-22,5.1c-2.3,0.5-4.7-0.9-5.2-3.3c-0.1-0.6-0.2-1.3,0-1.9l0,0c0.3-1.5,1.4-2.7,2.9-3.2l78.4-26.2L401.9,462z"/>
	<path class="st4" d="M373.9,483.8c0,0-3.7-11.5,4.9-23.8"/>
	<path class="st3" d="M239.4,435.1l-0.9,38.4L95.1,430.2c-15.9-3.5-24.8-21.7-18.2-37.3l0,0c5.5-12.9,19.8-18.8,32.4-13.4
		L239.4,435.1z"/>
	<path class="st3" d="M229.5,460.1l4.6,15.3c2.4,8,6.6,15.3,12.4,21.3l10.1,10.6c2.1,2.3,5.7,2.3,8,0.2c0.2-0.2,0.4-0.5,0.6-0.7l0,0
		c1.8-2.4,1.9-5.5,0.4-8.1l-8.1-13.3l53.2,29.7c2.1,1.2,4.7,0.5,6-1.6c0.1-0.2,0.2-0.3,0.2-0.5l0.7-1.6c0.8-1.9,0.2-4.1-1.5-5.3
		l-30.9-18.5l38.5,16.4c2.2,1.1,4.8,0.2,5.8-1.9c0.1-0.2,0.1-0.3,0.2-0.5l0.4-1.2c0.7-2.1-0.2-4.4-2.1-5.4l-39.5-18.2l34.3,8.8
		c2.3,0.7,4.7-0.7,5.4-3c0.1-0.3,0.1-0.6,0.2-0.9l0-0.6c0.1-1.9-1-3.7-2.8-4.3l-34.8-13l22,5.1c2.3,0.5,4.7-0.9,5.2-3.2
		c0.1-0.6,0.2-1.3,0-1.9l0,0c-0.3-1.5-1.4-2.7-2.9-3.2l-78.4-26.2L229.5,460.1z"/>
	<path class="st4" d="M257.5,481.8c0,0,3.7-11.5-4.9-23.8"/>
	<path class="st6" d="M324,357L324,357c22.1,0,40,17.9,40,40l0,0v87l0,0h-80l0,0v-87C284,374.9,301.9,357,324,357L324,357L324,357z"
		/>
	<rect x="308.9" y="338.4" class="st7" width="29.5" height="26.9"/>
	<path class="st6" d="M307.1,332.2h33.7c2.7,0,4.9,2.2,4.9,4.9V349c0,2.7-2.2,4.9-4.9,4.9h-33.7c-2.7,0-4.9-2.2-4.9-4.9v-11.9
		C302.3,334.4,304.4,332.2,307.1,332.2z"/>
	<rect x="310.9" y="324.6" class="st7" width="24.8" height="14.2"/>
	<path class="st8" d="M308.9,308.7h-31.9c-2,0-3.6,1.6-3.6,3.6l0,0v0.2c0,2,1.6,3.6,3.6,3.6l0,0h26c2,0,3.6,1.6,3.6,3.6l0,0v2.1
		c0,2,1.6,3.6,3.6,3.6l0,0h26.2c2,0,3.6-1.6,3.6-3.6l0,0v-9.5c0-2-1.6-3.6-3.6-3.6l0,0L308.9,308.7z"/>
	<path class="st8" d="M324.4,420.5h-2.2c-1,0-1.8-0.8-1.8-1.8v-21.5c0-1,0.8-1.8,1.8-1.8h2.2c1,0,1.8,0.8,1.8,1.8v21.5
		C326.2,419.7,325.4,420.5,324.4,420.5z"/>
	<path class="st8" d="M310.8,408.8v-1.7c0-0.9,0.7-1.7,1.7-1.7h21.8c0.9,0,1.7,0.7,1.7,1.7v1.7c0,0.9-0.7,1.7-1.7,1.7h-21.8
		C311.5,410.4,310.8,409.7,310.8,408.8z"/>
</g>
</svg>
