<svg id="_1" data-name="1" xmlns="http://www.w3.org/2000/svg" viewBox="0 0 278.229 319.93"><defs><style>.cls-1{fill:#d9898f;}.cls-2{fill:#f29b5f;}.cls-3{fill:#ffaf78;}.cls-4{fill:#dd996b;}.cls-5,.cls-7{fill:none;}.cls-5{stroke:#2f1a2a;stroke-linecap:round;stroke-linejoin:round;stroke-width:0.893px;}.cls-6{fill:#d6b494;}.cls-7{stroke:#d9898f;stroke-miterlimit:10;stroke-width:0.75px;}.cls-8{fill:#fff;}.cls-9{fill:#2f1a2a;}</style></defs><title>ilustraciones</title><path class="cls-1" d="M86.5,61.07s2.244,14.491-1.595,18.271c-7.323,7.213-29.666,10.422-18.137,41.61l102.682.807s5.179-12.341-6.235-19.63c0,0-3.971-2.819-1.456-11.195S158.222,76.542,150.8,67.517L136.263,43.464Z"/><ellipse class="cls-1" cx="121.45" cy="59.207" rx="33.478" ry="35.078" transform="translate(61.291 180.188) rotate(-89.55)"/><circle class="cls-2" cx="152.832" cy="72.017" r="9.077" transform="translate(-15.721 83.591) rotate(-29.159)"/><polygon class="cls-3" points="133.386 92.943 132.195 133.184 103.052 131.325 109.468 72.136 133.386 92.943"/><path class="cls-4" d="M132.937,105.253S119.944,103.812,119.5,89l13.742,7.41Z"/><path class="cls-3" d="M150.822,39.608a13.258,13.258,0,0,1,4.274,7.615c1.669,8.7,4.959,24.024,1.812,33.218-4.091,11.956-13.892,20.38-29.6,17.265,0,0-18.836-2.05-22.526-25.957C98.905,33.658,131.345,22.884,150.822,39.608Z"/><path class="cls-5" d="M147.572,70.588l1.418,3.958a.948.948,0,0,1-.689,1.114l-2.243.4"/><path class="cls-1" d="M107.119,65.69c1.492.638,29.093-15.676,15.3-33.776,0,0-20.934,4.741-19.959,33.725Z"/><path class="cls-1" d="M124.6,38.544s18.525-4.364,29.213,4.937c0,0-5.083-16.688-30.505-17.739l-9.737,21.214Z"/><polygon class="cls-1" points="112.956 56.276 111.011 75.257 104.596 57.817 112.956 56.276"/><path class="cls-3" d="M91.232,77a11.015,11.015,0,1,0,7.455-13.679A11.016,11.016,0,0,0,91.232,77Z"/><path class="cls-5" d="M96.856,70.633s8.093-2.256,10.172,6.648"/><path class="cls-6" d="M159.316,138.135s15.74,9.331,15.74,33.573V241.2a17.594,17.594,0,0,1-14.782,17.368h0a17.594,17.594,0,0,1-20.4-17.248l-.621-91.556Z"/><path class="cls-3" d="M215.747,196.144l7.55,9.781-57.9,51.515a14.24,14.24,0,0,1-21.507-5.846h0a14.24,14.24,0,0,1,6.859-18.442Z"/><path class="cls-3" d="M215.747,196.144l4.123-7.157a27.505,27.505,0,0,1,8.757-9.275l6.347-4.159a2.914,2.914,0,0,1,4.267,1.267h0a3.731,3.731,0,0,1-.751,4.109l-5.636,5.755L263.174,178a2.257,2.257,0,0,1,2.891,1.768l.157.9a2.258,2.258,0,0,1-1.4,2.491l-17.794,5.707,21.346-3.728a2.257,2.257,0,0,1,2.768,1.941l.075.667a2.256,2.256,0,0,1-1.716,2.449l-22.1,4.537,18.321-.371A2.257,2.257,0,0,1,268.047,197l-.05.286a2.258,2.258,0,0,1-1.934,1.851L246.991,201.6l11.708,0a2.257,2.257,0,0,1,2.033,3.238h0a2.26,2.26,0,0,1-1.825,1.267l-42.641,3.947Z"/><path class="cls-6" d="M99.154,124.646s-25.245,5.8-34.914,30.629-2.955,110.177-2.955,110.177,48.02,23.858,89.933-3.026l8.1-124.291s-11.737-8.03-19.378-12.6Z"/><path class="cls-3" d="M112.83,119.409s-8.055,1.8-22.036,8.551c0,0,20.9,16.24,37.426,35.776,0,0,12.852-13.2,11.718-38.2l-16.324-6.124Z"/><line class="cls-7" x1="157.152" y1="170.613" x2="153.185" y2="230.134"/><line class="cls-6" x1="82.963" y1="217.365" x2="82.179" y2="157.718"/><path class="cls-3" d="M45.908,257.7l-4.816,2.684s-1.054,14.573-7.523,27.941a1.822,1.822,0,0,1-1.937.99h0a1.807,1.807,0,0,1-1.427-2.322l3.12-9.981a158.576,158.576,0,0,1-8.576,17.307,2.278,2.278,0,0,1-2.931.9h0a2.268,2.268,0,0,1-1.133-2.89l6.44-16.121L18.634,291.24a2.507,2.507,0,0,1-3.343.989h0a2.508,2.508,0,0,1-1.086-3.333l7.2-14.564L13.285,285.66a2.9,2.9,0,0,1-4.452.314h0a2.9,2.9,0,0,1-.3-3.631c3-4.46,10.036-15.7,9.911-23.041a35.094,35.094,0,0,0-5.809,4.785,3.283,3.283,0,0,1-5.029-.37h0a3.275,3.275,0,0,1,0-3.78l6.04-8.562a8.485,8.485,0,0,1,4.76-3.31L28.836,245.3l4.98-5.164Z"/><path class="cls-8" d="M136.162,82.072l13.126.966s-.13,5.129-6.822,4.677S136.162,82.072,136.162,82.072Z"/><polygon class="cls-6" points="64.594 164.83 54.713 194.956 32.991 239.837 46.876 259.072 85.041 192.533 64.594 164.83"/><line class="cls-7" x1="85.041" y1="181.959" x2="60.126" y2="236.481"/><path class="cls-9" d="M150.219,68.091a2.077,2.077,0,1,0,1.48-2.537A2.076,2.076,0,0,0,150.219,68.091Z"/><path class="cls-9" d="M132.665,68.443a2.077,2.077,0,1,0,1.481-2.537A2.077,2.077,0,0,0,132.665,68.443Z"/><circle class="cls-1" cx="91.301" cy="34.99" r="10.498"/><path class="cls-1" d="M132.859,59.173s6.44-.6,6.782.96c0,0,.183,1.059-5.448,1.518s-7.881.384-8.575-.588S129.814,59.317,132.859,59.173Z"/><path class="cls-1" d="M152.136,59.106s-5.61-.644-6.415.849c0,0-.507,1.022,4.424,1.515,3.591.359,4.929.033,5.294-.652C155.872,60.006,154.257,59.257,152.136,59.106Z"/></svg>