<svg xmlns="http://www.w3.org/2000/svg" viewBox="0 0 630.187 679.356"><defs><style>.cls-1{fill:#171717;}.cls-2{fill:#ffae4d;}.cls-3{fill:#ba5f3f;}.cls-4{fill:#ce7d5d;}.cls-5{fill:none;stroke:#ba5f3f;stroke-linecap:round;stroke-linejoin:round;stroke-width:1.434px;}.cls-6{fill:#fff;}.cls-7{fill:#195ba3;}.cls-8{fill:#217cce;}.cls-9{fill:#fafbfd;}</style></defs><title>ilustraciones</title><g id="_2" data-name="2"><circle class="cls-1" cx="392.915" cy="138.72" r="55.162" transform="translate(16.992 318.463) rotate(-45)"/><circle class="cls-2" cx="349.311" cy="166.722" r="38.202" transform="translate(-25.074 68.487) rotate(-10.812)"/><circle class="cls-3" cx="250.819" cy="222.328" r="19.044"/><polygon class="cls-4" points="283.229 259.663 289.941 338.248 361.221 334.634 340.987 218.599 283.229 259.663"/><path class="cls-3" d="M291.972,295.161s31.376,4.451,34.294-32.44l-34.75,15.32Z"/><path class="cls-4" d="M255.569,154.368a27.811,27.811,0,0,0-9.092,15.905c-3.644,18.22-10.8,56.114-4.35,75.455,8.387,25.15,28.811,41.053,61.815,34.778,0,0,38.249-1.742,47.685-57.95C365.014,142.811,296.706,119.6,255.569,154.368Z"/><path class="cls-1" d="M253.436,210.884a4.357,4.357,0,1,1-3.106-5.322A4.357,4.357,0,0,1,253.436,210.884Z"/><path class="cls-1" d="M290.264,211.623a4.358,4.358,0,1,1-3.107-5.322A4.358,4.358,0,0,1,290.264,211.623Z"/><polyline class="cls-5" points="260.822 218.716 256.514 229.092 263.495 230.971"/><path class="cls-1" d="M278.9,177.786h0a5.055,5.055,0,0,0,4.093,6.286,58.071,58.071,0,0,1,16.639,5.088,4.409,4.409,0,0,0,5.892-1.715h0a4.6,4.6,0,0,0-1.39-5.787A28.963,28.963,0,0,0,284.1,174.01,5.2,5.2,0,0,0,278.9,177.786Z"/><path class="cls-1" d="M257.536,177.479h0c.194,2.919-1.358,5.649-3.352,5.888a29.473,29.473,0,0,0-11.462,3.738c-1.513.906-3.141,0-3.686-2.147h0a6.108,6.108,0,0,1,1.524-5.6c2.671-2.712,6.89-6.716,13.962-6C256.109,173.513,257.38,175.129,257.536,177.479Z"/><path class="cls-6" d="M256.686,239.963l24.36-1.981s1.228,9.447-11.178,10.531S256.686,239.963,256.686,239.963Z"/><path class="cls-1" d="M337.157,216.629s-19.974-17.672-16-52.053a333.007,333.007,0,0,1-74.186,3.028s8.983-47.525,85.556-34.779c79.564,13.244,42.593,100.987,13.027,127.933Z"/><path class="cls-4" d="M375.641,232.1a23.11,23.11,0,1,1-15.414-28.82A23.11,23.11,0,0,1,375.641,232.1Z"/><path class="cls-5" d="M363.948,218.646s-16.942-4.866-21.449,13.779"/><path class="cls-4" d="M262.671,319.9s41.465-9.775,51.036-9.775c0,0,26.555-2.032,73.808,8.351,0,0-46.837,37.357-88.27,83.5Z"/></g><g id="Capa_4" data-name="Capa 4"><polygon class="cls-4" points="84.237 452.863 169.198 369.087 195.899 425.391 135.915 480.508 84.237 452.863"/><polygon class="cls-4" points="547.206 454.792 462.246 371.015 435.544 427.32 495.529 482.436 547.206 454.792"/><path class="cls-2" d="M519.116,401.507s-96.427-83.184-112.807-83.18H368.568S331.988,350.38,317.66,349.8c-12.7-.514-43.424-31.474-43.424-31.474s-33.272,0-44.362,0c-15.435,0-111.591,83.412-111.591,83.412l75.654,49.767c14.774-20.68,25.01-39.13,31.993-55.337l3.595,129.45,179.858-9.091.006-125.594c6.977,17.381,17.756,37.5,34.073,60.34Z"/><path class="cls-4" d="M392.077,506.811l.948,38.405,143.293-43.348c15.945-3.534,24.814-21.739,18.159-37.275h0c-5.532-12.917-19.783-18.834-32.35-13.432Z"/><path class="cls-4" d="M401.918,531.756l-4.6,15.26a53.088,53.088,0,0,1-12.375,21.278l-10.1,10.606a5.625,5.625,0,0,1-8.576-.5h0a7.2,7.2,0,0,1-.395-8.051l8.059-13.292-53.151,29.654a4.357,4.357,0,0,1-6.21-2.051l-.69-1.62a4.357,4.357,0,0,1,1.54-5.3l30.924-18.547-38.468,16.392a4.356,4.356,0,0,1-6.055-2.431l-.435-1.22a4.357,4.357,0,0,1,2.149-5.357l39.52-18.24L308.8,557.088a4.356,4.356,0,0,1-5.526-3.946l-.032-.56a4.358,4.358,0,0,1,2.821-4.328l34.752-13.018-22,5.144a4.357,4.357,0,0,1-5.243-5.192h0a4.356,4.356,0,0,1,2.872-3.182l78.385-26.166Z"/><path class="cls-5" d="M373.934,553.506s-3.732-11.468,4.915-23.838"/><path class="cls-4" d="M239.366,504.883l-.947,38.4L95.125,499.939c-15.944-3.533-24.813-21.738-18.159-37.274h0c5.533-12.917,19.784-18.834,32.351-13.432Z"/><path class="cls-4" d="M229.525,529.827l4.6,15.261A53.085,53.085,0,0,0,246.5,566.365l10.1,10.607a5.624,5.624,0,0,0,8.575-.5h0a7.2,7.2,0,0,0,.395-8.051l-8.058-13.292,53.151,29.654a4.356,4.356,0,0,0,6.209-2.051l.69-1.621a4.355,4.355,0,0,0-1.54-5.3L285.1,557.261l38.469,16.392a4.356,4.356,0,0,0,6.055-2.431l.435-1.219a4.356,4.356,0,0,0-2.149-5.357l-39.521-18.241,34.261,8.755a4.356,4.356,0,0,0,5.526-3.946l.032-.56a4.355,4.355,0,0,0-2.821-4.328l-34.751-13.018,22,5.143a4.356,4.356,0,0,0,5.244-5.191h0A4.357,4.357,0,0,0,315,530.077l-78.384-26.165Z"/><path class="cls-5" d="M257.51,551.578s3.731-11.468-4.915-23.838"/><path class="cls-7" d="M324.007,426.726h0a40.009,40.009,0,0,1,40.009,40.009v87a0,0,0,0,1,0,0H284a0,0,0,0,1,0,0v-87a40.009,40.009,0,0,1,40.009-40.009Z"/><rect class="cls-8" x="308.863" y="408.155" width="29.464" height="26.913"/><rect class="cls-7" x="302.27" y="401.974" width="43.475" height="21.635" rx="4.868" ry="4.868"/><rect class="cls-8" x="310.9" y="394.363" width="24.818" height="14.162"/><path class="cls-9" d="M308.863,378.448H276.924a3.6,3.6,0,0,0-3.6,3.6v.228a3.6,3.6,0,0,0,3.6,3.6h26.028a3.6,3.6,0,0,1,3.6,3.6v2.051a3.6,3.6,0,0,0,3.6,3.6h26.168a3.6,3.6,0,0,0,3.6-3.6V382.05a3.6,3.6,0,0,0-3.6-3.6Z"/><rect class="cls-9" x="320.456" y="465.128" width="5.706" height="25.104" rx="1.777" ry="1.777" transform="translate(646.617 955.359) rotate(-180)"/><rect class="cls-9" x="320.806" y="465.128" width="5.006" height="25.104" rx="1.664" ry="1.664" transform="translate(-154.371 800.989) rotate(-90)"/></g></svg>