<svg xmlns="http://www.w3.org/2000/svg" viewBox="0 0 979.444 679.356"><defs><style>.cls-1{fill:#d9898f;}.cls-2{fill:#ce7d5d;}.cls-3{fill:none;stroke:#ba5f3f;stroke-linecap:round;stroke-linejoin:round;stroke-width:1.434px;}.cls-4{fill:#195ba3;}.cls-5{fill:#217cce;}.cls-6{fill:#fafbfd;}</style></defs><title>ilustraciones</title><g id="Capa_4" data-name="Capa 4"><path class="cls-1" d="M549.17,207.032s-43.606,32.053-60.688,31.473c-15.137-.513-51.766-31.473-51.766-31.473H379.131v184.2h218.7v-184.2Z"/><polygon class="cls-2" points="227.247 339.274 324.663 241.985 351.365 298.289 291.38 353.406 227.247 339.274"/><path class="cls-1" d="M379.131,207.032s14.647-2.232,16.025,11.169a91.775,91.775,0,0,1-1.922,28.666c-4.945,23.053-18.914,54.21-52.243,93.343l-90.186-49.766Z"/><path class="cls-2" d="M415.861,391.693l-1.516,42.584L244.017,387.663c-18.966-3.757-29.352-23.849-21.266-41.139h0a30.479,30.479,0,0,1,38.688-15.216Z"/><path class="cls-2" d="M406.5,417.146l4.6,15.26a53.088,53.088,0,0,0,12.375,21.278l10.1,10.606a5.624,5.624,0,0,0,8.575-.5h0a7.2,7.2,0,0,0,.395-8.051l-8.058-13.292L487.639,472.1a4.356,4.356,0,0,0,6.209-2.051l.69-1.62a4.356,4.356,0,0,0-1.54-5.3L462.074,444.58l38.469,16.392a4.356,4.356,0,0,0,6.055-2.431l.435-1.22a4.357,4.357,0,0,0-2.149-5.357l-39.521-18.24,34.261,8.754a4.356,4.356,0,0,0,5.526-3.945l.032-.561a4.357,4.357,0,0,0-2.821-4.328L467.61,420.626l22,5.144a4.357,4.357,0,0,0,5.244-5.192h0a4.358,4.358,0,0,0-2.873-3.182L413.6,391.23Z"/><path class="cls-3" d="M434.488,442.442s3.731-11.467-4.916-23.838"/><polygon class="cls-2" points="752.197 339.042 654.781 241.753 628.079 298.058 688.064 353.174 752.197 339.042"/><path class="cls-1" d="M600.313,206.8s-14.647-2.231-16.025,11.17a91.739,91.739,0,0,0,1.922,28.665c4.945,23.053,18.914,54.211,52.242,93.344l90.187-49.767Z"/><path class="cls-2" d="M563.583,391.462l1.515,42.584,170.329-46.615c18.966-3.757,29.352-23.849,21.266-41.139h0a30.478,30.478,0,0,0-38.688-15.215Z"/><path class="cls-2" d="M572.94,416.914l-4.6,15.26a53.082,53.082,0,0,1-12.375,21.278l-10.1,10.607a5.625,5.625,0,0,1-8.575-.506h0a7.2,7.2,0,0,1-.395-8.051l8.058-13.291-53.151,29.654a4.357,4.357,0,0,1-6.209-2.052l-.69-1.62a4.355,4.355,0,0,1,1.54-5.3l30.924-18.548L478.9,460.74a4.356,4.356,0,0,1-6.055-2.431l-.435-1.22a4.355,4.355,0,0,1,2.149-5.356l39.521-18.241-34.261,8.755a4.357,4.357,0,0,1-5.526-3.946l-.032-.56a4.355,4.355,0,0,1,2.821-4.328L511.834,420.4l-22,5.143a4.356,4.356,0,0,1-5.244-5.191h0a4.358,4.358,0,0,1,2.872-3.183L565.847,391Z"/><path class="cls-3" d="M544.956,442.211s-3.731-11.468,4.915-23.838"/><path class="cls-4" d="M495.03,315.43h0a40.009,40.009,0,0,1,40.009,40.009v87a0,0,0,0,1,0,0H455.021a0,0,0,0,1,0,0v-87A40.009,40.009,0,0,1,495.03,315.43Z"/><rect class="cls-5" x="479.886" y="296.86" width="29.464" height="26.913"/><rect class="cls-4" x="473.292" y="290.679" width="43.475" height="21.635" rx="4.868" ry="4.868"/><rect class="cls-5" x="481.922" y="283.068" width="24.818" height="14.162"/><path class="cls-6" d="M479.886,267.153h-31.94a3.6,3.6,0,0,0-3.6,3.6v.229a3.6,3.6,0,0,0,3.6,3.6h26.028a3.6,3.6,0,0,1,3.6,3.6v2.051a3.6,3.6,0,0,0,3.6,3.6h26.168a3.6,3.6,0,0,0,3.6-3.6v-9.483a3.6,3.6,0,0,0-3.6-3.6Z"/><rect class="cls-6" x="491.478" y="353.832" width="5.706" height="25.104" rx="1.777" ry="1.777" transform="translate(988.662 732.769) rotate(-180)"/><rect class="cls-6" x="491.828" y="353.833" width="5.006" height="25.104" rx="1.664" ry="1.664" transform="translate(127.947 860.716) rotate(-90)"/><circle class="cls-4" cx="415.94" cy="319.753" r="9.437"/><circle class="cls-4" cx="406.503" cy="363.881" r="9.437"/><circle class="cls-4" cx="447.458" cy="293.275" r="4.625"/><circle class="cls-4" cx="430.883" cy="346.188" r="4.625"/><circle class="cls-4" cx="446.693" cy="327.233" r="4.625"/><circle class="cls-4" cx="440.731" cy="370.087" r="4.625"/><circle class="cls-4" cx="423.887" cy="290.149" r="4.625"/></g></svg>