<svg xmlns="http://www.w3.org/2000/svg" viewBox="0 0 363.577 357.449"><defs><style>.cls-1{fill:#f22e3e;}.cls-2{fill:#ed6e83;}.cls-3{fill:#ef4d61;}</style></defs><title>ilustraciones</title><g id="_2" data-name="2"><path class="cls-1" d="M219.863,189.368s3.847,11.1,8.069,13.3l4.223,2.2s3.843-2.967,11.581,1.77,4.49,13.768-1.011,15.72-11.483-2.344-12.777-4.783a24.417,24.417,0,0,1-1.869-6.463s-11.09-6.917-20.417-3.888Z"/><path class="cls-1" d="M143.714,168.081s-3.847-11.094-8.069-13.3l-4.223-2.205s-3.843,2.966-11.581-1.771a8.665,8.665,0,0,1,1.011-15.719c5.5-1.952,11.483,2.344,12.777,4.782a24.43,24.43,0,0,1,1.869,6.464s11.09,6.916,20.417,3.887Z"/><path class="cls-1" d="M192.432,140.65s11.094-3.846,13.3-8.069l2.206-4.223s-2.967-3.843,1.77-11.581a8.665,8.665,0,0,1,15.719,1.011c1.952,5.5-2.344,11.483-4.782,12.777a24.42,24.42,0,0,1-6.464,1.869s-6.916,11.091-3.887,20.417Z"/><path class="cls-1" d="M171.145,216.8s-11.094,3.847-13.3,8.07l-2.205,4.222s2.967,3.843-1.77,11.581-13.768,4.49-15.72-1.011,2.344-11.483,4.783-12.777a24.417,24.417,0,0,1,6.463-1.869s6.917-11.09,3.888-20.417Z"/><path class="cls-1" d="M222.17,155.988s12.384,6.007,17.712,4.335l5.328-1.672s.726-5.645,11.067-8.132,15.133,7.69,12.192,13.867-11.462,7.576-14.555,6.627a28.587,28.587,0,0,1-6.907-3.809s-14.926,3.46-20.146,13.7Z"/><path class="cls-1" d="M141.407,201.461s-12.384-6.007-17.712-4.334l-5.328,1.672s-.726,5.644-11.067,8.132-15.134-7.69-12.192-13.868,11.462-7.575,14.555-6.626a28.62,28.62,0,0,1,6.907,3.808s14.925-3.46,20.145-13.7Z"/><path class="cls-1" d="M159.052,138.343s6.007-12.384,4.335-17.712l-1.673-5.328s-5.644-.726-8.132-11.067,7.69-15.133,13.868-12.191,7.575,11.461,6.626,14.554a28.6,28.6,0,0,1-3.808,6.907s3.46,14.926,13.7,20.146Z"/><path class="cls-1" d="M204.525,219.106s-6.007,12.385-4.335,17.712l1.673,5.328s5.644.726,8.131,11.067-7.69,15.134-13.867,12.192-7.575-11.462-6.626-14.555a28.583,28.583,0,0,1,3.808-6.907s-3.46-14.925-13.7-20.145Z"/><path class="cls-2" d="M150.907,197.6c25.09,13.89,62.046-14.925,57.906-39.715a52.875,52.875,0,0,0-11.428-24.6,48.352,48.352,0,0,0-61.459,27.246C134.812,173.21,136.581,189.673,150.907,197.6Z"/><path class="cls-3" d="M197.385,133.292a52.875,52.875,0,0,1,11.428,24.6c4.14,24.79-32.816,53.6-57.906,39.715-14.326-7.931-16.095-24.394-14.981-37.066a48.362,48.362,0,1,0,61.459-27.246Z"/></g></svg>