<svg id="_1" data-name="1" xmlns="http://www.w3.org/2000/svg" xmlns:xlink="http://www.w3.org/1999/xlink" viewBox="0 0 448.837 359.689"><defs><style>.cls-1{fill:#221914;}.cls-2{fill:#d9898f;}.cls-3{fill:#f29b5f;}.cls-4{fill:#ffaf78;}.cls-5{fill:#dd996b;}.cls-13,.cls-14,.cls-16,.cls-6,.cls-8{fill:none;}.cls-13,.cls-6{stroke:#2f1a2a;}.cls-13,.cls-16,.cls-6{stroke-linecap:round;stroke-linejoin:round;}.cls-6{stroke-width:0.893px;}.cls-7{fill:#d6b494;}.cls-8{stroke:#d9898f;stroke-width:0.75px;}.cls-14,.cls-8{stroke-miterlimit:10;}.cls-15,.cls-9{fill:#fff;}.cls-10{fill:#8c4d41;}.cls-11{fill:#9b5e4e;}.cls-12{fill:#2f1a2a;}.cls-13{stroke-width:1.012px;}.cls-14{stroke:#d6b494;}.cls-15{opacity:0.11;}.cls-16{stroke:#fff;stroke-width:1.261px;}.cls-17{clip-path:url(#clip-path);}.cls-18{fill:#e275c2;}</style><clipPath id="clip-path"><path id="_Trazado_de_recorte_" data-name="&lt;Trazado de recorte&gt;" class="cls-1" d="M282.631,98.97l14.2.538s-.312,6.144-7.286,6.144C282.606,105.652,282.631,98.97,282.631,98.97Z"/></clipPath></defs><title>ilustraciones</title><path class="cls-2" d="M120.541,84.911s2.244,14.491-1.594,18.272c-7.324,7.213-29.667,10.421-18.138,41.609l102.682.807s5.179-12.341-6.235-19.629c0,0-3.971-2.82-1.456-11.2s-3.541-14.391-10.959-23.415L170.3,67.305Z"/><ellipse class="cls-2" cx="155.487" cy="83.048" rx="33.478" ry="35.078" transform="translate(71.22 237.878) rotate(-89.55)"/><circle class="cls-3" cx="186.869" cy="95.859" r="9.077" transform="matrix(0.873, -0.487, 0.487, 0.873, -23.024, 103.196)"/><polygon class="cls-4" points="167.423 116.784 166.232 157.025 137.089 155.166 143.505 95.977 167.423 116.784"/><path class="cls-5" d="M166.974,129.1s-12.993-1.442-13.438-16.251l13.743,7.41Z"/><path class="cls-4" d="M184.859,63.45a13.252,13.252,0,0,1,4.274,7.614c1.669,8.7,4.959,24.025,1.813,33.219-4.092,11.955-13.893,20.379-29.6,17.265,0,0-18.836-2.051-22.526-25.958C132.942,57.5,165.382,46.726,184.859,63.45Z"/><path class="cls-6" d="M181.609,94.429l1.418,3.958a.948.948,0,0,1-.689,1.114l-2.243.4"/><path class="cls-2" d="M141.156,89.531c1.492.639,29.093-15.676,15.3-33.776,0,0-20.934,4.741-19.958,33.725Z"/><path class="cls-2" d="M158.641,62.386s18.525-4.365,29.213,4.936c0,0-5.083-16.688-30.5-17.739L147.613,70.8Z"/><polygon class="cls-2" points="146.993 80.117 145.048 99.098 138.633 81.658 146.993 80.117"/><path class="cls-4" d="M125.27,100.843a11.015,11.015,0,1,0,7.454-13.679A11.014,11.014,0,0,0,125.27,100.843Z"/><path class="cls-6" d="M130.893,94.474s8.093-2.256,10.172,6.648"/><path class="cls-7" d="M193.354,161.976s15.739,9.332,15.739,33.574v69.49a17.594,17.594,0,0,1-14.782,17.368h0a17.594,17.594,0,0,1-20.4-17.248l-.621-91.556Z"/><path class="cls-4" d="M249.784,219.985l7.55,9.781-57.9,51.516a14.241,14.241,0,0,1-21.507-5.847h0a14.241,14.241,0,0,1,6.859-18.442Z"/><path class="cls-4" d="M249.784,219.985l4.123-7.156a27.515,27.515,0,0,1,8.757-9.275l6.347-4.16a2.915,2.915,0,0,1,4.267,1.268h0a3.731,3.731,0,0,1-.751,4.109l-5.636,5.755,30.321-8.687a2.258,2.258,0,0,1,2.891,1.768l.156.9a2.257,2.257,0,0,1-1.4,2.492l-17.794,5.707,21.346-3.729a2.257,2.257,0,0,1,2.768,1.942l.076.667a2.259,2.259,0,0,1-1.717,2.449l-22.1,4.537,18.321-.372a2.257,2.257,0,0,1,2.322,2.643l-.05.287a2.256,2.256,0,0,1-1.934,1.85l-19.072,2.466,11.708,0a2.258,2.258,0,0,1,2.033,3.239h0a2.257,2.257,0,0,1-1.825,1.266L250.3,233.9Z"/><path class="cls-7" d="M133.191,148.488s-25.245,5.795-34.914,30.628-2.954,110.177-2.954,110.177,48.019,23.858,89.933-3.025l8.1-124.292s-11.737-8.029-19.379-12.6Z"/><path class="cls-4" d="M146.867,143.251s-8.055,1.8-22.036,8.55c0,0,20.9,16.241,37.426,35.777,0,0,12.852-13.2,11.718-38.2l-16.323-6.123Z"/><line class="cls-8" x1="191.189" y1="194.455" x2="187.222" y2="253.975"/><line class="cls-7" x1="117" y1="241.207" x2="116.217" y2="181.559"/><path class="cls-4" d="M79.946,281.538l-4.817,2.684s-1.054,14.573-7.523,27.941a1.822,1.822,0,0,1-1.937.99h0a1.808,1.808,0,0,1-1.427-2.322l3.121-9.981a158.647,158.647,0,0,1-8.577,17.308,2.277,2.277,0,0,1-2.931.9h0a2.267,2.267,0,0,1-1.133-2.889l6.44-16.122-8.491,15.031a2.506,2.506,0,0,1-3.342.989h0a2.507,2.507,0,0,1-1.087-3.333l7.2-14.563L47.322,309.5a2.9,2.9,0,0,1-4.452.314h0a2.9,2.9,0,0,1-.3-3.631c3-4.46,10.036-15.7,9.911-23.041a35.157,35.157,0,0,0-5.809,4.785,3.283,3.283,0,0,1-5.029-.369h0a3.275,3.275,0,0,1,0-3.781l6.039-8.562a8.483,8.483,0,0,1,4.76-3.309l10.439-2.764,4.98-5.164Z"/><path class="cls-9" d="M170.2,105.913l13.126.967s-.13,5.129-6.821,4.676S170.2,105.913,170.2,105.913Z"/><circle class="cls-10" cx="276.436" cy="89.58" r="9.545" transform="translate(-4.816 162.648) rotate(-32.518)"/><polygon class="cls-11" points="295.511 112.68 296.383 150.21 330.563 147.752 323.599 86.759 295.511 112.68"/><path class="cls-12" d="M295.866,128.4s18.579-1.548,19.469-23.766l-19.823,9.109Z"/><path class="cls-11" d="M288.25,48.569a24.845,24.845,0,0,0-15.289,20.679c-1.1,10.558-2.068,26.92,1.216,34.934,5.077,12.39,15.853,19.651,32.143,15.228,0,0,19.073-2.331,21.822-31.09C331.394,54.291,307.5,40.961,288.25,48.569Z"/><path class="cls-7" d="M319.3,88.292s-7.725-14.534-4.931-30.346c0,0-23.569,3.961-37.2-.375,0,0,3.2-19.442,34.9-16.939,43.412,3.429,30.741,49.694,10.041,57.617Z"/><path class="cls-11" d="M340.561,93.019a11.583,11.583,0,1,1-8.751-13.847A11.583,11.583,0,0,1,340.561,93.019Z"/><path class="cls-13" d="M334.228,86.718s-8.646-1.818-10.223,7.667"/><polygon class="cls-11" points="249.175 208.792 249.193 264.43 223.113 310.155 248.757 307.121 279.836 277.079 276.475 211.578 249.175 208.792"/><path class="cls-2" d="M266.91,154.177S246.674,166,243.437,195.211l.014,41.54,33.032-1.14Z"/><path class="cls-2" d="M291.811,144.69s-16.577,3.169-24.9,9.487L264.5,303.368c53.259,32.1,114.128.9,114.128.9L362.062,154.917s-2.159-8.418-25.3-10.212Z"/><path class="cls-11" d="M336.763,144.705s-19.1-4.211-44.952-.015c0,0-2.45,15.371,18.314,16.012C332.613,161.4,336.763,144.705,336.763,144.705Z"/><line class="cls-14" x1="265.607" y1="236.744" x2="265.395" y2="184.415"/><path class="cls-11" d="M311.092,232.658s-3.694-10.652-16.86-13.384l-9.263-9.092a4.04,4.04,0,0,0-5.293-.318h0a4.04,4.04,0,0,0-.815,5.563l4.563,6.333-2.5-1.076a19.209,19.209,0,0,1-9.305-8.514l-5.848-10.83a3.837,3.837,0,0,0-3.349-2.014h0a3.838,3.838,0,0,0-3.608,5.221l5.858,15.165a21.872,21.872,0,0,0,12.88,12.657l29.583,13.148Z"/><path class="cls-11" d="M311.092,232.658,393.358,264.1c7.116,3.075,10.564,15.181,7.387,22.252h0A13.9,13.9,0,0,1,380.3,292.18l-73.166-46.663Z"/><polygon class="cls-11" points="401.828 278.174 393.204 211.696 353.308 208.759 367.306 267.993 401.828 278.174"/><path class="cls-2" d="M352.035,147.565s49.857,8.2,55.766,89.133l-61.308.02-4.049-52.374Z"/><polyline class="cls-2" points="359.915 236.714 348.367 236.717 341.183 194.93"/><path class="cls-15" d="M289.821,79.033c.09,4.528,4.786,8.107,10.489,8s10.255-3.874,10.166-8.4-4.785-8.107-10.489-8S289.732,74.505,289.821,79.033Z"/><ellipse class="cls-15" cx="275.583" cy="79.253" rx="8.852" ry="7.874" transform="matrix(1, -0.02, 0.02, 1, -1.506, 5.436)"/><path class="cls-16" d="M289.821,79.033c.09,4.528,4.786,8.107,10.489,8s10.255-3.874,10.166-8.4-4.785-8.107-10.489-8S289.732,74.505,289.821,79.033Z"/><ellipse class="cls-16" cx="275.583" cy="79.253" rx="8.852" ry="7.874" transform="matrix(1, -0.02, 0.02, 1, -1.506, 5.436)"/><path class="cls-16" d="M289.821,79.033a4.434,4.434,0,0,0-5.387.045"/><line class="cls-16" x1="310.476" y1="78.626" x2="319.72" y2="81.255"/><line class="cls-14" x1="360.2" y1="236.714" x2="353.169" y2="205.469"/><polygon class="cls-7" points="98.631 188.671 88.751 218.797 67.029 263.679 80.913 282.914 119.078 216.374 98.631 188.671"/><line class="cls-8" x1="119.078" y1="205.8" x2="94.164" y2="260.322"/><path class="cls-12" d="M184.256,91.932a2.077,2.077,0,1,0,1.48-2.537A2.077,2.077,0,0,0,184.256,91.932Z"/><path class="cls-12" d="M166.7,92.284a2.077,2.077,0,1,0,1.48-2.537A2.077,2.077,0,0,0,166.7,92.284Z"/><circle class="cls-2" cx="125.338" cy="58.831" r="10.498"/><path class="cls-1" d="M279.49,83.948a2.331,2.331,0,1,1-1.862-2.72A2.33,2.33,0,0,1,279.49,83.948Z"/><path class="cls-1" d="M299.166,82.922A2.331,2.331,0,1,1,297.3,80.2,2.33,2.33,0,0,1,299.166,82.922Z"/><path class="cls-13" d="M283.811,85.508l-1.652,6.716a1.293,1.293,0,0,0,1.009,1.577l2.463.476"/><path id="_Trazado_de_recorte_2" data-name="&lt;Trazado de recorte&gt;" class="cls-1" d="M282.631,98.97l14.2.538s-.312,6.144-7.286,6.144C282.606,105.652,282.631,98.97,282.631,98.97Z"/><g class="cls-17"><path class="cls-18" d="M297.23,109.527a5.308,5.308,0,1,1-2.61-7.039A5.308,5.308,0,0,1,297.23,109.527Z"/></g><path class="cls-2" d="M166.9,83.014s6.44-.6,6.782.96c0,0,.183,1.059-5.448,1.519s-7.881.383-8.575-.589S163.851,83.158,166.9,83.014Z"/><path class="cls-2" d="M186.173,82.948s-5.61-.645-6.415.849c0,0-.507,1.022,4.424,1.514,3.591.359,4.929.033,5.294-.652C189.909,83.848,188.3,83.1,186.173,82.948Z"/></svg>