<?xml version="1.0" encoding="utf-8"?>
<!-- Generator: Adobe Illustrator 24.2.0, SVG Export Plug-In . SVG Version: 6.00 Build 0)  -->
<svg version="1.1" id="_1" xmlns="http://www.w3.org/2000/svg" xmlns:xlink="http://www.w3.org/1999/xlink" x="0px" y="0px"
	 viewBox="0 0 278.2 319.9" style="enable-background:new 0 0 278.2 319.9;" xml:space="preserve">
<style type="text/css">
	.st0{fill:#8C4D41;}
	.st1{fill:#9B5E4E;}
	.st2{fill:#2F1A2A;}
	.st3{fill:#D6B494;}
	.st4{fill:none;stroke:#2F1A2A;stroke-width:1.012;stroke-linecap:round;stroke-linejoin:round;}
	.st5{fill:#FCD597;}
	.st6{fill:none;stroke:#D6B494;stroke-miterlimit:10;}
	.st7{opacity:0.11;fill:#FFFFFF;enable-background:new    ;}
	.st8{fill:none;stroke:#FFFFFF;stroke-width:1.261;stroke-linecap:round;stroke-linejoin:round;}
	.st9{fill:#221914;}
	.st10{clip-path:url(#SVGID_2_);}
	.st11{fill:#E275C2;}
	.st12{fill:#FFFFFF;}
</style>
<ellipse class="st0" cx="99.3" cy="71.8" rx="9.7" ry="9.4"/>
<polygon class="st1" points="118.7,94.5 119.6,131.5 154.5,129 147.4,69 "/>
<path class="st2" d="M119.1,110c0,0,19-1.5,19.9-23.4l-20.2,9L119.1,110z"/>
<path class="st1" d="M111.3,31.4c-8.6,3.3-14.6,11.2-15.6,20.4c-1.1,10.4-2.1,26.5,1.2,34.4c5.2,12.2,16.2,19.4,32.8,15
	c0,0,19.5-2.3,22.3-30.6C155.4,37,131,23.9,111.3,31.4z"/>
<path class="st3" d="M143,70.5c0,0-7.9-14.3-5-29.9c0,0-24.1,3.9-38-0.4c0,0,3.3-19.1,35.6-16.7c44.3,3.4,31.4,48.9,10.3,56.8
	L143,70.5z"/>
<path class="st1" d="M164.7,75.1c-1.6,6.2-7.9,10.1-14.1,8.6c-6.2-1.2-10.2-7.2-9-13.4c0-0.1,0-0.2,0.1-0.2
	c1.6-6.2,7.9-10.1,14.1-8.6c6.2,1.2,10.2,7.2,9,13.4C164.8,75,164.8,75.1,164.7,75.1z"/>
<path class="st4" d="M158.3,68.9c0,0-8.8-1.8-10.4,7.6"/>
<polygon class="st1" points="71.4,189.2 71.4,244 44.8,289 71,286 102.7,256.4 99.3,191.9 "/>
<path class="st5" d="M89.5,135.4c0,0-20.7,11.6-24,40.4l0,40.9l33.7-1.1L89.5,135.4z"/>
<path class="st5" d="M115,126c0,0-16.9,3.1-25.4,9.3l-2.5,146.9c54.4,31.6,116.5,0.9,116.5,0.9l-16.9-147.1c0,0-2.2-8.3-25.8-10.1
	L115,126z"/>
<path class="st1" d="M160.9,126c0,0-19.5-4.1-45.9,0c0,0-2.5,15.1,18.7,15.8C156.6,142.5,160.9,126,160.9,126z"/>
<line class="st6" x1="88.2" y1="216.7" x2="88" y2="165.2"/>
<path class="st1" d="M135.3,212.9c0,0-4.4-10.7-17.9-13.4l-9.5-9c-1.5-1.4-3.8-1.5-5.4-0.3l0,0c-1.7,1.3-2.1,3.7-0.9,5.4
	c0,0,0,0,0,0.1l4.7,6.2l-2.6-1.1c-4-1.7-7.4-4.6-9.5-8.4l-6-10.7c-0.7-1.2-2-2-3.4-2l0,0c-2.1-0.1-3.9,1.6-3.9,3.7
	c0,0.5,0.1,1,0.2,1.5l6,14.9c2.4,5.9,7.2,10.4,13.2,12.5l30.7,13.2L135.3,212.9z"/>
<path class="st1" d="M134.7,212.7l84,31c7.3,3,10.8,15,7.5,21.9l0,0c-3.5,7.2-12.1,10.1-19.3,6.6c-0.5-0.3-1.1-0.6-1.6-0.9l-74.7-46
	L134.7,212.7z"/>
<polygon class="st1" points="227.3,257.5 218.5,192 177.8,189.1 192.1,247.5 "/>
<path class="st5" d="M176.5,128.9c0,0,50.9,8.1,56.9,87.8l-62.6,0l-4.1-51.6L176.5,128.9z"/>
<polyline class="st5" points="184.5,216.7 172.7,216.7 165.4,175.5 "/>
<path class="st7" d="M112.9,61.4c0.1,4.5,4.9,8,10.7,7.9c5.8-0.1,10.5-3.8,10.4-8.3s-4.9-8-10.7-7.9S112.8,56.9,112.9,61.4z"/>
<ellipse transform="matrix(0.9999 -1.500927e-02 1.500927e-02 0.9999 -0.9132 1.4838)" class="st7" cx="98.4" cy="61.6" rx="9" ry="7.8"/>
<path class="st8" d="M112.9,61.4c0.1,4.5,4.9,8,10.7,7.9c5.8-0.1,10.5-3.8,10.4-8.3s-4.9-8-10.7-7.9S112.8,56.9,112.9,61.4z"/>
<ellipse transform="matrix(0.9999 -1.500927e-02 1.500927e-02 0.9999 -0.9132 1.4838)" class="st8" cx="98.4" cy="61.6" rx="9" ry="7.8"/>
<path class="st8" d="M112.9,61.4c-1.6-1.2-3.9-1.2-5.5,0"/>
<line class="st8" x1="134" y1="61" x2="143.5" y2="63.6"/>
<line class="st6" x1="184.8" y1="216.7" x2="177.6" y2="185.9"/>
<path class="st9" d="M102.4,66.2c-0.3,1.3-1.5,2.1-2.8,1.8c-1.3-0.2-2.1-1.4-1.9-2.6c0,0,0,0,0,0c0.3-1.3,1.5-2.1,2.8-1.8
	C101.7,63.7,102.6,64.9,102.4,66.2C102.4,66.2,102.4,66.2,102.4,66.2z"/>
<path class="st9" d="M122.5,65.2c-0.3,1.3-1.5,2.1-2.8,1.8c-1.3-0.2-2.1-1.4-1.9-2.6c0,0,0,0,0,0c0.3-1.3,1.5-2.1,2.8-1.8
	C121.8,62.7,122.7,63.9,122.5,65.2C122.5,65.2,122.5,65.2,122.5,65.2z"/>
<path class="st4" d="M106.8,67.7l-1.7,6.6c-0.2,0.7,0.3,1.4,0.9,1.5c0,0,0.1,0,0.1,0l2.5,0.5"/>
<path id="_Trazado_de_recorte_2" class="st9" d="M105.6,81l14.5,0.5c0,0-0.3,6.1-7.4,6.1c-3.6,0.3-6.8-2.5-7-6.1
	C105.6,81.3,105.6,81.2,105.6,81z"/>
<g>
	<defs>
		<path id="SVGID_1_" d="M105.6,81l14.5,0.5c0,0-0.3,6.1-7.4,6.1c-3.6,0.3-6.8-2.5-7-6.1C105.6,81.3,105.6,81.2,105.6,81z"/>
	</defs>
	<clipPath id="SVGID_2_">
		<use xlink:href="#SVGID_1_"  style="overflow:visible;"/>
	</clipPath>
	<g class="st10">
		<path class="st11" d="M120.5,91.4c-1.3,2.7-4.5,3.8-7.2,2.6c-2.6-1.1-3.9-4.1-2.7-6.8c0-0.1,0.1-0.1,0.1-0.2
			c1.3-2.6,4.5-3.8,7.2-2.6c2.6,1.1,3.9,4.1,2.7,6.8C120.6,91.3,120.5,91.3,120.5,91.4z"/>
	</g>
</g>
<path class="st12" d="M142,68.3l-0.9,0.6l-10.2,2.7l0.8,24.8l9.4-28L142,68.3l-10.1,32.2c0,0-23.1,8.7-34.1-9.6
	c-1.8-3.2-3.2-6.7-3.9-10.3l0.7-10l10.4,3.7L142,68.3z"/>
</svg>
